<?xml version="1.0" encoding="UTF-8"?>
<svg id="Layer_2" data-name="Layer 2" xmlns="http://www.w3.org/2000/svg" viewBox="0 0 678.3 270.51">
  <defs>
    <style>
      .cls-1 {
        fill: #02a3de;
      }

      .cls-2 {
        fill: #fa6b9b;
      }

      .cls-3 {
        fill: #dfdedd;
      }

      .cls-4 {
        fill: #f8d551;
      }

      .cls-5 {
        fill: #00b070;
      }

      .cls-6 {
        fill: #f1f0ee;
      }

      .cls-7 {
        fill: #fff;
      }

      .cls-8 {
        fill: #2d2e34;
      }

      .cls-9 {
        fill: #d3d3d3;
      }
    </style>
  </defs>
  <g id="Layer_1-2" data-name="Layer 1">
    <g>
      <g>
        <path class="cls-4" d="M179.76,250.71l.05-1.25-.11-1.17.14-1.17-.02-1.17.16-1.17-.05-1.17v-1.17s-.07-1.17-.07-1.17l-.08-1.17-.48-1.17.35-1.17-.38-1.17.63-1.17-.47-1.17-.08-1.17.11-1.17-.13-1.17.1-1.17.09-1.17.4-1.17-.62-1.17-.03-1.17.06-1.17.38-1.18v-1.17s0-1.18,0-1.18l-.19-1.17.05-1.17-.1-1.17-.18-1.17.35-1.17-.17-1.17.04-1.17-.36-1.17.61-1.17-.46-1.17.31-1.17.18-1.17-.5-1.17-.06-1.17.16-1.17.14-1.17-.11-1.17.34-1.18-.59-1.17.61-1.18-.64-1.17.46-1.18.11-1.17v-1.17s-.55-1.17-.55-1.17l.52-1.18-.43-1.17.34-1.18-.29-1.17.1-1.18.16-1.18.08-1.18-.26-1.17-.22-1.17-.05-1.17.53-1.18-.24-1.17.23-1.18-.55-1.17.38-1.18.09-1.18-.08-1.18.08-1.18-.19-1.17.04-1.17-.16-1.17-.24-1.17-.03-1.18.12-1.18-.15-1.17.23-1.17.11-1.17-.35-1.17.02-1.17.39-1.17.19-1.17-.04-1.17-.41-1.17v-1.18s.03-1.18.03-1.18l.28-1.18-.44-1.17.43-1.18-.37-1.17.2-1.18.32-1.18-.61-1.17-.02-1.18.61-1.18-.53-1.18.07-1.18.13-1.18.03-1.18-.18-1.18.23-1.18-.15-1.18.32-1.18v-1.18s.04-1.18.04-1.18l-.37-1.18.03-1.18.33-1.18-.56-1.18.55-1.18-.5-1.18.14-1.18.05-1.19-.27-.98-.93-.17-1.13.27-1.14-.45-1.13.48-1.14-.52-1.13.3-1.14-.38-1.13.52-1.14-.21-1.14-.15-1.14.04-1.14-.22-1.13.49-1.14-.21-1.14-.26-1.14.53-1.14-.55-1.14.22-1.14-.2-1.14.39-1.14.16-1.14-.48-1.13.46-1.14-.19-1.14-.09-1.14-.13-1.14.14-1.14.05-1.14.15-1.14.25h-1.14s-1.14-.6-1.14-.6l-1.14.25-1.14.05-1.14.02-1.14.15-1.14.08-1.14-.48-1.14.38-1.14-.24-1.14.44-1.14-.35-1.14.11-1.14-.18-1.14.4-1.14-.53-1.14.17-1.14-.21-1.14.35-1.14-.12-1.14-.18-1.14.43-1.14-.32-1.14.35-1.14-.49-1.14.42-1.14-.17-1.14-.21-1.14.59-1.14-.34-1.14.41-1.14-.42-1.14.26-1.14-.04-1.14-.17-1.14.31-1.14.04-1.14-.24-1.14-.31-1.13.62-1.14-.11-1.14-.03-1.14-.36-1.14.45-1.14-.38-1.14.03-1.14.18-1.14-.4-1.14.52-1.14-.23-1.14.19-1.14-.14-1.14.22-1.14.04-1.14.02-1.14.04-1.14-.1-1.14-.52-1.14.51-1.14-.51-1.14.31-1.14.15-1.14.14-1.15-.52-1.14.34-1.14-.4-1.14.36-1.14-.29-1.14.35-1.14.31-1.15-.65-1.14.55-1.15-.2-1.38-.27.22,1.39.22,1.15-.52,1.16.58,1.15.09,1.15-.24,1.15.04,1.15-.04,1.15.03,1.16-.3,1.15-.14,1.15.02,1.16.67,1.15-.65,1.16.61,1.15-.36,1.16-.27,1.16v1.16s.48,1.18.48,1.18l-.72.08-1.15-.42-1.12.45-1.15-.12-1.09.57-1.13.08-1.22-.46-1.11.3-1.09.39-1.12.23-1.06.46-1.05.48-1.16.09-1.01.58-1,.56-1.16.17-1.14.25-.89.8-1.11.33-.98.6-.94.66-.9.72-1.02.53-1.12.39-.95.66-.69,1.01-.92.69-.93.69-.75.89-.66.97-.98.63-.75.88-.67.95-1.08.58-.64.98-.46,1.12-.77.87-1.03.69-.09,1.34-.71.91-.43,1.09-1,.77-.59,1.01-.26,1.18-.46,1.07-.57,1.03-.17,1.19-.75.97.05,1.25-.78.98.2,1.27-.63,1.04-.04,1.19-.27,1.14-.4,1.12-.3,1.14.35,1.22-.21,1.15-.5,1.15.22,1.19-.15,1.17.42,1.16-.39,1.19.14,1.17.43,1.14.25,1.14-.18,1.21v1.2s.77,1.03.77,1.03l.2,1.15-.26,1.28.39,1.11.32,1.13.45,1.09.86.92.43,1.08.29,1.14.25,1.17.57,1.02.34,1.15.56,1.03,1.06.71.2,1.26.56,1.04,1.15.6.32,1.22,1.05.64.48,1.11.96.69.71.91.59,1.05,1.11.51.85.77.79.84.78.86.87.76.86.77.81.86,1.07.47,1.17.28.84.83.9.76,1.24.09.88.81,1.13.28.86.91,1.3-.2,1.03.49.91.88,1.15.15,1.13.19,1.1.3,1.05.57,1.2-.21,1.05.66,1.19-.31,1.1.46,1.16-.23,1.11.5,1.16-.51,1.13.24.93-.06-.68,1.24.52,1.18.02,1.18-.22,1.18-.13,1.18-.13,1.18.61,1.18-.16,1.18-.25,1.18-.1,1.18.54,1.18-.29,1.18.27,1.18-.37,1.18.39,1.18-.2,1.18.21,1.18-.32,1.19.2,1.01.96-.15,1.13.22,1.13.05,1.13-.3,1.14.29,1.13-.1,1.13-.14,1.14.3,1.13-.05,1.13-.24,1.14.57,1.13-.38,1.14-.23,1.14.29,1.14.13,1.14-.21,1.14-.25,1.14.2,1.14.2,1.14-.15,1.14-.06,1.14-.02,1.14.43,1.14-.05,1.13-.27,1.14.24,1.14-.12,1.14-.23,1.14.07,1.14.09,1.14-.4,1.14.54,1.14-.28,1.14-.13,1.14-.02,1.14-.03,1.14.47,1.14-.24,1.14.25,1.14-.35,1.14.05,1.14.04,1.14.26,1.14-.16h1.14s1.14-.4,1.14-.4l1.14.15,1.14.22h1.14s1.14-.18,1.14-.18l1.14.29,1.14-.06,1.14-.12,1.14-.22,1.14.12,1.14.17,1.14-.52,1.14.48,1.14.2,1.14-.45,1.14.41,1.14-.08,1.14-.16,1.14-.36,1.14.56,1.14-.35,1.14.28,1.13-.23,1.13-.28h1.14s1.14-.1,1.14-.1l1.14.64,1.14-.46,1.14-.16,1.14.3,1.14-.35,1.14.02,1.14.34,1.14-.34,1.14.37,1.14.15,1.14-.28,1.14-.14,1.14-.04,1.14.39,1.14-.5,1.14.26,1.14.4,1.14-.1,1.14-.4,1.14-.11,1.14.1,1.14.22,1.14.12,1.14-.57,1.14.73,1.14-.5,1.14.12,1.14.08,1.14-.34h1.14s1.15.35,1.15.35l1.16-.46,1.21.42ZM60.52,208.16l-1.12-.05-1.12.03-1.1-.27-1.1-.17-1.05-.4-1.09-.24-1.06-.36-1.07-.33-1.05-.38-1.22-.06-.82-.88-1.16-.27-.58-1.19-1.18-.3-.92-.68-.77-.87-.89-.73-.69-.94-.65-.96-.35-1.17-1.14-.6-.61-.98-.49-1.06-.16-1.21-.44-1.06-.4-1.07-.52-1.04-.25-1.13-.33-1.11-.36-1.12.22-1.2-.25-1.14v-1.16s-.32-1.17-.32-1.17l.69-1.11-.32-1.2.49-1.09.42-1.08-.19-1.25.29-1.13.54-1.04.57-1.01.39-1.09.84-.84.08-1.3,1.14-.6.16-1.32,1.08-.59.83-.77.78-.81.46-1.19,1.2-.33.64-1.05,1.12-.36.81-.85,1.03-.47,1.08-.35,1.06-.38.95-.66,1.01-.57,1.08-.36,1.21.29,1.06-.43,1.14.1,1.08-.65,1.14.36.38-.07.08,1.15-.08,1.18.19,1.18-.04,1.18.16,1.18.24,1.18.03,1.18-.12,1.18.15,1.18-.23,1.18-.11,1.18.35,1.18-.02,1.18-.39,1.18-.19,1.18.04,1.18.41,1.18v1.19s-.03,1.19-.03,1.19l-.28,1.19.44,1.18-.43,1.19.37,1.18-.2,1.19-.32,1.19.61,1.18.02,1.19-.61,1.19.53,1.19-.07,1.18-.13,1.19-.03,1.19.18,1.18-.23,1.19.15,1.19-.32,1.19v1.19s-.04,1.19-.04,1.19l.37,1.19-.03,1.19-.32,1.14-.25-.03Z"/>
        <polygon class="cls-8" points="134.81 182.99 134.81 183.58 133.68 182.92 132.67 182.39 131.42 182.2 130.97 180.98 130.01 180.21 129.62 179.05 129.25 177.84 129.68 176.68 129.38 175.52 129.64 174.36 129.65 173.21 129.48 172.05 129.8 170.89 129.26 169.73 129.77 168.57 129.75 167.41 129.68 166.25 129.74 165.1 129.12 163.94 129.71 162.78 129.29 161.62 129.7 160.46 129.33 159.29 129.8 158.13 129.51 156.97 129.29 155.8 129.09 154.64 129.31 153.37 129.87 152.25 130.54 151.23 131.43 150.44 132.39 149.74 133.51 149.39 134.67 149.37 134.67 149.28 135.9 149.04 136.99 149.65 138.09 150.2 139.01 151.04 139.61 152.15 139.93 153.36 140.29 154.59 139.64 155.75 140.3 156.91 140.07 158.07 140.27 159.22 139.69 160.39 139.95 161.54 139.89 162.7 140.25 163.86 139.88 165.02 140.33 166.18 140.34 167.34 139.79 168.5 140.01 169.66 139.82 170.82 140.05 171.98 139.77 173.14 139.82 174.3 139.97 175.46 140.07 176.63 140.37 177.79 139.58 178.92 139.31 180.04 139.15 181.37 137.96 181.88 137.04 182.58 135.99 183.13 134.81 182.99"/>
        <polygon class="cls-8" points="106.98 183.15 106.98 183.21 105.79 183.32 104.65 182.93 103.86 181.98 103.02 181.2 102.45 180.2 101.79 179.18 101.72 177.96 102.06 176.8 101.46 175.65 101.51 174.49 101.59 173.33 101.44 172.17 101.67 171.01 101.66 169.85 101.42 168.69 101.39 167.54 101.51 166.38 101.42 165.22 101.49 164.06 101.52 162.9 101.31 161.74 101.95 160.58 101.35 159.42 101.49 158.25 101.68 157.09 101.27 155.93 101.89 154.76 102.04 153.62 102.21 152.45 102.76 151.39 103.37 150.26 104.45 149.62 105.74 149.75 106.84 149.57 106.84 149.23 108.05 149.28 109.23 149.63 110.15 150.46 111.17 151.17 111.55 152.39 112.22 153.45 111.79 154.71 112.15 155.87 111.78 157.03 112.37 158.19 111.87 159.35 112.38 160.5 112 161.67 112.25 162.82 112.07 163.98 112.41 165.14 112.05 166.3 111.9 167.46 112.07 168.62 112.04 169.78 112.04 170.94 112.2 172.1 111.91 173.26 111.84 174.42 112.41 175.58 111.87 176.75 112.24 177.92 111.89 179.08 111.95 180.39 111.27 181.45 110.03 181.87 109.22 182.72 108.22 183.52 106.98 183.15"/>
        <polygon class="cls-8" points="153.68 195.49 153.82 195.49 154.96 196.01 155.45 197.1 155.2 198.34 155.81 199.47 155.39 200.59 154.72 201.53 153.97 202.31 153.51 203.45 152.47 203.96 151.53 204.61 150.67 205.38 149.71 206 148.68 206.5 147.62 206.94 146.72 207.67 145.74 208.25 144.67 208.65 143.69 209.24 142.73 209.89 141.64 210.24 140.55 210.56 139.48 210.94 138.33 211.08 137.37 211.78 136.35 212.3 135.21 212.47 134.2 213.06 133.07 213.24 131.94 213.35 130.83 213.58 129.7 213.7 128.63 214.12 127.47 214.02 126.35 214.19 125.26 214.54 124.12 214.53 123.02 215 121.88 214.81 120.74 214.59 119.62 214.88 118.49 214.75 117.36 214.69 116.25 214.47 115.12 214.5 113.99 214.47 112.84 214.57 111.75 214.22 110.63 214.05 109.48 214.09 108.41 213.68 107.3 213.45 106.12 213.49 105.06 213.06 103.98 212.68 102.92 212.28 101.98 211.53 100.93 211.12 99.74 211.04 98.89 210.15 97.6 210.25 96.62 209.64 95.71 208.92 94.89 208.06 93.92 207.48 92.86 207.03 91.98 206.31 90.97 205.77 90.11 205.01 89.11 204.43 88.13 203.83 87.19 202.95 87.02 201.61 86.62 200.47 86.2 199.24 86.46 197.97 87.39 197.05 87.9 195.93 88.27 195.51 89.17 194.64 90.44 194.54 91.55 194.16 92.69 194.36 93.79 194.67 94.91 195.08 95.9 195.66 96.7 196.5 97.51 197.37 98.55 197.86 99.45 198.58 100.62 198.83 101.48 199.65 102.65 199.84 103.57 200.57 104.77 200.62 105.81 201.07 106.79 201.66 107.87 202 109 202.14 110.03 202.66 111.05 203.23 112.25 203.01 113.33 203.38 114.37 204.01 115.5 204.09 116.67 203.74 117.75 204.32 118.89 204.34 120.01 204.52 121.15 204.62 122.27 204.01 123.4 204.18 124.52 204.11 125.62 203.76 126.73 203.62 127.83 203.4 129 203.54 130.03 202.96 131.19 202.95 132.26 202.59 133.39 202.45 134.36 201.75 135.57 201.78 136.49 201.02 137.68 200.95 138.73 200.5 139.61 199.71 140.75 199.45 141.52 198.47 142.63 198.14 143.62 197.57 144.63 197.02 145.36 196.07 146.27 195.39 147.34 194.91 148.37 194.33 149.45 193.78 150.67 193.72 151.88 193.88 152.93 194.54 153.68 195.49"/>
      </g>
      <g>
        <polyline class="cls-9" points="150.52 268.88 151.72 268.42 152.91 268.75 154.11 269.06 155.31 268.59 156.51 269 157.71 268.77 158.9 269.04 160.11 268.46 161.3 268.94 162.5 268.76 163.7 269 164.91 268.56 166.1 268.85 167.3 268.42 168.5 268.7 169.7 268.6 170.9 268.71 172.1 268.49 173.3 268.42 174.5 268.85 175.7 268.59 176.89 268.65 178.09 269.04 179.29 268.94 180.49 268.89 181.69 268.91 182.88 268.92 184.08 268.44 185.28 268.97 186.48 268.97 187.67 268.72 188.87 268.84 190.07 269.01 191.26 269.01 192.46 268.84 193.66 268.84 194.85 268.63 196.05 268.66 197.25 269.05 198.44 269 199.64 268.81 200.84 268.87 202.03 268.64 203.23 268.74 204.43 268.94 205.62 268.51 206.82 269.11 208.02 268.78 209.21 268.59 210.41 269.21 211.61 268.6 212.8 268.58 214 268.98 215.19 269.02 216.39 269.06 217.59 269.09 218.78 268.55 219.98 269.03 221.18 268.69 222.37 268.73 223.57 268.68 224.77 268.9 225.97 268.88 227.16 268.87 228.36 268.98 229.56 268.76 230.75 269.11 231.95 268.68 233.15 268.88 234.35 269.15 235.55 269.16 236.74 269.21 237.94 268.66 239.14 269.2 240.34 269.26 241.54 268.77 242.74 269 243.94 269.07 245.14 268.96 246.34 268.91 247.54 269.33 248.74 269.2 249.94 268.79 251.14 269.17 252.34 269.16 253.54 268.68 254.74 269.42 255.94 269.19 257.14 268.76 258.34 268.94 259.54 269.41 260.74 269.16 261.94 269.2 263.13 269.07 264.33 269.12 265.53 269.04 266.73 269.38 267.93 268.92 269.13 269 270.33 268.97 271.52 269.09 272.72 269.28 273.92 269.07 275.12 269 276.31 269 277.51 269.32 278.71 269.2 279.91 268.87 281.11 269.25 282.3 268.84 283.5 269.35 284.7 269.29 285.9 269.28 287.09 269.5 288.29 269.41 289.49 269.26 290.69 269.3 291.89 268.89 293.08 269.41 294.28 268.99 295.48 269.18 296.68 269.46 297.88 268.87 299.08 268.86 300.28 268.93 301.47 269.27 302.67 269.04 303.87 269.13 305.07 269.57 306.27 269.18 307.47 269.47 308.67 269.15 309.87 269.47 311.07 269.51 312.27 269.21 313.47 269.46 314.68 269.43 315.88 269.07 317.08 269.45 318.28 269.33 319.48 269.29 320.68 269.45 321.88 269.12 323.08 269.19 324.27 269.54 325.48 269.18 326.67 268.99 327.87 269.07 329.07 268.95 330.27 269.27 331.47 269.1 332.67 269.44 333.87 269.31 335.07 269.45 336.27 268.96 337.46 269.28 338.66 269.47 339.86 269.21 341.06 269.71 342.26 269.36 343.46 269.43 344.66 269.47 345.85 269.6 347.05 269.47 348.25 269.69 349.45 269.41 350.65 269.24 351.85 269.17 353.05 269.3 354.25 269.3 355.46 269.06 356.65 269.77 357.86 269.67 359.06 269.41 360.26 269.32 361.46 269.78 362.66 269.53 363.86 269.8 365.06 269.39 366.26 269.64 367.46 269.36 368.66 269.34 369.86 269.24 371.06 269.69 372.26 269.14 373.46 269.5 374.66 269.68 375.86 269.71 377.06 269.54 378.26 269.21 379.46 269.18 380.66 269.65 381.86 269.39 383.06 269.24 384.26 269.57 385.46 269.5 386.66 269.56 387.86 269.18 389.06 269.54 390.26 269.36 391.46 269.28 392.66 269.61 393.86 269.7 395.06 269.88 396.26 269.58 397.47 269.37 398.67 269.48 399.87 269.72 401.07 269.19 402.26 269.44 403.46 269.85 404.66 269.84 405.86 269.67 407.06 269.25 408.25 269.83 409.45 269.35 410.65 269.24 411.84 269.72 413.04 269.86 414.23 269.48 415.43 269.56 416.62 269.49 417.82 269.96 419.01 269.61 420.21 269.67 421.41 269.69 422.6 269.89 423.8 269.64 424.99 269.81 426.19 269.65 427.39 269.72 428.58 269.47 429.78 269.81 430.98 269.88 432.18 269.65 433.37 269.41 434.57 269.89 435.77 269.85 436.97 269.86 438.17 269.58 439.37 269.77 440.57 269.43 441.77 269.93 442.98 270.08 444.18 269.94 445.38 269.77 446.58 270.1 447.78 269.94 448.98 269.93 450.19 269.72 451.39 269.46 452.58 269.52 453.78 270.09 454.98 269.39 456.18 270.05 457.38 270.05 458.58 269.53 459.78 270.04 460.97 269.95 462.17 269.6 463.37 269.83 464.57 270.06 465.77 270.11 466.97 270.15 468.17 269.62 469.37 269.46 470.57 269.77 471.77 269.68 472.97 270.14 474.18 269.77 475.38 269.95 476.59 269.65 477.79 270.02 478.99 269.86 480.19 269.57 481.39 270.13 482.59 269.65 483.79 270.07 484.99 269.99 486.2 269.7 487.4 269.85 488.59 270.14 489.8 269.52 491 270.05 492.2 269.64 493.4 269.64 494.6 269.68 495.81 269.97 497.01 270.25 498.22 269.75 499.42 270.22 500.62 269.92 501.82 269.93 503.02 270.25 504.23 270.27 505.43 270.22 506.63 270.24 507.83 270.23 509.04 269.79 510.24 269.85 511.44 270 512.64 270.18 513.85 269.96 515.05 269.9 516.26 270.03 517.46 270.34 518.66 269.8 519.87 269.8 521.07 269.94 522.27 269.95 523.47 270.17 524.68 270.32 525.89 269.67 527.09 270.36 528.29 269.94 529.5 269.9 530.7 269.83 531.9 270.1 533.11 269.79 534.31 270.33 535.51 269.92 536.72 270.06 537.92 270.04 539.12 269.7 540.32 269.83 541.52 269.96 542.72 269.75 543.92 269.72 545.12 269.98 546.33 269.85 547.54 269.78 548.74 269.88 549.94 270.09 551.14 269.73 552.35 270.08 553.55 270 554.76 270.38 555.96 269.96 557.17 270.49 558.37 270.48 559.58 269.85 560.79 269.82 561.99 269.81 563.2 270.18 564.41 269.84 565.61 270.01 566.82 270.22 568.02 270.17 569.23 270.24 570.43 270.51 571.64 269.82 572.85 270.26 574.06 270.17 575.27 270.2 576.48 269.84 577.68 270.38 578.9 270.18 580.11 270.32 581.38 270.29 581.43 268.94 581.92 267.83 582.34 266.69 582.98 265.63 583.77 264.62 584.06 263.44 584.09 262.16 584.95 261.18 585 259.9 585.33 258.73 586.1 257.71 586.56 256.58 587.21 255.52 587.15 254.2 587.48 253.02 588.14 251.96 588.62 250.84 589.32 249.7 587.81 249.45 586.61 249.73 585.42 249.35 584.23 249.33 583.03 249.43 581.84 249.25 580.64 249.81 579.45 249.75 578.25 249.48 577.06 249.49 575.87 249.44 574.67 249.62 573.47 249.81 572.28 249.18 571.08 249.78 569.9 249.6 568.7 249.7 567.51 249.61 566.33 249.34 565.13 249.38 563.94 249.64 562.75 249.29 561.56 249.14 560.37 249.29 559.17 249.42 557.98 249.73 556.78 249.5 555.59 249.67 554.4 249.06 553.21 249.11 552.01 249.71 550.81 249.25 549.62 249.29 548.42 249.64 547.23 249.61 546.04 248.95 544.84 249.42 543.64 249.53 542.45 249.08 541.26 249.39 540.07 249.25 538.87 249.1 537.68 248.99 536.48 249.4 535.29 248.84 534.1 249.33 532.9 249.45 531.7 249.55 530.51 249.26 529.31 249.3 528.12 249.04 526.92 249.15 525.73 248.79 524.53 249.26 523.33 249.06 522.13 249.18 520.93 248.94 519.73 249.14 518.53 249.3 517.33 248.72 516.13 249.09 514.93 248.76 513.73 249.02 512.53 248.7 511.33 249.22 510.13 249.07 508.93 248.63 507.73 248.68 506.53 248.69 505.33 248.75 504.13 248.68 502.93 248.6 501.72 249.18 500.52 249.07 499.32 248.95 498.12 248.86 496.92 249.08 495.72 249.24 494.52 248.88 493.32 248.74 492.12 248.61 490.92 248.96 489.72 249.05 488.52 249.12 487.32 248.5 486.12 248.6 484.92 248.99 483.73 248.42 482.53 248.8 481.33 248.8 480.13 248.57 478.93 248.77 477.74 248.58 476.54 248.85 475.34 248.89 474.15 248.83 472.95 248.59 471.76 248.64 470.56 248.76 469.36 248.3 468.16 248.72 466.97 248.34 465.77 248.43 464.58 248.86 463.38 248.27 462.18 248.33 460.98 248.37 459.79 248.95 458.6 248.38 457.4 248.76 456.2 248.82 455.02 248.42 453.83 248.85 452.63 248.28 451.44 248.36 450.24 248.68 449.05 248.5 447.85 248.81 446.66 248.62 445.46 248.29 444.27 248.72 443.07 248.68 441.88 248.7 440.68 248.61 439.48 248.58 438.29 248.24 437.09 248.9 435.9 248.92 434.7 248.89 433.5 248.76 432.31 248.73 431.11 248.4 429.91 248.31 428.71 248.47 427.52 248.71 426.32 248.36 425.12 248.5 423.92 248.71 422.72 248.76 421.53 248.51 420.33 248.75 419.13 248.79 417.93 248.39 416.74 248.88 415.54 248.85 414.34 248.37 413.15 248.33 411.95 248.72 410.76 248.77 409.56 248.55 408.36 248.78 407.17 248.87 405.97 248.92 404.78 248.4 403.58 248.72 402.38 248.26 401.19 248.67 399.99 248.69 398.8 248.73 397.6 248.26 396.4 248.91 395.21 248.54 394.01 248.41 392.82 248.34 391.62 248.33 390.42 248.22 389.23 248.29 388.03 248.8 386.83 248.89 385.63 248.95 384.44 248.77 383.24 248.67 382.04 248.76 380.84 248.92 379.64 248.63 378.45 248.44 377.25 248.85 376.05 248.61 374.85 248.95 373.65 248.69 372.46 248.94 371.26 248.26 370.06 248.68 368.87 248.54 367.67 248.26 366.47 248.39 365.28 248.77 364.08 248.81 362.88 248.29 361.69 248.8 360.49 248.24 359.29 248.46 358.1 248.54 356.9 248.86 355.7 248.3 354.51 248.77 353.31 248.98 352.11 248.97 350.91 248.58 349.72 248.47 348.52 248.33 347.32 248.35 346.12 248.7 344.92 248.35 343.72 248.82 342.53 248.28 341.33 248.93 340.13 248.97 338.93 248.39 337.74 248.39 336.54 248.95 335.34 248.94 334.15 248.25 332.96 248.7 331.76 248.82 330.57 248.36 329.37 248.56 328.18 248.95 326.99 248.4 325.79 248.4 324.6 248.7 323.41 248.83 322.21 248.48 321.02 248.49 319.83 248.33 318.64 248.92 317.44 248.96 316.25 248.82 315.06 248.45 313.86 248.49 312.67 248.36 311.48 248.92 310.28 248.52 309.09 248.9 307.89 248.8 306.7 248.6 305.5 248.75 304.31 248.28 303.11 248.27 301.91 248.81 300.72 248.27 299.52 248.95 298.32 248.47 297.12 248.86 295.92 248.35 294.72 248.39 293.52 248.53 292.32 248.9 291.13 248.39 289.93 248.55 288.73 248.59 287.53 248.74 286.34 248.27 285.14 248.36 283.95 248.56 282.75 248.3 281.55 248.57 280.36 248.29 279.16 248.63 277.97 248.95 276.77 248.81 275.57 248.31 274.38 248.98 273.18 248.94 271.99 248.66 270.79 248.52 269.59 248.51 268.39 248.81 267.19 248.49 265.99 248.87 264.79 248.91 263.59 248.77 262.39 249.02 261.19 248.95 259.99 248.35 258.79 248.48 257.6 248.72 256.4 248.87 255.2 248.93 254 248.66 252.81 248.33 251.61 249.04 250.41 248.74 249.21 248.39 248.01 248.51 246.82 248.46 245.62 248.66 244.42 248.79 243.22 248.55 242.01 248.46 240.81 248.48 239.61 248.71 238.41 248.49 237.21 248.48 236.02 248.36 234.82 249 233.62 248.42 232.42 248.51 231.22 248.7 230.02 248.95 228.82 248.83 227.62 248.52 226.42 248.91 225.22 248.34 224.02 248.68 222.81 248.97 221.61 248.58 220.41 248.37 219.22 248.99 218.02 248.71 216.81 248.47 215.61 248.59 214.41 248.67 213.21 248.91 212.01 248.95 210.81 248.74 209.61 248.76 208.41 248.74 207.21 248.5 206 248.83 204.8 248.78 203.6 248.32 202.4 248.86 201.21 248.98 200.01 249.03 198.81 248.34 197.61 248.43 196.42 249.06 195.22 248.75 194.02 249.07 192.81 248.68 191.61 248.84 190.41 248.45 189.21 248.72 188.01 248.92 186.81 248.75 185.61 248.76 184.4 248.44 183.2 248.37 182 248.96 180.8 248.87 179.59 248.75 178.39 248.86 177.19 248.39 175.98 248.73 174.78 248.56 173.57 248.47 172.37 248.77 171.17 248.52 169.97 248.82 168.76 248.86 167.56 248.98 166.35 248.79 165.15 248.64 163.94 248.54 162.74 248.97 161.53 248.35 160.32 248.74 159.11 248.48 157.9 248.52 156.7 248.8 155.51 248.54 154.31 248.43 153.11 248.86 151.92 248.38 150.72 248.75 149.52 248.37 148.32 248.42 147.12 249.02 145.92 248.73 144.72 249.09 143.52 249.01 142.32 248.96 141.12 248.37 139.92 248.4 138.71 248.69 137.51 249.03 136.31 248.81 135.1 248.74 133.9 248.8 132.7 248.87 131.5 248.38 130.3 248.58 129.1 248.54 127.9 248.58 126.7 249.11 125.5 248.5 124.3 248.5 123.11 248.98 121.91 249.06 120.71 248.81 119.51 248.51 118.31 249 117.11 248.68 115.91 248.6 114.71 248.51 113.51 249.03 112.31 248.63 111.11 248.48 109.9 249 108.7 248.98 107.5 248.59 106.29 249.02 105.09 248.63 103.89 248.49 102.68 248.44 101.48 248.7 100.28 248.84 99.08 249.11 97.88 248.58 96.68 248.91 95.48 248.97 94.27 248.78 93.07 248.56 91.87 249.05 90.67 248.5 89.47 248.65 88.27 249.04 87.06 248.86 85.86 248.7 84.65 249.07 83.45 248.7 82.25 248.55 81.04 248.85 79.84 248.74 78.64 248.63 77.44 249.04 76.23 248.59 75.03 248.66 73.83 248.44 72.62 248.55 71.42 248.59 70.22 248.62 69.01 248.68 67.81 248.65 66.6 248.48 65.4 249.03 64.2 249.14 62.99 248.63 61.79 249.15 60.59 249 59.38 248.73 58.18 248.77 56.97 248.52 55.77 248.82 54.56 249.09 53.36 248.96 52.16 248.56 50.95 248.49 49.75 248.93 48.54 248.94 47.34 249.05 46.13 249.13 44.93 248.58 43.73 248.63 42.53 248.84 41.33 248.68 40.13 248.69 38.93 248.76 37.72 249.02 36.52 248.68 35.31 249.01 34.11 248.94 32.9 248.5 31.7 248.43 30.5 248.53 29.29 249.14 28.09 249.1 26.88 248.53 25.67 249.15 24.47 248.92 23.26 248.64 22.06 248.47 20.85 249.01 19.64 248.8 18.44 248.78 17.23 248.95 16.02 248.93 14.81 248.81 13.61 248.65 12.4 248.85 11.2 248.89 9.99 248.74 8.78 248.85 7.57 249.04 6.36 248.9 5.15 248.77 3.94 248.72 2.73 248.44 1.52 248.79 .41 248.92 .27 250.01 .56 251.2 .43 252.39 .27 253.59 .24 254.77 .13 255.97 .35 257.16 .05 258.35 .07 259.55 .28 260.74 .15 261.93 .54 263.13 .28 264.33 0 265.52 .27 266.72 .19 268.03 1.5 268.12 2.7 268.29 3.89 268.19 5.09 268.12 6.29 267.89 7.49 268.1 8.69 268.1 9.89 267.85 11.09 268.05 12.29 268.02 13.5 267.68 14.7 267.82 15.9 267.87 17.1 267.92 18.29 268.31 19.49 268.32 20.69 267.92 21.89 268.4 23.09 267.74 24.29 267.84 25.48 268.05 26.68 268.4 27.88 268.39 29.08 268.19 30.27 268.29 31.47 268.14 32.67 268.23 33.87 268.06 35.07 267.88 36.27 267.79 37.46 268.32 38.66 268.25 39.86 267.87 41.06 267.91 42.26 268.43 43.47 268.14 44.67 268.12 45.87 268.02 47.07 268.5 48.27 268.35 49.47 268.51 50.67 268.5 51.87 268.26 53.07 268.1 54.27 268.31 55.47 268.56 56.67 268.4 57.87 268.54 59.07 268.16 60.27 268.47 61.47 268.1 62.67 268.37 63.87 267.91 65.08 267.93 66.28 268.14 67.48 268.1 68.69 267.89 69.89 268.11 71.09 268.42 72.29 267.92 73.49 268.07 74.69 268.53 75.89 268.45 77.09 267.96 78.29 268.45 79.49 268.4 80.69 268.54 81.9 268.65 83.1 268.05 84.31 268.28 85.51 268.3 86.71 268.06 87.91 268.07 89.11 268.03 90.31 268.4 91.52 268.04 92.72 268.33 93.92 268.26 95.13 268.47 96.33 268.11 97.53 268.58 98.73 268.2 99.93 268.62 101.14 268.66 102.34 268.34 103.54 268.66 104.75 268.18 105.95 268.48 107.15 268.54 108.35 268.66 109.55 268.31 110.74 268.32 111.94 268.63 113.14 268.7 114.35 268.5 115.55 268.51 116.76 268.43 117.96 268.6 119.16 268.72 120.36 268.67 121.57 268.43 122.77 268.41 123.97 268.81 125.18 268.76 126.38 268.81 127.59 268.51 128.79 268.58 130 268.95 131.2 268.33 132.41 268.4 133.61 268.49 134.82 268.35 136.03 268.6 137.23 268.6 138.44 268.35 139.64 268.33 140.84 268.47 142.05 268.38 143.26 268.47 144.47 268.51 145.68 268.3 146.88 268.99 148.09 268.37 149.3 268.53 150.52 268.74"/>
        <polygon class="cls-3" points="672.62 .13 671.43 .69 670.23 .68 669.03 .54 667.83 .49 666.63 .32 665.43 .71 664.23 .27 663.04 .59 661.84 .34 660.64 .59 659.44 .37 658.25 .06 657.05 .72 655.85 .5 654.65 .45 653.46 .64 652.26 .68 651.06 .47 649.87 .69 648.67 .6 647.48 .07 646.28 .35 645.08 .3 643.89 .15 642.69 .54 641.5 .45 640.3 .48 639.1 .11 637.91 .17 636.71 .61 635.52 .45 634.32 .02 633.13 .41 631.93 .29 630.74 .17 629.54 .74 628.35 .06 627.15 .13 625.96 .74 624.76 .3 623.56 .43 622.37 .4 621.17 .35 619.98 .07 618.78 .37 617.59 .42 616.39 .55 615.2 .32 614 .57 612.81 .23 611.61 .73 610.41 .74 609.22 .31 608.02 .58 606.83 .72 605.63 .67 604.43 .31 603.24 .12 602.04 .56 600.84 .41 599.65 .62 598.45 .14 597.25 .31 596.06 .56 594.86 .52 593.66 .73 592.46 .72 591.26 .12 590.07 .72 588.87 .22 587.67 .25 586.47 .72 585.27 .33 584.07 .57 582.87 .6 581.67 .4 580.47 .45 579.27 .51 578.08 .25 576.88 .2 575.68 .68 574.48 .06 573.28 .39 572.08 .09 570.89 .34 569.69 .61 568.49 .39 567.29 .2 566.1 .62 564.9 .05 563.7 .41 562.51 .12 561.31 .54 560.11 .24 558.91 .47 557.72 .33 556.52 .33 555.32 .02 554.13 .55 552.93 .25 551.73 .52 550.54 .74 549.34 .3 548.14 .37 546.95 .58 545.75 .6 544.55 .55 543.36 .1 542.16 .47 540.96 .24 539.77 .73 538.57 .43 537.37 .71 536.17 .41 534.98 .38 533.78 .54 532.58 .45 531.38 .56 530.18 .36 528.99 .7 527.79 .51 526.59 .26 525.39 .72 524.19 .39 522.99 .4 521.79 .34 520.59 .54 519.39 .29 518.19 .65 516.99 .24 515.79 .51 514.59 .25 513.4 .3 512.2 .64 511 .74 509.8 .13 508.6 .21 507.4 .28 506.21 .63 505.01 .18 503.81 .36 502.61 .5 501.42 .01 500.22 .52 499.02 .36 497.82 .48 496.62 .15 495.43 .7 494.23 .55 493.03 .45 491.83 .02 490.64 .49 489.44 .55 488.24 .33 487.04 .13 485.84 .61 484.65 .34 483.45 .54 482.25 .71 481.05 0 479.85 .08 478.65 .75 477.45 .13 476.25 .49 475.05 .58 473.85 .28 472.65 .52 471.45 .26 470.25 .56 469.05 .48 467.85 .72 466.65 .66 465.45 .42 464.26 .61 463.06 .47 461.86 .1 460.66 .13 459.46 .55 458.26 .08 457.07 .43 455.87 .23 454.67 .25 453.47 .12 452.27 .26 451.07 .56 449.87 .14 448.68 .5 447.48 .67 446.28 .1 445.08 .14 443.88 .27 442.68 .66 441.48 .26 440.28 .48 439.08 .68 437.88 .3 436.68 .73 435.48 .73 434.28 .65 433.08 .39 431.88 .72 430.69 .1 429.49 .16 428.29 .55 427.1 .63 425.9 .57 424.71 .56 423.51 .43 422.32 .51 421.12 .45 419.93 .05 418.73 .06 417.54 .2 416.34 .6 415.15 .46 413.95 .07 412.76 .42 411.56 .64 410.37 .15 409.17 .2 407.98 .62 406.78 .6 405.59 .59 404.39 .57 403.19 .56 402 .16 400.8 .6 399.6 .29 398.41 .57 397.21 .71 396.01 .5 394.81 .26 393.61 .57 392.41 .61 391.21 .73 390 .08 388.8 .61 387.6 .34 386.4 .05 385.2 .61 384 .55 382.81 .32 381.61 .12 380.41 .45 379.21 .09 378.01 .58 376.82 .69 375.62 .1 374.42 .74 373.22 .06 372.03 .6 370.83 .07 369.63 .2 368.43 .33 367.23 .62 366.04 .41 364.84 .42 363.64 .1 362.44 .09 361.23 .05 360.03 .28 358.83 .38 357.63 0 356.43 .47 355.23 .73 354.03 .03 352.83 .71 351.63 0 350.43 .36 349.23 .5 348.03 .08 346.83 .63 345.63 .04 344.43 .6 343.23 .57 342.03 .67 340.83 .67 339.63 .68 338.42 .3 337.22 .64 336.02 .68 334.82 .71 333.61 .61 332.41 .14 331.21 .55 330.01 .64 328.81 .66 327.61 .22 326.41 .02 325.21 .12 324.01 .27 322.8 .4 321.6 .46 320.4 .59 319.19 .44 317.99 .26 316.79 .39 315.59 .44 314.39 .06 313.19 .06 311.98 .3 310.78 .11 309.58 .1 308.37 .59 307.17 .32 305.97 .54 304.77 .4 303.56 .3 302.36 .09 301.16 .58 299.95 .12 298.75 .59 297.55 .17 296.35 .68 295.15 .62 293.96 0 292.76 .04 291.56 .56 290.35 .06 289.15 .15 287.95 .33 286.74 .37 285.54 .25 284.34 .41 283.14 .6 281.94 .62 280.73 .69 279.53 .46 278.32 .22 277.12 .47 275.91 .47 274.71 .47 273.5 .48 272.3 .4 271.09 .16 269.89 .7 268.68 .48 267.48 .43 266.27 .31 265.07 .16 263.86 .69 262.66 .66 261.45 .05 260.24 .48 259.04 .67 257.83 .63 256.62 .54 255.41 .52 254.2 .43 252.98 .51 251.85 .49 250.9 1.13 249.77 1.56 249.4 2.75 248.41 3.48 248.23 4.66 248 5.85 247.4 6.91 246.8 7.96 246.7 9.2 245.97 10.21 245.87 11.45 245.02 12.41 244.95 13.66 244.7 14.85 243.94 15.84 243.41 16.92 243.39 18.19 242.84 19.26 242.16 20.29 242.06 21.52 241.26 22.51 241.42 23.84 240.8 24.89 240.52 26.06 239.75 27.05 239.74 28.32 238.75 29.24 238.77 30.52 237.91 31.48 237.58 32.63 237.17 33.76 237.06 35 236.31 36 236.09 37.19 236.05 38.46 235.01 39.35 234.95 40.61 234.83 41.84 234.26 42.91 233.78 44.01 232.96 44.99 232.77 46.19 232.68 47.44 231.86 48.41 231.65 49.61 230.89 50.61 230.42 51.71 230.43 52.99 230.12 54.15 229.16 55.07 229.25 56.39 228.77 57.49 228.18 58.54 227.63 59.61 227.23 60.74 227.2 62.01 226.76 63.13 225.92 64.09 225.55 65.23 225.06 66.33 224.9 67.55 224.32 68.61 224.15 69.83 223.43 70.84 223.17 72.02 222.99 73.23 222.41 74.3 222.23 75.51 221.5 76.52 221.01 77.61 220.6 78.74 220.69 80.05 219.83 81 219.71 82.23 219.1 83.28 218.58 84.37 218.57 85.64 217.62 86.56 217.75 87.88 216.7 88.77 216.86 90.1 216.5 91.24 216.05 92.35 215.22 93.31 214.75 94.41 214.55 95.61 214.45 96.85 213.53 97.78 213.07 98.88 213.06 100.15 212.4 101.18 212.24 102.4 211.34 103.34 211.39 104.63 210.63 105.62 210.3 106.77 209.75 107.84 209.49 109.03 208.91 110.09 208.59 111.24 208.19 112.37 207.62 113.44 207.63 114.72 207.27 115.87 206.45 116.84 206.13 118 205.71 119.13 205.46 120.31 204.96 121.41 204.33 122.45 204.03 123.62 203.75 124.8 203.55 126 202.7 126.96 202.57 128.19 202.14 129.31 201.49 130.34 200.94 131.41 201.11 132.76 200.19 133.69 200.27 135 199.76 136.08 198.91 137.05 198.86 138.3 198.43 139.42 197.65 140.41 197.39 141.59 196.95 142.7 196.69 143.89 196.57 145.12 195.66 146.06 195.56 147.31 194.99 148.38 194.57 149.5 194.25 150.66 193.75 151.76 193.41 152.91 192.73 153.94 192.6 155.17 192.19 156.3 191.9 157.47 191.52 158.61 190.74 159.6 190.11 160.64 190.22 161.96 189.82 163.09 189.09 164.1 189.05 165.36 188.62 166.48 187.98 167.53 187.21 168.52 187.02 169.73 186.6 170.86 186.07 171.95 185.72 173.1 185.12 174.15 185.04 175.4 184.52 176.49 184.52 177.77 183.98 178.85 183.41 179.92 183.15 181.1 182.4 182.11 182.11 183.28 181.69 184.41 181.52 185.63 180.81 186.65 180.27 187.73 180.05 188.93 179.61 190.04 179.52 191.29 178.74 192.28 178.15 193.34 177.95 194.55 177.21 195.56 177.02 196.77 177 198.05 176.44 199.12 176.2 200.31 175.68 201.4 174.75 202.33 174.46 203.51 174.09 204.66 173.71 205.79 173.2 206.89 172.8 208.02 172.35 209.13 172.13 210.32 171.92 211.52 170.97 212.45 170.65 213.61 170.46 214.82 170.12 215.99 169.6 217.07 169.17 218.2 168.77 219.33 168.56 220.53 167.82 221.54 167.59 222.74 166.8 223.73 166.54 224.92 166.17 226.06 165.77 227.2 165.26 228.29 165.05 229.5 164.91 230.73 164.15 231.73 163.44 232.76 163.5 234.06 162.59 235.01 162.67 236.32 161.98 237.35 161.78 238.56 160.96 239.54 160.94 240.82 160.51 241.94 159.93 243.02 159.33 244.09 159.3 245.36 159.06 246.56 158.16 247.52 157.73 248.66 157.79 249.94 157.36 251.04 156.45 251.96 156.3 253.16 155.6 254.16 155.6 255.42 154.93 256.43 154.6 257.56 154.12 258.65 153.92 259.83 153.2 260.82 153.29 262.12 152.44 263.07 152.18 264.23 151.67 265.3 151.32 266.44 150.87 267.54 150.43 268.74 151.71 268.59 152.91 268.54 154.11 268.9 155.31 268.65 156.51 268.45 157.71 268.88 158.91 268.61 160.1 268.97 161.31 268.56 162.51 268.39 163.71 268.54 164.9 268.76 166.1 268.93 167.3 268.71 168.5 269.11 169.7 269.04 170.9 268.51 172.1 268.71 173.3 269 174.5 268.76 175.7 268.51 176.89 268.89 178.09 268.46 179.29 268.75 180.49 268.52 181.69 268.83 182.88 268.75 184.08 269.14 185.28 268.49 186.48 268.46 187.67 268.64 188.87 268.88 190.07 268.92 191.26 268.55 192.46 268.8 193.66 268.46 194.85 268.72 196.05 268.68 197.25 268.5 198.45 268.55 199.64 269.01 200.84 268.55 202.03 268.54 203.23 268.9 204.43 268.68 205.62 269.23 206.82 269.13 208.01 269.14 209.21 269.02 210.41 269.19 211.61 268.65 212.8 268.94 214 268.83 215.19 268.81 216.39 269.03 217.59 269.28 218.78 268.63 219.98 269.21 221.18 269.03 222.38 268.66 223.57 269.3 224.77 268.71 225.96 269.27 227.16 269.28 228.36 268.74 229.56 268.86 230.75 269.24 231.95 269.06 233.15 268.78 234.35 268.74 235.55 269.23 236.74 268.94 237.94 269.05 239.14 269.15 240.34 269.21 241.54 268.91 242.74 269 243.94 269.09 245.14 269.36 246.34 268.82 247.54 268.95 248.74 268.79 249.94 268.83 251.14 269.07 252.34 268.99 253.54 269.07 254.74 268.94 255.94 269.3 257.14 269.32 258.34 269.28 259.54 269.16 260.74 269.2 261.93 269.3 263.14 268.76 264.33 269.41 265.53 268.73 266.73 268.79 267.93 269.37 269.13 268.81 270.33 268.92 271.52 269.14 272.72 269.11 273.92 268.95 275.12 269.04 276.31 269.12 277.51 269.23 278.71 268.82 279.91 268.8 281.11 268.88 282.3 268.91 283.5 269.38 284.7 269.14 285.9 268.96 287.09 269.27 288.29 269.49 289.49 269.02 290.69 269.23 291.89 269.13 293.08 269.02 294.28 268.91 295.48 269.09 296.68 269.55 297.88 269.09 299.08 269.56 300.28 269.11 301.48 269 302.67 269.45 303.87 269.17 305.07 268.96 306.27 269.18 307.47 269.58 308.67 269.32 309.87 269.08 311.07 269.44 312.28 268.91 313.47 269.41 314.68 269.54 315.88 269.31 317.08 269.04 318.28 269.12 319.48 269.07 320.68 269.64 321.88 269.59 323.08 269.13 324.27 269.64 325.47 269.36 326.67 269.52 327.87 269.22 329.07 269.36 330.27 269.58 331.47 269.42 332.67 269.14 333.87 269.31 335.07 269.04 336.26 269.25 337.46 269.04 338.66 269.6 339.86 269.46 341.06 269.07 342.26 269.68 343.46 269 344.66 269.64 345.85 269.51 347.06 269.04 348.25 269.64 349.45 269.73 350.65 269.65 351.85 269.27 353.05 269.75 354.25 269.13 355.45 269.77 356.66 269.47 357.86 269.08 359.06 269.59 360.26 269.74 361.46 269.45 362.66 269.18 363.86 269.26 365.06 269.76 366.26 269.11 367.46 269.41 368.66 269.1 369.86 269.58 371.06 269.66 372.26 269.76 373.46 269.73 374.66 269.72 375.86 269.78 377.06 269.67 378.26 269.74 379.46 269.54 380.66 269.51 381.86 269.3 383.05 269.82 384.26 269.3 385.46 269.69 386.65 269.86 387.86 269.59 389.06 269.55 390.26 269.51 391.46 269.83 392.66 269.91 393.86 269.81 395.06 269.25 396.26 269.4 397.46 269.67 398.67 269.6 399.87 269.44 401.07 269.42 402.26 269.91 403.46 269.25 404.66 269.41 405.86 269.67 407.05 269.71 408.25 269.81 409.45 269.56 410.64 269.33 411.84 269.82 413.04 269.58 414.23 269.93 415.43 269.94 416.62 269.81 417.82 269.94 419.01 269.58 420.21 269.39 421.41 269.52 422.6 269.33 423.8 269.65 424.99 269.78 426.19 269.73 427.39 269.3 428.58 269.69 429.78 269.75 430.98 269.84 432.17 269.95 433.37 269.86 434.57 269.33 435.77 269.66 436.97 269.8 438.17 269.35 439.37 269.83 440.57 269.96 441.78 269.7 442.98 269.93 444.18 269.94 445.38 270.06 446.58 269.69 447.79 269.61 448.98 269.8 450.19 269.75 451.38 269.8 452.58 269.67 453.78 269.82 454.98 269.97 456.18 269.42 457.38 269.47 458.58 269.43 459.78 270 460.98 269.67 462.17 270.09 463.37 269.72 464.57 269.7 465.77 269.66 466.97 269.52 468.17 270.12 469.37 270.11 470.57 269.91 471.77 269.52 472.98 269.88 474.18 269.66 475.38 269.54 476.59 269.58 477.79 269.75 478.99 269.55 480.19 269.54 481.39 270.21 482.59 269.55 483.79 269.87 485 269.66 486.19 269.98 487.4 269.85 488.6 269.94 489.8 269.58 491 269.74 492.2 269.73 493.4 270.16 494.6 270.2 495.81 269.68 497.01 270.22 498.21 270.28 499.42 270.1 500.62 269.72 501.82 270.25 503.02 270.17 504.23 269.97 505.43 269.62 506.63 269.9 507.83 269.61 509.03 269.85 510.24 269.99 511.44 270.1 512.64 270.14 513.85 270.3 515.05 269.98 516.26 269.92 517.46 270.3 518.66 269.9 519.87 269.61 521.07 270.31 522.27 269.99 523.47 270.21 524.68 270.26 525.88 270.26 527.09 270.01 528.29 270.06 529.5 269.92 530.7 270.31 531.9 269.88 533.11 270.08 534.31 270.11 535.51 270.17 536.72 270.07 537.92 270.07 539.12 270.04 540.32 269.93 541.52 269.9 542.72 270.38 543.92 270.05 545.12 270.22 546.33 270.21 547.53 270.37 548.74 269.81 549.94 270.02 551.14 270.42 552.35 269.93 553.55 269.77 554.76 270.21 555.96 270.04 557.17 270.08 558.37 270.28 559.58 269.79 560.79 270.09 561.99 270.4 563.2 270.18 564.41 270.22 565.61 270.34 566.82 269.81 568.02 270.5 569.23 270.26 570.43 270.5 571.64 269.92 572.85 270.09 574.06 269.84 575.27 269.82 576.48 270.26 577.69 270.1 578.9 269.85 580.11 270.25 581.42 270.34 581.8 269.08 582.52 268.05 582.42 266.72 583.09 265.67 583.53 264.53 583.62 263.28 584.25 262.22 584.57 261.04 585.5 260.08 585.69 258.86 586.09 257.7 586.75 256.65 587 255.44 587.36 254.27 587.68 253.09 588 251.91 588.72 250.87 589.01 249.67 589.63 248.62 589.68 247.36 590.08 246.23 590.39 245.07 590.82 243.94 591.84 243.04 592.22 241.91 592.46 240.71 592.45 239.43 593.14 238.4 593.51 237.26 594.28 236.27 594.8 235.18 594.78 233.89 595.55 232.9 595.71 231.68 595.92 230.47 596.54 229.42 596.96 228.29 597.49 227.21 597.64 225.98 598.07 224.86 598.85 223.87 598.74 222.54 599.6 221.58 599.69 220.33 600.17 219.23 600.44 218.04 600.85 216.91 601.3 215.8 601.95 214.76 602.22 213.58 602.57 212.43 603.32 211.42 603.41 210.17 603.92 209.08 604.57 208.04 604.82 206.86 605.51 205.83 606.09 204.77 605.97 203.44 606.35 202.3 607.11 201.3 607.77 200.27 607.74 198.97 608.21 197.86 608.46 196.68 608.98 195.59 609.9 194.65 609.77 193.32 610.75 192.4 611.19 191.28 611.55 190.13 611.77 188.93 611.78 187.65 612.21 186.53 612.95 185.52 613.72 184.52 613.72 183.24 613.96 182.05 614.38 180.93 614.83 179.82 615.79 178.89 615.56 177.53 616.64 176.65 616.9 175.47 617.51 174.42 617.37 173.09 617.96 172.03 618.47 170.94 618.79 169.78 618.95 168.56 619.89 167.64 619.88 166.36 620.76 165.41 621.04 164.23 621.44 163.11 621.54 161.86 621.94 160.73 622.29 159.59 623.27 158.68 623.65 157.54 624.18 156.46 624.35 155.24 624.58 154.05 625.32 153.04 625.61 151.87 626.27 150.84 626.15 149.51 627.03 148.56 627.46 147.44 627.34 146.11 627.89 145.03 628.66 144.03 629.17 142.94 629.2 141.66 629.97 140.66 630.05 139.41 630.46 138.28 631.16 137.26 631.47 136.09 631.75 134.92 632.04 133.74 632.54 132.65 633.14 131.59 633.24 130.35 634.22 129.43 634.68 128.32 635.01 127.16 635.28 125.98 635.43 124.76 636.18 123.75 636.32 122.53 636.66 121.37 637.06 120.24 637.59 119.15 638.49 118.21 638.49 116.92 639.07 115.86 639.6 114.77 639.92 113.6 640.45 112.51 640.37 111.2 640.96 110.14 641.4 109.01 641.62 107.81 642.71 106.93 642.58 105.6 643.53 104.67 643.56 103.4 643.72 102.18 644.6 101.22 644.57 99.93 645.13 98.86 645.43 97.69 646.15 96.67 646.76 95.61 647.04 94.43 647.7 93.39 648.13 92.26 648.56 91.14 648.59 89.86 649.21 88.81 649.62 87.68 649.98 86.53 650.49 85.44 651.06 84.36 650.98 83.05 651.81 82.08 651.74 80.76 652.35 79.71 652.81 78.59 653.52 77.57 653.7 76.35 653.96 75.16 654.71 74.15 655.15 73.03 655.3 71.8 655.65 70.65 656.38 69.64 656.84 68.52 657.2 67.37 657.79 66.3 657.88 65.05 658.4 63.95 659.12 62.94 659.26 61.7 659.65 60.57 660.35 59.54 660.19 58.2 661.24 57.3 661.02 55.93 661.83 54.95 662.06 53.75 662.28 52.55 662.9 51.5 663.73 50.53 663.68 49.23 664.1 48.1 664.84 47.09 664.79 45.78 665.58 44.79 665.81 43.59 666.4 42.52 666.86 41.41 666.96 40.16 667.44 39.05 667.99 37.97 668.36 36.81 669.28 35.87 669.55 34.69 669.75 33.47 670.06 32.3 670.45 31.15 670.88 30.02 671.45 28.95 671.61 27.72 672.15 26.63 672.54 25.49 673.48 24.55 673.47 23.26 674.1 22.21 674.65 21.12 674.66 19.83 675.61 18.89 675.66 17.62 675.92 16.42 676.88 15.49 677.06 14.26 677.38 13.08 677.41 11.87 678.11 10.81 678.21 9.61 678.3 8.41 677.8 7.27 677.99 6.03 677.72 4.85 677.1 3.8 676.54 2.75 675.96 1.65 674.8 1.15 673.82 .48 672.62 .13"/>
        <g>
          <polygon class="cls-8" points="454.86 109.84 455.23 111.15 453.71 111.57 452.47 112.31 451.6 113.15 450.63 113.84 449.55 114.42 448.89 115.48 447.99 116.26 447.1 117.06 446.26 117.91 445.81 119.09 444.85 119.84 444.18 120.82 443.6 121.86 442.77 122.74 442.3 123.84 441.7 124.86 441.06 125.86 440.55 126.93 439.72 127.86 439.18 128.94 438.91 130.12 439.04 131.39 438.6 132.5 438.09 133.63 438.22 134.85 438.36 136.03 438.06 137.24 438.11 138.45 438.92 139.49 439.32 140.59 439.27 141.89 440.23 142.61 440.47 143.82 441.64 144.24 442.5 144.99 441.6 146.21 440.95 147.29 440.43 148.48 439.48 149.32 438.81 150.4 437.82 151.2 436.75 151.93 436.11 153.05 435.19 153.9 434.49 154.92 433.64 155.79 432.74 156.62 431.83 157.44 431.05 158.41 430 159.08 429.09 159.89 428.06 160.57 427.28 161.56 426.01 161.9 424.88 162.4 424.21 163.63 422.84 163.68 421.74 164.18 420.87 165.25 419.68 165.6 418.48 165.76 417.3 165.85 416.12 165.82 414.89 166.06 413.88 165.16 412.71 165.03 411.51 164.87 410.43 164.2 409.21 163.89 408.03 163.51 406.79 163.37 405.57 163.23 404.34 163.21 403.12 163.21 401.89 163.28 400.59 163.11 399.44 163.73 398.26 163.88 397.17 164.4 396.02 164.67 394.89 165.07 393.7 165.22 392.56 165.53 391.35 165.54 390.21 166.02 389.02 165.59 387.81 165.96 386.62 165.66 385.78 164.73 384.83 164.01 383.76 163.28 383.45 162.04 382.83 160.98 382.28 159.87 382.03 158.66 381.89 157.44 381.66 156.24 381.26 155.06 381.28 153.83 380.88 152.63 381.07 151.4 380.67 150.24 380.61 149.07 380.83 147.91 381.24 146.78 381.06 145.6 381.2 144.44 381.61 143.33 382.03 142.23 382.18 141.09 381.89 139.84 382.38 138.76 383.05 137.74 383.37 136.62 383.36 135.41 383.7 134.25 383.99 133.07 384.3 131.9 384.93 130.84 385.3 129.69 386.08 128.7 386.11 127.4 386.83 126.4 387.3 125.29 388.08 124.33 388.62 123.26 388.6 121.87 389.83 121.18 389.95 119.84 390.78 118.93 391.68 118.08 391.86 116.72 392.94 116.02 393.86 115.2 394.59 114.25 395.25 113.23 395.75 112.04 397.1 111.67 397.86 110.73 398.48 109.61 399.59 109.05 400.48 108.23 401.62 107.74 402.44 106.8 403.41 106.06 404.64 105.78 405.68 105.18 406.85 104.84 407.94 104.34 408.95 103.59 410.14 103.31 411.38 103.38 412.45 102.58 413.66 102.55 414.87 103.02 416.05 102.78 417.22 102.99 418.35 103.3 419.46 103.68 420.6 103.99 421.79 104.22 422.9 104.66 424.07 105.04 425.09 105.72 426.25 106.08 427.42 106.53 428.58 106.01 429.78 105.96 430.8 105.32 432.04 105.32 433.16 104.94 434.13 104.15 435.27 103.84 436.48 103.78 437.57 103.33 438.77 103.34 439.91 103.21 441.1 103.07 442.28 102.54 443.49 103.07 444.68 103.12 445.94 102.64 447.03 103.43 448.23 103.54 449.47 103.64 450.37 104.56 451.5 104.98 452.21 105.97 453.32 106.57 453.81 107.68 454.71 108.6 454.86 109.84"/>
          <polygon class="cls-8" points="442.29 97.59 440.96 97.74 439.99 98.35 439.12 99.15 438.17 99.82 437.31 100.69 436.22 101.15 434.93 101.08 433.87 101.52 432.86 102.19 431.73 102.53 430.57 102.74 428.88 102.52 428.52 101.81 429.25 100.76 429.5 99.51 430.61 98.72 430.94 97.5 431.97 96.72 432.23 95.37 433.41 94.76 433.85 93.5 434.99 92.89 435.7 91.86 436.75 91.18 437.47 90.12 438.65 89.72 439.7 89.18 440.6 88.41 441.62 87.84 442.66 87.29 443.64 86.62 444.84 86.43 445.96 86.07 446.86 85.11 448.16 85.3 449.18 84.61 450.38 84.57 451.35 83.94 452.52 83.9 452.01 85.08 451.82 86.21 451.63 87.51 450.83 88.5 450.14 89.55 449.05 90.29 448.42 91.37 447.75 92.44 446.55 93.01 445.76 93.97 444.97 94.94 444.08 95.82 443.1 96.59 442.29 97.59"/>
        </g>
      </g>
      <g>
        <polygon class="cls-6" points="519.22 251.49 517.77 251.99 516.32 251.95 514.89 251.72 513.48 251.37 512.06 251.1 510.68 250.72 509.35 250.14 507.9 250.02 506.38 250.04 505.15 249.22 503.93 248.41 502.37 248.35 501.3 247.29 499.93 246.77 499.1 245.46 497.46 245.22 496.44 244.17 495.88 242.69 494.74 241.81 493.72 240.79 492.9 239.6 492.47 238.18 491.29 237.18 491.18 235.62 490.08 234.51 489.97 233 489.16 231.72 489.32 230.18 488.39 228.88 488.45 227.39 487.89 225.97 488.69 224.46 488.02 223.02 488.04 221.55 488.42 220.11 488.74 218.68 489.11 217.27 488.61 215.7 489.1 214.31 489.75 212.96 490.26 211.59 490.03 209.99 490.84 208.72 491.02 207.23 492 206.03 492.1 204.51 492.93 203.29 493.32 201.88 494.34 200.77 494.72 199.34 495.35 198.03 496.32 196.92 497.13 195.72 497.6 194.3 498.71 193.31 499.44 192.06 500.17 190.79 501.34 189.87 502.19 188.7 502.87 187.4 504.34 186.76 504.95 185.37 505.72 184.11 506.98 183.32 508.1 182.4 508.95 181.21 509.79 179.99 511.02 179.2 512.26 178.42 513.24 177.34 514.3 176.36 515.42 175.44 516.88 174.98 518 174.07 518.97 172.96 520.32 172.38 521.43 171.46 522.49 170.44 523.77 169.75 525.07 169.11 526.07 167.96 527.66 167.85 528.78 166.87 529.99 166.08 531.28 165.42 532.58 164.78 534.14 164.73 535.35 163.91 536.8 163.67 538.01 162.77 539.39 162.36 540.78 161.96 542.25 161.85 543.58 161.29 544.98 160.94 546.28 160.14 547.73 160.03 549.2 160.05 550.62 159.82 552.03 159.44 553.49 159.66 554.92 159.49 556.35 159.28 557.79 158.99 559.23 159.17 560.65 159.45 562.14 158.93 563.51 159.69 564.88 160.16 566.39 159.89 567.67 160.71 569.07 161 570.49 161.26 571.99 161.35 573.04 162.55 574.52 162.79 575.6 163.8 576.96 164.31 578.34 164.87 579.47 165.78 580.66 166.64 581.13 168.21 582.51 168.89 583.56 169.91 584.1 171.3 585.24 172.3 585.94 173.61 586.2 175.12 587.14 176.31 587.2 177.85 587.44 179.29 588.12 180.62 588.56 182.03 588.81 183.48 588.47 184.98 589.16 186.41 588.86 187.88 588.32 189.32 588.34 190.77 588.67 192.27 588.6 193.74 588.22 195.17 587.65 196.54 587.16 197.92 587.45 199.51 586.17 200.65 586.28 202.22 585.64 203.55 585.01 204.87 584.83 206.36 584.25 207.69 583.22 208.8 583.08 210.34 582.26 211.55 581.27 212.66 580.91 214.12 579.75 215.1 579.26 216.5 578.14 217.49 577.71 218.95 576.47 219.83 575.82 221.15 574.65 222.06 574.16 223.53 572.65 224.14 571.72 225.23 570.92 226.45 569.8 227.36 568.94 228.54 567.97 229.61 566.97 230.65 565.79 231.49 564.91 232.67 563.7 233.48 562.57 234.38 561.58 235.44 560.63 236.58 559 236.82 558.14 238.09 556.9 238.84 555.68 239.6 554.51 240.46 553.06 240.86 552.14 242.13 550.84 242.78 549.68 243.68 548.12 243.82 547.02 244.84 545.58 245.18 544.42 246.12 543.11 246.74 541.77 247.28 540.22 247.28 538.92 247.91 537.64 248.63 536.2 248.85 534.84 249.32 533.52 249.98 532.06 250.12 530.58 250.09 529.33 251.15 527.9 251.43 526.44 251.48 525.01 251.69 523.56 251.83 522.1 251.58 520.67 251.99 519.22 251.49"/>
        <path class="cls-8" d="M557.79,157.41l-1.44.62-1.45-.2-1.47-.22-1.37.78-1.52-.5-1.39.48h-1.47s-1.32.76-1.32.76l-1.36.51-1.54-.23-1.24.92-1.45.18-1.41.33-1.42.31-1.3.65-1.33.57-1.27.71-1.2.85-1.3.6-1.63-.06-1.16.91-1.25.72-1.26.71-1.16.87-1.19.81-1.54.25-.97,1.16-1.37.55-.89,1.26-1.43.48-1.08.96-1.29.69-.83,1.27-1.53.4-.98,1.09-1.27.75-.79,1.29-1.16.87-1.2.84-.65,1.39-1.29.76-.67,1.35-1.42.67-.56,1.43-1.1.96-1.11.96-.32,1.58-1.2.9-.44,1.46-1.25.88-.54,1.37-.82,1.19-.93,1.12-.4,1.43-.65,1.28-.94,1.13-.99,1.12.07,1.63-.71,1.25-.6,1.31-.94,1.18.02,1.54-.9,1.22-.39,1.39-.18,1.45-.83,1.29.32,1.55-.54,1.37v1.46s-.33,1.41-.33,1.41l.14,1.45-.02,1.43v1.43s.09,1.43.09,1.43l-.03,1.44-.48,1.51.84,1.33-.33,1.54.71,1.32.59,1.32.64,1.29-.04,1.58,1,1.13.26,1.51,1.14,1,.53,1.4,1.22.88,1.22.83.43,1.59,1.51.48.94,1.11.9,1.23,1.43.47,1.37.49.97,1.25,1.61-.05,1.36.44,1.24.77,1.38.39,1.37.42,1.41.28,1.35.64,1.41.4,1.45.14,1.5-.72,1.4.9,1.46-.75,1.44.44,1.46.29,1.45-.11,1.38-.73,1.43-.16,1.51.32,1.34-.73,1.46-.05,1.28-.86,1.41-.28,1.6.38,1.35-.53,1.32-.63,1.38-.43,1.28-.7,1.26-.72,1.46-.23,1.22-.82,1.22-.78,1.45-.3,1.42-.38,1.09-1.03,1.4-.45,1.22-.77,1.18-.84,1.14-.9,1.29-.65,1.42-.47,1.22-.79.91-1.21,1.19-.81,1.21-.79,1.02-1.04.92-1.14,1.3-.68,1.04-1,.96-1.08,1.44-.57.94-1.11.74-1.29,1.11-.93,1.42-.66.36-1.62,1.07-.97.76-1.24,1.41-.71.96-1.09.6-1.36.83-1.18.96-1.09.52-1.38,1.18-.96.28-1.52,1.24-.95.12-1.58,1.08-1.06.4-1.41.68-1.27.84-1.21.73-1.26-.04-1.57.62-1.3.97-1.2.11-1.48.56-1.35-.15-1.52.84-1.3.19-1.44-.19-1.49.02-1.44.56-1.4.34-1.44-.71-1.45.02-1.43.61-1.49-.27-1.44-.2-1.44-.39-1.41-.96-1.24-.43-1.36-.28-1.42-.26-1.46-.71-1.27-.44-1.41-.77-1.24-1.39-.79-.4-1.52-.87-1.18-1.55-.5-.67-1.4-1.46-.49-.91-1.18-1.39-.5-1.18-.82-1.11-1-1.53-.13-1.33-.51-1.3-.6-1.32-.6-1.38-.43-1.38-.43-1.38-.53-1.47.05-1.49.33-1.41-.45-1.44-.33-1.45-.14ZM581.35,203.13v1.56s-.83,1.21-.83,1.21l-.91,1.16-.08,1.58-1.28.95-.48,1.38-.95,1.11-.36,1.47-.63,1.31-1.31.85-.38,1.5-1.06,1.01-.98,1.06-1.04,1.01-.8,1.21-.91,1.12-.84,1.19-.78,1.26-1.01,1.04-1.56.47-.84,1.2-1.03,1.01-1.07.97-.98,1.08-1.06.99-1.5.43-.87,1.24-1.34.62-.87,1.27-1.44.46-1.13.9-1.34.58-.98,1.16-1.58.16-1.16.88-1.39.44-1.09,1.04-1.36.49-1.4.4-1.11,1.06-1.48.18-1.19.92-1.56-.07-1.2.95-1.44.23-1.45.16-1.21,1.07-1.5-.07-1.31.79-1.52-.25-1.37.54-1.44.14-1.46-.06-1.41.48-1.45.12-1.45-.28-1.46-.41-1.51.68-1.46-.27-1.46-.23-1.37-.69-1.55.23-1.31-.83-1.41-.41-1.45-.32-1.14-1.04-1.59-.09-1.13-.99-1.35-.63-1.06-1.04-1.28-.78-1.08-1.03-.98-1.12-.93-1.17-.69-1.32-.11-1.54-1.16-1,.07-1.54-.79-1.21-.54-1.32-.45-1.36.43-1.49-.55-1.35.43-1.42-.45-1.4.42-1.39-.31-1.43-.2-1.45,1.02-1.27-.39-1.51.57-1.32.8-1.24.02-1.46.18-1.43,1.1-1.1-.17-1.58.46-1.38.88-1.19.59-1.32.7-1.26.66-1.29,1.05-1.06.9-1.14.74-1.22.09-1.67,1.5-.72.22-1.62,1.23-.88,1.16-.92.9-1.12.47-1.48.96-1.08,1.37-.7.63-1.38,1.18-.86.64-1.41,1.1-.95,1.59-.4.99-1.04.96-1.09,1.13-.89.99-1.07,1.02-1.05,1.36-.59,1.02-1.05,1.08-.99,1.4-.5,1.38-.52,1.02-1.1,1.38-.49,1.23-.76,1.22-.79,1.21-.81,1.36-.5,1.47-.25,1.33-.54,1.15-.98,1.36-.47,1.39-.4,1.31-.64,1.29-.73,1.48-.1,1.38-.44,1.37-.49,1.53.25,1.39-.41,1.36-.61,1.46-.05,1.49.43,1.38-.92,1.46.1,1.45-.23,1.46.67,1.45.16,1.49-.21,1.46.17,1.42.41,1.51-.02,1.3.84,1.57-.08,1.17,1.07,1.61-.02,1.11,1.08,1.41.51,1.19.88.99,1.11.97,1.1,1.46.61.86,1.21.44,1.49,1.06,1.04.52,1.31,1.06,1.06v1.51s.51,1.3.51,1.3l.76,1.26.43,1.36-.23,1.46-.13,1.42.79,1.37-.06,1.42-.77,1.38v1.4s-.21,1.38-.21,1.38l-.12,1.4.34,1.5-.31,1.39-.58,1.31-.71,1.26-.35,1.36-.75,1.23-.54,1.3Z"/>
        <polygon class="cls-8" points="521.39 182.58 522.79 181.84 524.23 181.77 525.69 182.41 527.12 181.91 528.57 182.21 530 181.77 531.45 182.19 532.88 181.73 534.33 182.09 535.78 182.23 537.22 182.23 538.65 181.86 540.1 182.16 541.54 182.24 542.98 181.66 544.43 182.12 545.86 181.87 547.3 181.44 548.75 182.09 550.19 181.73 551.62 181.41 553.06 181.32 554.52 182 555.95 181.59 557.4 181.29 558.9 181.67 560.49 181.78 561.36 183.15 562.45 184.32 562.01 185.83 561.98 187.28 562.78 188.67 562.98 190.11 562.99 191.56 562.89 193.01 562.67 194.47 562.76 195.92 562.85 197.36 562.66 198.81 563.19 200.24 563.56 201.67 563.05 203.14 563.56 204.57 562.94 206.03 563.52 207.47 563.45 208.92 563.33 210.37 563.7 211.81 563.65 213.26 563.19 214.71 563.12 216.15 563.83 217.6 563.76 219.05 563.47 220.49 563 221.93 563.41 223.39 563.78 224.88 562.68 225.99 561.9 227.06 560.85 227.82 559.94 228.89 558.58 228.98 557.22 228.97 555.91 228.13 556.28 226.44 555.72 225.07 555.28 223.67 555.11 222.18 554.2 220.91 553.6 219.56 553.39 218.09 553.41 216.55 552.93 215.16 552.66 213.7 551.96 212.38 551.42 211.01 550.94 209.63 550.64 208.18 549.9 206.88 549.63 205.43 548.77 204.17 548.74 202.64 547.93 201.35 547.82 199.85 547.13 198.58 545.9 198.09 544.41 198.14 542.89 198.54 541.58 199.64 541.25 201.37 540.73 202.72 540.59 204.2 539.67 205.48 539.17 206.84 538.43 208.1 537.28 208.99 536.04 209.49 534.82 210.46 533.38 210.29 532.07 210.76 530.66 211.08 529.72 212.34 528.13 212.71 526.94 213.63 525.75 214.55 524.72 215.65 524.07 217.16 522.57 217.74 521.36 218.62 520.21 219.57 519.14 220.61 518.35 222.01 516.71 222.21 515.52 223.35 513.86 223.23 513.57 221.74 513.06 220.18 514.4 219.22 515.38 218.19 515.87 216.68 516.99 215.77 518.34 215.07 519.29 213.99 520.37 213.04 521.27 211.91 522.24 210.86 523.29 209.87 524.08 208.64 525.26 207.78 526.1 206.6 526.83 205.32 527.67 204.14 528.83 203.26 530.16 202.54 531.02 201.38 531.79 200.14 532.5 198.84 533.97 198.25 534.54 196.82 536.03 196.24 536.94 195.13 537.7 193.87 538.39 192.56 539.43 191.57 540.5 190.58 540.8 189.17 540.99 187.6 539.39 187.97 537.86 188 536.53 188.78 535.38 189.8 534.07 190.6 532.86 191.52 531.49 192.17 530.2 192.87 528.81 193.24 527.35 193.49 525.86 193.64 524.36 194.25 522.86 193.77 521.35 194.21 519.86 193.39 518.37 194.01 516.86 194.21 515.34 193.7 513.93 192.92 513.28 191.44 513.26 189.9 514.05 188.58 513.93 186.91 514.76 185.6 515.86 184.51 517.32 183.93 518.59 183.19 519.95 182.66 521.39 182.58"/>
      </g>
      <g>
        <polygon class="cls-5" points="291.11 249.32 289.96 249.26 288.92 249.09 287.88 249.35 286.84 249.23 285.8 248.94 284.76 249.1 283.73 249.15 282.69 249 281.65 249.34 280.61 248.94 279.57 249.07 278.54 249.07 277.5 249.29 276.46 249.28 275.42 248.93 274.38 249.01 273.34 249.45 272.3 249.05 271.26 249.47 270.22 249.35 269.18 249.37 268.14 249.17 267.1 249.38 266.05 249.1 265.01 249.19 263.97 248.89 262.93 249.17 261.89 249.32 260.85 249.26 259.81 249.37 258.77 249.03 257.74 249.43 256.7 249.19 255.66 249.14 254.62 249.29 253.58 249.06 252.54 249.38 251.49 249.25 250.45 249.31 249.41 249.4 248.37 248.89 247.32 248.9 246.28 249.15 245.24 249.2 244.2 248.94 243.16 249.29 242.12 249.45 241.08 248.9 240.04 248.96 239 249.18 237.96 249.29 236.91 249.04 235.87 249 234.83 249.2 233.79 249.11 232.74 249.19 231.7 249.19 230.66 249 229.62 249.34 228.58 249.04 227.54 249.17 226.49 249.15 225.45 249.27 224.41 249.09 223.37 249.14 222.32 249.03 221.28 249.2 220.24 249.07 219.2 248.93 218.15 249.35 217.11 249.21 216.07 249.36 215.03 249.46 213.99 249.16 212.95 249.05 211.91 249.12 210.87 248.96 209.83 249.44 208.79 248.84 207.75 248.95 206.7 249.41 205.66 249.02 204.62 249.4 203.58 249.05 202.54 249.39 201.49 248.94 200.45 249.11 199.41 248.94 198.36 249.04 197.32 249.01 196.28 249.28 195.23 249.41 194.19 249.39 193.14 249.42 192.1 249.26 191.05 248.99 190.01 249.47 188.96 249.02 187.92 249.07 186.88 249.44 185.83 248.82 184.79 249.18 183.74 249.38 182.7 249.41 181.65 249.32 180.6 248.94 179.55 248.86 178.51 249.32 177.45 249.25 176.62 249 176.79 248.18 177.16 247.2 177.51 246.21 178.11 245.32 178.5 244.35 178.7 243.31 178.84 242.24 179.4 241.34 179.69 240.32 179.99 239.32 180.33 238.32 180.75 237.36 181.16 236.4 181.25 235.31 182.06 234.5 182.15 233.42 182.5 232.43 183.05 231.52 183.39 230.52 183.38 229.41 184.22 228.6 184.29 227.51 184.73 226.55 185.29 225.64 185.27 224.52 185.64 223.54 186.15 222.61 186.85 221.75 186.74 220.59 187.25 219.66 187.57 218.66 187.99 217.7 188.19 216.66 188.63 215.7 189.36 214.85 189.49 213.78 189.71 212.75 190.5 211.93 190.87 210.95 190.8 209.8 191.24 208.85 191.41 207.79 191.77 206.81 192.39 205.92 192.92 205 193.34 204.05 193.67 203.06 193.66 201.94 194.28 201.05 194.63 200.06 194.81 199 195.6 198.18 195.91 197.17 195.93 196.07 196.52 195.17 196.55 194.06 197.13 193.16 197.6 192.21 197.91 191.21 198.36 190.25 198.34 189.13 198.95 188.23 199.21 187.21 199.74 186.28 200.17 185.32 200.25 184.23 200.57 183.23 201.24 182.36 201.45 181.32 201.67 180.28 202.21 179.36 202.49 178.34 202.95 177.39 203.42 176.44 203.64 175.4 203.78 174.33 204.54 173.48 204.56 172.37 204.84 171.35 205.57 170.54 206.55 170.55 207.59 170.65 208.63 170.21 209.67 170.61 210.71 170.65 211.74 170.57 212.78 170.16 213.82 170.77 214.86 170.72 215.89 170.25 216.93 170.25 217.97 170.75 219.01 170.49 220.05 170.54 221.09 170.59 222.13 170.63 223.16 170.49 224.2 170.69 225.25 170.57 226.29 170.48 227.33 170.67 228.37 170.6 229.41 170.75 230.45 170.71 231.49 170.59 232.53 170.29 233.57 170.39 234.61 170.37 235.65 170.21 236.69 170.33 237.73 170.19 238.77 170.28 239.81 170.47 240.85 170.58 241.89 170.42 242.93 170.28 243.97 170.34 245.01 170.41 246.06 170.4 247.1 170.71 248.14 170.33 249.18 170.24 250.22 170.54 251.27 170.23 252.31 170.25 253.35 170.38 254.39 170.4 255.43 170.48 256.47 170.42 257.51 170.45 258.55 170.65 259.59 170.76 260.64 170.63 261.68 170.43 262.72 170.25 263.76 170.29 264.8 170.31 265.85 170.69 266.89 170.19 267.93 170.38 268.97 170.59 270.01 170.31 271.06 170.41 272.1 170.62 273.14 170.66 274.18 170.63 275.23 170.68 276.27 170.34 277.31 170.33 278.35 170.35 279.4 170.45 280.44 170.75 281.48 170.33 282.52 170.31 283.56 170.58 284.6 170.62 285.63 170.58 286.67 170.15 287.72 170.28 288.76 170.73 289.8 170.59 290.85 170.6 291.89 170.29 292.93 170.6 293.97 170.51 295.01 170.74 296.06 170.63 297.1 170.23 298.15 170.14 299.19 170.6 300.23 170.68 301.28 170.75 302.32 170.21 303.36 170.53 304.41 170.21 305.45 170.38 306.5 170.48 307.55 170.53 308.59 170.2 309.63 170.59 310.68 170.5 311.72 170.6 312.77 170.58 313.81 170.48 314.86 170.71 315.91 170.3 316.95 170.36 318 170.15 319.05 170.62 320.16 170.43 319.7 171.43 319.54 172.49 319.29 173.51 318.86 174.46 318.06 175.28 317.99 176.37 317.56 177.33 317.35 178.37 316.57 179.2 316.38 180.25 316.33 181.35 316 182.34 315.54 183.29 314.86 184.15 314.95 185.3 314.32 186.18 313.63 187.04 313.48 188.11 313.42 189.2 312.59 190.01 312.65 191.15 311.88 191.98 311.55 192.98 311.4 194.04 311.25 195.1 310.75 196.03 310.27 196.97 309.66 197.87 309.4 198.89 309.45 200.02 308.56 200.81 308.19 201.79 308.01 202.84 307.93 203.93 307.25 204.8 306.98 205.81 306.45 206.74 306.31 207.8 305.72 208.7 305.78 209.84 305.09 210.7 305.06 211.81 304.56 212.74 304.19 213.72 303.99 214.76 303.46 215.68 303.32 216.74 302.63 217.6 302.24 218.57 302.01 219.6 301.5 220.54 301.24 221.56 300.89 222.55 300.64 223.57 299.91 224.42 299.97 225.56 299.28 226.42 299.02 227.45 298.84 228.5 298.45 229.47 298.01 230.43 297.32 231.3 296.92 232.27 296.69 233.3 296.53 234.36 295.9 235.25 295.8 236.33 295.22 237.24 295.03 238.28 294.81 239.33 294.12 240.19 293.67 241.14 293.42 242.17 293.28 243.25 292.59 244.11 292.74 245.29 292.14 246.19 291.94 247.24 291.23 248.12 291.11 249.32"/>
        <path class="cls-8" d="M233.76,177.48l.93-.25,1.06.27,1.06-.5,1.06.2,1.06.18,1.06-.37,1.06.46,1.06-.37,1.06.09,1.07.1.93.07.24.9v1.03s-.12,1.03-.12,1.03l-.04,1.03-.22,1.03-.07,1.03.08,1.04.12,1.04-.47,1.01-.12,1.03-.06,1.03.44,1.05-.02,1.03-.14,1.03-.21,1.03.21,1.05-.16,1.03-.34,1.02.12,1.04v1.03s-.19,1.03-.19,1.03l.29,1.05-.45,1.02.08,1.04-.05,1.03.18,1.04-.06,1.03-.39,1.01.04,1.03.4,1.05-.45,1.01.38,1.05-.16,1.03-.03,1.04-.24,1.03.17,1.04-.33,1.02.04,1.04-.35,1.02.24,1.05.1,1.04-.11,1.03.07,1.04-.39,1.02.36,1.05-.29,1.02-.09,1.03.11,1.04-.28,1.03.28,1.05-.17,1.03v1.03s.06,1.04.06,1.04l-.56,1.01-.04,1.03.21,1.05v1.04s-.3,1.03-.3,1.03l.31,1.05.11,1.04-.59,1.01v1.04s.18,1.07.18,1.07l-1.07.12-1.06-.25-1.06-.05-1.06.21-1.06-.1-1.06.08h-1.06s-1.06-.19-1.06-.19l-1.06.34-1.06-.3-1.06.13-1.07-.02-.06-1.01.23-.99v-1s.18-1,.18-1l-.11-1.01.18-1,.2-1-.36-1.03.19-1-.09-1.01-.04-1.01.36-.99.16-1-.02-1.03-1.04-.18-1.02.48-1.02-.59-1.02.11-1.02.46-1.02-.39-1.02.38-1.02-.35-1.02.33-1.02-.44-1.02.17-1.02-.17-1.02.1-1.02-.03-1.02.27-1.02.13-1.02-.02-1.02.02-1.03-.16-1.1-.25-.25,1.2-.97.63-.55.9-.29,1.08-1.1.53-.3,1.08-.43.99-.57.89-.66.83-.91.66-.66.84-.22,1.13-.65.84-.9.68-.4,1.02-.59.87h-1.01s-1.03-.25-1.03-.25l-1.03-.03-1.03.17-1.03.24-1.03-.22-1.03.08-1.03.07-1.03.03-1.03-.06-1.03-.05-1.26.15,1-.85.36-1.02.59-.86.75-.75.57-.87.28-1.08,1.01-.57.34-1.04.66-.81.77-.73.26-1.09.6-.85.72-.77.89-.65.18-1.15.73-.76.55-.89.65-.82.46-.96.66-.81.92-.63.4-1,.47-.94.97-.6.6-.85.22-1.12.66-.81.42-.97.59-.85.81-.7.74-.75.65-.81.57-.87.27-1.08.82-.7.58-.87.44-.97.97-.59.54-.89.3-1.06.79-.72.3-1.06.79-.72.69-.79.55-.89.67-.81.27-1.09.81-.71.51-.92.74-.76.65-.82.35-1.03.56-.89.87-.67.46-.95.47-.95.75-.75.52-.91.69-.8.69-.79.47-.95.4-1,.94-.62.3-1.07.53-.91.94-.62.59-.87.68-.8.24-1.12.93-.63.63-.84.54-.9.26-1.1,1.1-.52.54-.87.55-.78ZM231.42,216.66l-.12-1.26.34-1.04-.43-1.09.27-1.04.25-1.04-.3-1.08.53-1.02-.3-1.08.16-1.04.17-1.05.2-1.04-.27-1.07.02-1.06.15-1.05.06-1.06.25-1.05.1-1.05-.05-1.06-.1-1.07.35-1.25-.91.92-.61.87-.19,1.15-.57.89-.68.82-.74.78-.38,1.02-.69.81-.84.71-.46.97-.55.9-.72.79-.32,1.07-.93.65-.49.95-.6.88-.41,1.01-.61.87-.89.68-.53.92-.23,1.13-.94.65-.25,1.12-.69.61.9-.12,1.08.2,1.08-.21,1.08.28,1.08-.09,1.08.3,1.08-.29,1.08-.14,1.08.06,1.08-.11,1.07.34,1.29.09Z"/>
        <path class="cls-8" d="M275.86,242.11l-1.03.06-1.09-.32-.98-.63-.36-1.13-.3-.91-.51-.87-.25-1,.34-.98.05-.89-.87.34-.85.58-1,.34-.63.96-.97.4-.91.49-.76.76-.97.4-.89.54-.92.47h-1.15s-.91.47-.91.47l-.76.87-1.01.3-1.06-.15-1.04.04-.97-.42h-1.08s-.78-.73-.78-.73l-1-.35-.55-.9-1.02-.53-.33-1.03-.18-1.04-.59-.94.34-1.09-.38-1.03.18-1.04.27-1.01.38-.97v-1.1s.34-.97.34-.97l.51-.89.49-.9.7-.76.63-.79.58-.84.61-.84,1.05-.34.84-.54.84-.53.63-.93.9-.49.97-.33,1.01-.22.88-.58,1.02-.22,1.08-.04.93-.48.97-.37,1.03-.18.88-.65,1.11.05.94-.46.99-.33.91-.56.98-.34,1.09-.03.94-.44.8-.79,1.11-.02.77-.8.97-.34.8-.43.53-.88.16-1.06.63-.88.27-1.04.6-.94v-1.11s.07-1.07.07-1.07l.21-1.04-.04-1.06.33-1.07-.53-1-.05-1.07-.42-.98-.77-.73-.69-.83-1.09-.14-.98-.36h-1.05s-1.09.17-1.09.17l-1.23-.22-1.08.46-.87.81-.88.72-.96.56-.45,1.04-.54.93-1.08.54-.57.92-.42,1.02-.5.96-.79.77-.76.88-.83.86-1.17.2-1.04-.19-.83-.7-.3-1.02-.44-1.03.52-.99.42-.94.76-.72.76-.74.96-.45.86-.61.96-.46.83-.68.99-.41,1-.38.74-.87,1.01-.37.88-.61.92-.56,1.1-.18,1.01-.34.95-.5,1.05-.26.82-.84,1.21.18.97-.44.89-.75,1.11.12,1.04-.33.98.49,1.09-.06.81.78.98.33.71.74.76.65.48.9.66.84.43.98.16,1.05.09,1.06-.19,1.05-.38.99.29,1.11-.67.92-.22,1.01.04,1.1-.91.79-.02,1.1-.18,1.05-.34.99-.44.95-.72.85-.43.96.06,1.14-.43.96-.7.85-.14,1.06-.37.98-.35.99-.6.89-.39.97-.2,1.04-.14,1.07-.57.91-.29,1.01-.3,1.01-.34,1-.42.97-.38.94v1.04s-.7.87-.7.87l.14,1.04v.99s.1,1.02.1,1.02l.76.72,1.01-.17.98.42.86-.53.9-.27.69-.35.41.85-.03,1.03-1.07.48-1.1.23-.66.98-1,.4-.89.58-.95.48-.83.69-.96.47-1.1.19-.9.58ZM279.08,216.09l-1.06.58-.87.52-.89.48h-1.08s-.96.32-.96.32l-.81.66-.86.56-1.04.13-.88.52-1.02.16-.91.43-1.01.18-.79.88-1.03.32-.97.46-.77.78-.94.5-.79.7-.76.73-1.08.49-.59.93-.06,1.19-.43.96-.61.85-.14,1.01-.38.99.34,1.01-.14,1.07.65.85.39,1,1.09.27.78.62.93.44,1.03-.28,1.03.4.94-.53.99-.15.99-.21.99-.24.78-.73.86-.51.9-.44.82-.57.91-.49.4-.99.26-1.02.21-1.04.77-.83.44-.95.39-.97-.08-1.15.35-.99.47-.95.53-.92.13-1.08.48-.95.65-.88.22-1.05.32-1,.51-.93.39-1.15Z"/>
      </g>
      <g>
        <g>
          <g id="IKGrs0">
            <path class="cls-1" d="M375.66,16.76l-1.13,1.41-.1,1.63-.62,1.43-.58,1.45-.7,1.41-.38,1.53-.81,1.37-.2,1.59-.33,1.54-.45,1.5-.69,1.41-.54,1.46-.24,1.57-1.4,1.15-.41,1.52-.23,1.59-.43,1.51-1.1,1.26-.23,1.58-.86,1.35-.04,1.65-.84,1.36-.2,1.6-.52,1.48-.41,1.52-1.09,1.27.13,1.72-.97,1.31-.76,1.39-.58,1.46-.33,1.55-.14,1.62-.5,1.48-1.11,1.26-.23,1.59-.35,1.54-.94,1.32-.46,1.51-.61,1.45-.08,1.65-.98,1.31-.32,1.56-.44,1.51-.95,1.33-.57,1.34-1.44-.26-1.56.39-1.56.28-1.56-.14-1.56-.31-1.56.69-1.56-.31-1.56-.53-1.56.02-1.56.22-1.56.55-1.56-.75-1.56.64-1.56.15-1.56-.62-1.56-.19-1.56.5-1.56-.09-1.56.09-1.56-.6-1.56.46-1.56-.07-1.56-.02-1.56-.26-1.56.33-1.56-.22-1.56.2-1.56-.08-1.56.33-1.56-.43-1.56-.09-1.56.3-1.56.32-1.56-.63-1.56.06h-1.56s-1.56.36-1.56.36l-1.56-.23-1.56.44-1.56-.65-1.56-.19-1.56.19-1.56.23-1.56-.42-1.57.21-1.56.02-1.56.27-1.56.35-1.56-.07-1.56-.74-1.56.91-1.57-.85h-1.56s-1.56.69-1.56.69l-1.56-.66-1.57.12-1.57.46-1.56-.29-1.57-.29-1.57-.06-1.57-.05-1.57.69-1.56.21-1.57-.4-1.56.12-1.56-.58-1.57.48-1.57-.22-1.57.4-1.57-.48-1.57.21-1.57.38-1.58-.72-1.79.51,1.02-1.52.43-1.51.19-1.59.72-1.4.89-1.34-.22-1.75,1.19-1.23.03-1.65.54-1.46.58-1.45.9-1.33.87-1.34-.07-1.69,1.11-1.25.17-1.61.55-1.47.93-1.33.56-1.46.47-1.49.56-1.46.53-1.47v-1.67s.61-1.44.61-1.44l.72-1.4.75-1.39.28-1.57.46-1.5.69-1.42.92-1.33-.12-1.72.54-1.47.71-1.41.55-1.46.81-1.37.72-1.41-.26-1.77,1.38-1.16.03-1.67.49-1.49.46-1.51.87-1.36.16-1.62,1.2-1.24.04-1.67.71-1.41,1.55-.02,1.56-.45,1.56.17,1.56.16,1.56-.28,1.56-.05,1.56.33,1.56-.18,1.56-.09,1.56.13,1.56.26,1.56-.47,1.56.44,1.56-.11,1.56.49,1.56-.55,1.56.68,1.56-.03,1.56-.81,1.56-.04,1.56-.03,1.56.47,1.56-.44,1.56.22,1.56.26,1.56-.06,1.56.09,1.56.34,1.56-.9,1.56.57,1.56-.12,1.56.04,1.56-.47,1.56.69,1.56-.27,1.56.18,1.56-.02,1.56-.58,1.56.09h1.56s1.56.29,1.56.29l1.56.51,1.56-.18,1.56-.55,1.57.6,1.56-.52,1.56-.12,1.56.47,1.56.04,1.56.31,1.56-.67,1.57-.14,1.56.33,1.56.07,1.56.35,1.57-.15,1.57-.38,1.56.47,1.57.02,1.57-.15,1.57.21,1.57-.73,1.56.07,1.57.34,1.56-.03,1.56.04,1.57-.24,1.57-.25,1.57.8,1.57-.8,1.57.23,1.57-.15,1.57.1,1.73.06Z"/>
          </g>
          <path d="M287,39.93l1.53-.05,1.53.1,1.56.07,1.42.64,1.17,1.01,1.32.9.06,1.66.45,1.39.45,1.49-.28,1.51v1.56s-.79,1.37-.79,1.37l-.42,1.47-.13,1.6-.6,1.45-1.12,1.18-.83,1.31-.8,1.32-.5,1.56-1.39.89-.97,1.2-1.23.95-1.01,1.18-1.28.87-1.31.82-1.07,1.16-1.33.79-1.23,1-1.35.82-1.63.12-1.53.26-1.36.97-1.6-.03-1.52.61-1.6-.8-1.57.53-1.48-.62-1.7.22-1.08-1.4-1.73-.3-.69-1.52-.38-1.5-.26-1.45-.8-1.51.72-1.5.33-1.49.43-1.48-.07-1.71,1.39-1.08.12-1.71.9-1.32.94-1.28,1.41-.93.33-1.75,1.07-1.18,1.27-.98.92-1.34,1.51-.68,1.13-1.13,1.58-.48,1.33-.81,1.23-1.01,1.24-1.1,1.65-.17,1.56-.29,1.55-.23,1.41-.91,1.58-.16,1.58-.1ZM282.36,47.97l-1.5.32-1.42.57-1.19.97-1.27.84-1.26.91-.72,1.41-1.48.82-.74,1.38-.49,1.62-.87,1.4-.34,1.62-.8,1.48.09,1.67,1.16,1.02,1.35.43,1.59.46,1.6-.24,1.49-.63,1.1-1.24,1.57-.55,1.1-1.18,1.2-1.1.78-1.42.96-1.31.85-1.39.29-1.63.5-1.46.02-1.56-.2-1.4-.36-1.4-1.44-.71-1.57.3Z"/>
          <polygon points="342.67 25.06 342.38 26.56 341.67 27.95 342.34 29.49 342.21 30.95 341.96 32.39 341.29 33.75 340.24 33.06 338.83 32.62 337.38 32.84 336.54 34.49 336.41 36.32 337.89 36.17 339.33 36.85 340.87 37.03 340.65 38.57 340.97 40.15 339.98 41.6 340.44 43.2 339.86 44.69 339.79 44.34 338.42 44.84 337.11 44.67 335.86 44.25 335.23 44.28 335.18 45.82 334.52 47.3 335.13 48.93 334.09 50.35 334.76 51.99 333.93 53.44 333.58 54.95 333.38 56.48 333.93 58.1 333.03 59.54 333.42 61.15 332.76 62.62 332.94 64.21 332.61 65.72 332.19 67.23 331.88 68.75 332.04 70.34 330.44 70.61 328.86 70.7 327.24 70.04 325.67 70.47 324.04 70.33 322.15 71 322.91 69.42 323.29 67.91 323.43 66.36 323.79 64.85 323.79 63.28 324.1 61.76 324.14 60.2 324.07 58.62 324.28 57.08 324.69 55.57 324.74 54.01 325.31 52.53 325.71 51.02 325.49 49.41 325.77 47.88 326.55 46.42 326.96 44.59 325.16 44.85 323.82 45.71 322.17 45.95 322.46 44.26 323.15 42.81 322.88 41.17 323.76 39.76 323.64 38.01 325.21 37.87 326.68 37.96 327.76 36.87 327.82 35.55 328.96 34.18 328.7 32.57 329.35 31.22 330.16 29.96 330.97 28.73 331.66 27.39 332.91 26.54 333.94 25.47 335.42 25.16 336.75 24.73 338.14 24.65 339.61 24.28 341.04 24.65 342.67 25.06"/>
          <polygon points="273.13 31.03 272.08 32.31 271.37 33.71 270.6 35.07 270.08 36.56 269.57 38.06 268.13 39.07 268.1 40.82 267.16 42.1 266.56 43.55 265.73 44.89 264.7 46.11 264.03 47.53 263.6 49.07 262.47 50.25 261.58 51.55 261.04 53.03 260.46 54.5 260.09 56.08 259.11 57.33 258.58 58.82 257.16 59.84 256.49 61.25 256.46 63.01 255.2 64.13 254.52 65.54 254.19 67.15 253.44 68.52 251.96 69.52 251.77 71.2 251.17 72.67 250.06 73.68 248.54 73.5 247.05 72.77 245.56 72.03 244.05 71.35 242.17 71.15 243.57 69.93 243.78 68.24 244.4 66.78 245.05 65.33 246.13 64.14 246.83 62.73 247.89 61.52 248.52 60.06 249.68 58.91 249.91 57.23 250.89 55.97 251.51 54.51 252.54 53.28 253.06 51.77 253.64 50.28 255.07 49.27 255.39 47.65 256.53 46.47 256.99 44.93 258.11 43.75 258.27 42.04 259.2 40.75 260.46 39.64 261.16 38.23 261.91 36.83 262.6 35.41 263.44 34.07 264.29 32.73 264.39 30.98 265.27 29.65 266.17 28.33 267.03 27.01 268.39 27.43 269.75 28.01 270.68 29.21 271.72 30.21 273.13 31.03"/>
          <polygon points="352.69 75.48 351.41 74.85 349.88 74.47 348.56 73.62 347.27 72.67 345.52 72.9 344.06 72.43 342.5 71.7 342.46 70 342.51 68.48 342.94 66.97 342.62 65.43 342.77 63.91 342.9 62.39 343.4 60.89 342.77 59.34 343.2 57.83 343.49 56.32 343.36 54.79 343.41 53.26 343.77 51.75 343.18 50.2 343.84 48.7 344 47.19 343.85 45.65 343.7 44.12 344.39 42.62 344.06 41.08 344.53 39.57 344.12 37.91 345.49 38.99 347.12 39.13 348.49 39.88 349.99 40.42 351.09 41.59 352.29 42.47 352.72 43.99 352.39 45.57 352.39 47.15 351.91 48.73 352.37 50.32 352.18 51.9 351.97 53.48 351.96 55.07 352.71 56.64 352.11 58.23 352.45 59.81 352.18 61.39 352.6 62.97 352.81 64.54 352.99 66.12 352.52 67.71 352.66 69.29 352.24 70.88 352.97 72.44 352.51 74.03 352.69 75.48"/>
          <polygon points="319.35 39.57 318.88 41.17 318 42.61 318.48 44.34 318.17 45.9 317.68 47.58 315.88 47.74 314.39 48.3 312.9 48.87 311.5 49.67 309.98 50.18 308.53 50.86 307.12 51.65 305.45 51.76 304.04 52.54 302.52 53.05 301.2 54.07 299.4 53.86 297.84 54.96 298.63 53.3 299.33 51.87 299.14 50.17 299.52 48.64 300.19 47.2 300.83 45.76 302.26 45.11 303.94 45.01 305.19 43.71 306.99 43.97 308.23 42.62 309.97 42.7 311.54 42.34 313.07 41.83 314.39 40.63 316.14 40.84 317.51 39.82 319.35 39.57"/>
        </g>
        <polygon points="353.03 40.62 351.47 39.64 350.49 38.24 348.68 37.99 347.31 37.15 345.97 36.28 344.87 35.24 344.95 33.79 345.01 32.28 344.82 30.77 344.96 29.26 344.9 27.74 344.75 26.11 346.39 26.94 347.84 27.38 349.13 28.16 350.67 28.57 351.39 30.13 353.03 30.76 352.62 32.43 352.37 34.06 353.05 35.67 353.14 37.29 352.93 38.91 353.03 40.62"/>
      </g>
      <g>
        <polygon class="cls-2" points="538.11 14.69 539.67 14.85 541 15.22 542.34 14.69 543.68 15.34 545.01 14.62 546.35 15.34 547.68 14.74 549.02 15.33 550.35 15.31 551.68 15.34 553.02 15.03 554.35 14.91 555.69 15.32 557.02 14.7 558.36 15 559.69 15.33 561.03 14.71 562.36 14.81 563.7 15.31 565.04 14.65 566.37 15.41 567.71 15.29 569.05 14.88 570.38 15.06 571.72 15.35 573.06 15.34 574.39 15.11 575.73 15.42 577.06 15.04 578.4 14.77 579.74 14.75 581.07 15.15 582.41 14.76 583.75 15.37 585.09 14.87 586.42 14.99 587.76 15.34 589.1 14.81 590.43 15.15 591.77 14.96 593.11 15.41 594.44 15.44 595.78 14.96 597.12 14.86 598.46 14.97 599.8 15.14 601.13 14.69 602.47 15.29 603.81 14.73 605.15 15.08 606.49 15 607.82 15.38 609.16 15.26 610.49 14.96 611.83 15.05 613.16 15.05 614.49 15.43 615.83 15.44 617.16 15.25 618.5 14.89 619.84 14.87 621.18 15.11 622.52 15.32 623.85 15.4 625.19 15.27 626.53 15.11 627.87 14.89 629.21 15.5 630.55 14.76 631.89 15.14 633.22 15.09 634.56 15.41 635.91 14.74 637.25 15.11 638.59 14.83 639.93 15.32 641.27 15.06 642.61 15.22 643.95 15.34 645.29 15.13 646.63 14.93 647.97 15.3 649.31 14.99 650.65 14.85 652 14.93 653.34 15.52 654.68 15.41 656.03 15.24 657.38 14.96 658.91 15.07 658.28 16.46 658.13 17.82 657.54 19.03 656.7 20.15 656.32 21.44 656.33 22.86 655.29 23.91 655.37 25.36 654.3 26.4 654.32 27.84 653.58 28.99 653.29 30.31 652.81 31.56 652.36 32.82 651.97 34.1 651.38 35.32 651.35 36.73 650.62 37.89 649.98 39.09 649.83 40.45 649.61 41.8 649.15 43.06 647.97 44.06 648 45.49 647.14 46.6 647.25 48.06 646.35 49.17 645.7 50.35 645.84 51.83 645.27 53.04 645 54.36 644.16 55.48 644.05 56.86 643.61 58.12 643.17 59.39 642.49 60.57 642.36 61.95 641.87 63.2 641.08 64.34 640.61 65.59 640.45 66.95 639.89 68.18 639.48 69.46 638.9 70.67 638.09 71.81 638.2 73.27 637.53 74.46 636.86 75.64 636.76 77.03 635.74 78.1 635.76 79.53 635.24 80.77 634.74 82.02 634.15 83.23 633.84 84.54 633.71 85.92 633.29 87.19 632.16 88.22 631.83 89.53 631.64 90.89 630.96 92.07 630.65 93.4 630.07 94.62 629.59 95.88 629.33 97.22 628.74 98.34 627.51 98.43 626.18 98.57 624.84 98.16 623.51 98.41 622.17 98.68 620.84 98.83 619.51 98.89 618.17 98.83 616.84 98.65 615.51 98.26 614.18 98.62 612.85 98.63 611.51 98.25 610.18 98.3 608.85 98.94 607.52 98.67 606.18 98.26 604.85 98.88 603.52 98.26 602.18 98.23 600.84 98.19 599.51 98.63 598.17 98.67 596.84 98.9 595.51 98.81 594.17 98.5 592.84 98.73 591.51 98.27 590.17 98.39 588.84 98.9 587.51 98.55 586.17 98.43 584.84 98.52 583.5 98.22 582.16 98.64 580.83 98.43 579.49 98.49 578.16 98.72 576.82 98.71 575.49 98.33 574.16 99.01 572.82 98.4 571.49 98.89 570.15 98.88 568.81 98.62 567.47 98.24 566.14 98.66 564.81 98.71 563.47 98.35 562.13 98.38 560.8 98.44 559.46 98.84 558.13 98.97 556.79 98.42 555.46 98.33 554.13 99 552.8 98.83 551.47 98.84 550.14 98.94 548.8 98.66 547.47 99.07 546.13 98.73 544.79 98.81 543.46 98.4 542.12 98.54 540.79 98.35 539.45 99.11 538.11 98.56 536.78 98.36 535.44 98.46 534.1 98.63 532.77 98.93 531.43 98.52 530.09 98.41 528.75 98.74 527.41 98.45 526.07 99.02 524.74 98.83 523.4 98.89 522.06 98.48 520.72 98.71 519.38 98.6 518.05 99.08 516.7 98.55 515.36 98.48 514.02 98.6 512.68 98.88 511.34 99.11 510 98.66 508.65 98.47 507.38 98.77 508.05 97.68 508.03 96.25 508.56 95.03 509.1 93.81 509.75 92.63 510.23 91.39 510.67 90.13 510.62 88.7 511.12 87.46 511.81 86.29 512.7 85.2 513.06 83.91 513.62 82.7 513.61 81.27 514.02 80 514.81 78.88 515.38 77.67 515.48 76.28 515.81 74.98 516.86 73.95 517.32 72.69 517.43 71.31 517.76 70.01 518.73 68.95 518.86 67.58 519.52 66.41 519.87 65.12 519.97 63.73 521.08 62.72 520.92 61.24 521.34 59.98 522.38 58.95 522.43 57.55 523.18 56.41 523.27 55.02 524.13 53.92 524.2 52.53 525.01 51.4 525.61 50.2 526.1 48.96 526.26 47.6 527.01 46.45 527.56 45.24 527.54 43.81 528.42 42.71 528.69 41.38 528.8 40 529.85 38.97 530.02 37.6 530.23 36.26 530.63 34.98 531.71 33.96 531.84 32.58 532.06 31.24 532.72 30.06 532.89 28.7 533.84 27.63 533.89 26.22 534.84 25.15 535.43 23.94 535.29 22.46 535.66 21.17 536.21 19.94 536.84 18.75 537.56 17.58 538.03 16.3 538.11 14.69"/>
        <polygon class="cls-8" points="655.27 14.98 655.03 15.13 653.74 15.47 652.54 16.18 651.26 16.67 650.16 17.62 648.64 17.49 647.64 18.69 646.35 19.14 644.9 19.2 643.58 19.6 642.26 19.99 641.11 20.82 639.78 21.17 638.55 21.8 637.16 22 635.8 22.28 634.74 23.39 633.34 23.56 632.18 24.24 631.48 25.32 630.61 26.37 629.78 27.45 628.72 28.36 627.9 29.44 627.39 30.75 626.63 31.87 625.79 32.93 625.28 34.23 623.85 34.87 623.2 36.07 622.59 37.3 622.03 38.56 620.75 39.3 619.87 40.34 619.56 41.8 618.28 42.49 617.56 43.66 616.31 44.27 615.55 45.44 614.19 45.93 613.39 47.06 612.43 48.02 611.09 48.51 610.46 49.84 609.11 50.32 608.43 51.6 607.38 52.43 606.42 53.37 605.37 54.2 604.25 54.96 603.18 55.77 602.23 56.73 601.2 57.53 602.12 58.81 603.08 59.64 604.49 59.68 605.51 60.41 606.57 61.1 605.98 62.17 604.76 62.95 604.39 64.38 603.2 65.19 602.26 66.2 602.05 67.67 601.15 68.78 601.46 70.2 600.74 71.49 601.2 72.87 600.5 74.14 600.75 75.59 599.67 76.58 599.18 77.86 598.6 79.09 597.77 80.17 597.18 81.41 596.17 82.39 595.61 83.64 595.62 84.89 596.47 85.49 597.81 85.48 599.05 86.05 600.34 86.32 601.71 86.09 602.94 86.8 604.33 86.32 605.59 86.93 606.86 87.34 608.21 87.3 609.58 87.13 610.87 87.45 612.16 88.02 612.28 89.32 612.26 90.59 612.73 91.82 612.83 93.09 612.81 94.36 612.83 95.62 612.92 96.88 613.38 98.14 612.81 98.35 611.1 98.51 610.75 98.18 609.46 98.08 608.16 98.84 606.87 98.79 605.57 98.69 604.27 98.55 602.97 98.6 601.66 98.69 600.37 98.28 599.07 98.7 597.77 98.71 596.47 98.2 595.16 98.87 593.86 98.05 592.56 98.56 591.24 98.12 589.94 98.7 588.87 98.19 588.34 97.2 588.22 95.89 588.1 94.58 588.03 93.27 587.34 92.07 586.77 90.85 586.67 89.54 586.9 88.04 585.42 87.8 584.01 87.95 582.68 87.76 581.41 87.13 580.04 87.12 578.68 87.08 577.38 86.54 576.02 86.47 574.67 86.32 573.33 86.08 572.04 85.54 570.69 85.37 569.25 85.79 568.07 85.05 568.36 83.88 569.35 82.83 569.87 81.51 570.56 80.27 571.38 79.12 571.88 77.78 573.11 76.86 573.78 75.58 573.45 74.16 573.59 72.93 573.77 71.65 573.86 70.37 574.06 69.09 574.35 67.82 575.18 66.75 576.26 65.91 576.55 64.43 577.96 63.87 578.61 62.67 578.87 61.32 578.44 60.46 577.35 59.73 576.12 59.25 574.89 58.77 573.61 58.17 573.98 57.53 574.6 56.24 575.59 55.27 576.88 54.69 577.78 53.62 579.06 53.01 580.21 52.24 580.93 50.94 582.22 50.36 583.52 49.79 584.53 48.87 585.64 48.06 586.65 47.14 587.66 46.21 588.62 45.21 589.83 44.52 590.79 43.52 591.86 42.65 592.83 41.73 593.58 40.65 594.44 39.66 595.23 38.61 596.01 37.55 596.83 36.53 597.32 35.25 598.51 34.51 599.37 33.52 599.59 32.03 600.56 31.14 601.58 30.28 602.34 29.22 603.15 28.19 604.12 27.29 604.59 26 605.72 25.21 606.05 23.65 607.42 23.2 608.73 22.99 610.16 23.18 611.2 22.09 612.45 21.68 613.79 21.57 615.08 21.29 616.33 20.9 617.58 20.51 618.78 19.95 620.07 19.65 621.38 19.44 622.53 18.73 623.95 18.91 625.16 18.41 626.3 17.7 627.59 17.43 628.76 16.8 630.11 16.74 631.35 16.28 632.48 15.51 633.72 15.08 635.09 15.06 636.44 15.12 637.79 15.09 639.14 14.66 640.49 15.12 641.84 15.07 643.18 15.25 644.52 15.1 645.87 15.23 647.21 15.35 648.56 15.03 649.9 15.04 651.24 14.78 652.58 14.63 653.91 15.05 655.27 14.98"/>
        <polygon class="cls-8" points="608.53 15.32 607.36 15.78 605.95 15.65 604.72 16.11 603.52 16.7 602.18 16.79 601 17.45 599.65 17.52 598.5 18.25 597.34 18.96 596.04 19.19 594.63 19.02 593.59 20.12 592.32 20.44 590.97 20.52 589.68 20.76 588.42 21.12 587.27 21.82 585.91 21.86 584.78 22.65 583.54 23.08 582.25 23.32 581.08 23.98 579.89 24.26 578.59 24.81 577.88 25.95 577.26 27.17 576.56 28.32 575.79 29.41 574.71 30.27 573.6 31.1 573.4 32.63 572.33 33.48 571.2 34.29 570.49 35.43 569.64 36.45 569 37.64 568.32 38.79 567.29 39.69 566.4 40.69 565.61 41.77 565 42.99 563.81 43.65 562.78 44.48 561.66 45.22 561.09 46.62 559.66 46.97 558.7 47.89 557.82 48.9 556.98 49.97 555.88 50.72 554.65 51.31 553.94 52.5 552.52 52.88 551.77 54.03 550.98 55.15 549.7 55.7 548.54 56.4 548.1 57.51 548.85 58.23 549.78 59.16 550.92 59.73 552.05 60.35 553.36 60.93 552.81 62.43 551.82 63.44 550.96 64.52 550.04 65.56 548.97 66.49 548.6 67.85 548.24 69.05 547.6 70.29 548.17 71.6 548.28 72.9 548.27 74.22 547.25 75.28 546.74 76.51 546.62 78.06 545.58 79.05 545.14 80.41 544.09 81.39 543.62 82.74 542.64 83.86 542.5 85.31 543.8 85.5 545.13 85.91 546.5 86.07 547.84 86.59 549.2 86.82 550.65 86.32 552.02 86.59 553.39 86.88 554.78 86.95 556.08 87.67 557.51 87.54 558.81 88.03 559.94 88.62 560.73 89.52 560.68 90.82 561.17 92.04 561.33 93.31 561.58 94.57 561.51 95.86 561.56 97.14 561.94 98.18 560.55 98.79 558.9 98.42 557.59 98.94 556.23 98.71 554.9 98.8 553.57 99.14 552.23 98.86 550.89 98.73 549.54 99.21 548.2 98.65 546.85 99.04 545.51 98.59 544.16 98.61 542.8 99.26 541.47 98.9 540.12 99.26 538.79 99.16 537.45 99.09 536.43 98.57 536.58 97.51 536.22 96.17 535.7 94.9 535.73 93.56 535.57 92.24 535.31 90.94 535.1 89.62 535.54 88.02 533.89 87.87 532.52 87.57 531.14 87.35 529.66 87.67 528.42 86.74 527.05 86.48 525.58 86.73 524.2 86.53 522.9 85.97 521.61 85.34 520.07 85.55 520.68 84.14 521.31 83.05 521.97 81.96 522.03 80.58 523.01 79.65 523.74 78.6 523.78 77.2 524.35 76.08 525.22 75.07 525.03 73.77 525.6 72.6 525.85 71.39 526.03 70.19 525.98 68.95 526.21 67.72 526.54 66.44 527.72 65.68 528.15 64.43 528.82 63.35 529.7 62.42 530.55 61.36 529.16 60.53 528.39 59.16 527.21 58.35 526.42 56.97 527.5 56.13 528.53 55.31 529.14 54.08 530.35 53.43 531.38 52.61 532.06 51.45 533.07 50.61 534.08 49.78 534.69 48.55 535.97 48 536.85 47.04 537.96 46.33 538.82 45.34 539.75 44.42 540.68 43.51 541.6 42.56 542.39 41.47 543.29 40.49 543.55 39.05 544.21 37.89 545.43 37.12 545.72 35.71 546.63 34.71 547.64 33.8 548.38 32.7 549.37 31.79 549.88 30.53 550.41 29.29 551.31 28.31 552.46 27.51 553.31 26.49 553.72 25.14 554.54 24.03 555.77 23.42 556.97 22.87 558.42 22.99 559.64 22.5 560.81 21.85 562.12 21.6 563.37 21.19 564.6 20.71 565.78 20.04 567.15 20.02 568.3 19.28 569.59 18.98 571 19.07 572.28 18.77 573.52 18.28 574.59 17.26 575.87 16.93 577.32 17.16 578.39 16.12 579.73 15.98 581.09 15.88 582.36 15.68 583.62 15.08 584.94 15.32 586.25 15.34 587.57 15.15 588.88 15.17 590.2 15.31 591.51 15.49 592.83 15.27 594.15 15.22 595.46 15.38 596.77 15.27 598.08 15.06 599.4 15.21 600.71 15.36 602.02 15.41 603.33 15.72 604.64 15.34 605.95 15.14 607.27 15.36 608.53 15.32"/>
      </g>
      <polygon class="cls-7" points="95.62 30.89 95.23 29.76 94.64 28.76 94.58 27.69 95.02 26.65 96.21 26.26 97.36 25.93 98.12 25.03 99.04 24.51 100.25 24.3 100.78 23.33 101.6 22.68 102.57 22.1 103 21.16 103.85 20.44 104.14 19.46 104.26 18.45 105.02 17.62 104.99 16.6 104.97 15.61 105.07 14.64 105.13 13.67 105.58 12.64 104.79 11.75 104.5 10.81 104.27 9.85 103.99 8.88 103.22 8.13 102.58 7.34 102.17 6.37 101.5 5.56 100.53 4.99 99.9 4.1 98.94 3.54 98.05 2.89 96.92 2.6 96.05 1.89 95 1.49 93.78 1.49 92.8 .9 91.6 1.05 90.49 .93 89.42 .37 88.27 .86 87.16 .82 85.99 .61 84.87 .83 83.82 1.23 82.72 1.5 81.84 2.18 80.83 2.62 80 3.29 79.28 4.05 78.25 4.55 77.55 5.34 76.84 6.13 76.14 6.94 76.58 7.31 75.82 8.06 75.2 8.91 74.91 9.87 75.3 10.92 74.54 11.83 74.47 12.82 75.12 13.77 74.99 14.76 75.51 15.65 75.8 16.57 76.13 17.48 76.7 18.3 76.77 19.38 77.59 20.07 78.49 20.82 78.71 21.91 79 22.98 78.24 23.86 77.32 24.57 76.03 24.66 75.12 25.39 74.05 25.74 73.4 26.62 72.37 27.07 71.51 27.72 70.72 28.44 70.05 29.25 70 30.36 69.04 31.05 68.68 32 68.77 33.04 68.44 33.98 68.51 34.96 68.29 35.93 68.55 36.89 68.58 37.86 68.34 38.9 68.64 39.86 69.14 40.76 69.69 41.62 70.35 42.41 70.7 43.37 71.17 44.29 72.15 44.86 72.65 45.79 73.66 46.33 74.64 46.87 75.57 47.43 76.39 48.13 77.41 48.56 78.41 49.02 79.48 49.36 80.48 49.93 81.68 49.79 82.76 50.32 83.92 49.93 85.06 49.98 86.24 50.17 87.25 49.5 88.32 49.21 89.47 49.08 90.61 48.83 91.32 47.92 92.25 47.37 93.2 46.83 94.04 46.17 94.91 45.5 95.28 44.51 96.23 43.85 96.47 42.84 97.11 41.99 97.22 40.97 97.67 40.03 98.12 39.07 97.58 38.02 97.78 37.03 97.75 36.1 97.39 35.22 97.1 34.34 96.96 33.41 96.38 32.62 96 31.76 95.62 30.89"/>
      <polygon class="cls-7" points="109.14 54.56 109.33 54.6 110.13 55.14 110.53 56.06 111.28 56.67 112.18 57.09 113.2 57.28 113.95 57.88 114.75 58.45 115.66 58.83 116.61 59.12 117.66 58.98 118.61 59.17 119.57 59.4 120.54 59.7 121.54 59.55 122.51 59.33 123.49 59.29 124.48 59.27 125.4 59.04 126.25 58.64 127.1 58.3 128.05 58.11 128.84 57.63 129.56 57.03 130.63 57.02 131.34 56.39 132.29 56.26 133.15 55.73 134.1 55.43 134.82 54.71 135.71 54.3 136.72 54.07 137.38 53.27 138.37 53.01 139.16 52.54 140.1 52.32 140.98 52.73 141.98 52.85 142.43 53.68 142.37 54.54 142.44 55.46 141.92 56.29 141.01 56.82 140.63 57.73 139.9 58.38 138.96 58.79 138.33 59.53 137.4 59.91 136.64 60.52 135.69 60.84 134.81 61.27 133.92 61.69 132.91 61.81 131.97 62.1 131.09 62.6 130.09 62.68 129.16 63.01 128.22 63.29 127.25 63.44 126.28 63.62 125.39 64.05 124.48 64.38 123.57 64.73 122.59 64.98 121.93 65.65 121.02 65.97 120.23 66.46 119.62 67.16 119.05 67.87 118.38 68.47 117.54 68.98 117.19 69.88 116.72 70.66 115.84 71.23 115.61 72.14 115.47 73.05 114.8 73.79 114.61 74.68 114.43 75.57 114.69 76.5 114.14 77.38 114.37 78.28 114.54 79.17 114.95 80.01 115 80.92 115.21 81.8 115.82 82.54 116.22 83.34 116.48 84.24 116.85 85.11 117.51 85.79 118.08 86.54 119.11 86.87 119.77 87.52 120.44 88.19 121.19 88.79 122.21 88.96 122.92 89.66 123.93 89.76 124.7 90.42 125.76 90.33 126.66 90.68 127.63 90.79 128.6 90.92 129.56 90.68 130.57 90.81 131.46 90.29 132.43 90.19 133.41 90.1 134.38 90.01 135.24 89.46 136.18 89.39 137.09 89.15 138.07 89.47 138.99 89.3 139.92 89.23 140.79 88.74 141.72 88.7 142.62 88.52 143.55 88.42 144.36 87.97 145.27 87.79 146.04 87.25 146.97 87 147.94 86.76 148.64 86.13 149.51 85.72 150.24 85.16 150.88 84.45 151.85 84.22 152.48 83.44 153.53 83.38 154.24 82.67 155.3 82.68 156.19 82.36 156.99 81.78 158.03 81.78 158.9 81.37 159.81 81.05 160.55 80.4 161.45 80.05 162.13 79.39 163.02 78.97 163.41 78.11 163.91 77.37 164.59 76.75 165.07 76 165.4 75.17 165.79 74.37 166.56 73.7 166.81 72.85 166.84 71.92 166.98 71.04 167.7 70.27 167.88 69.35 167.94 68.42 167.78 67.48 167.97 66.57 167.74 65.66 167.76 64.75 167.6 63.85 167.63 62.91 167.21 62.07 167.06 61.14 166.82 60.33 166.12 59.71 166.2 58.8 165.94 58.03 165.46 57.26 165.72 56.43 166.08 55.55 166.28 54.58 166.9 53.8 167.52 53.04 167.97 52.16 168.92 51.65 169.23 50.77 169.66 49.95 169.96 49.09 170.49 48.3 170.33 47.32 170.78 46.49 170.68 45.57 171 44.7 171 43.8 171.25 42.88 171.15 41.97 170.57 41.14 170.63 40.21 170.25 39.36 170.15 38.45 169.44 37.73 169.49 36.72 169.09 35.89 168.25 35.29 167.59 34.62 167.06 33.88 166.48 33.17 165.94 32.4 165.14 31.88 164.37 31.34 163.53 30.9 162.75 30.38 162.12 29.57 161.12 29.4 160.16 29.2 159.28 28.81 158.39 28.39 157.45 28.27 156.5 28.22 155.56 28.2 154.63 27.85 153.67 27.86 152.76 28.34 151.79 28.18 150.88 28.42 150.01 28.78 148.99 28.71 148.25 29.35 147.38 29.68 146.4 29.91 145.5 30.27 144.84 31.06 143.87 31.18 142.94 31.17 142.05 31.13 141.1 31.11 140.14 30.97 139.47 30.28 138.75 29.72 137.76 29.57 136.84 29.24 135.97 28.78 135.03 28.5 134.13 28.02 133.08 28.17 132.12 27.86 131.12 27.89 130.13 27.93 129.09 27.55 128.18 28.11 127.17 27.92 126.24 28.24 125.29 28.4 124.31 28.49 123.37 28.72 122.42 28.96 121.63 29.53 120.87 30.09 119.98 30.44 119.26 31.02 118.4 31.46 117.77 32.15 116.77 32.45 116.32 33.34 115.62 33.99 114.56 34.18 113.68 34.62 113.14 35.46 112.22 35.86 111.78 36.76 110.7 37.04 110.27 37.91 109.86 38.76 109.15 39.4 108.65 40.17 108.2 40.96 107.64 41.71 107.07 42.47 106.72 43.33 106.47 44.22 106.52 45.15 106.08 46.02 106.25 46.95 106.29 47.86 106.47 48.75 106.61 49.65 106.87 50.53 107.14 51.41 107.61 52.22 108.33 52.89 108.93 53.6 109.14 54.56"/>
      <polygon class="cls-7" points="98.84 87.11 99.12 86.13 99.96 85.34 99.77 84.27 99.99 83.31 100.25 82.33 100.3 81.32 99.98 80.35 99.69 79.38 99.37 78.4 98.88 77.48 97.92 76.84 97.41 75.91 96.66 75.12 95.38 74.97 94.62 74.17 93.54 73.87 92.55 73.25 91.41 73.06 90.23 73.55 89.08 73.05 88.02 73.67 86.81 73.46 85.76 73.9 84.89 74.62 83.62 74.63 82.59 75.1 82.11 76.19 81.26 76.82 80.46 77.5 79.79 78.3 78.87 79 78.44 79.96 78.22 80.97 78.41 82.04 78.16 83.05 77.88 84.04 77.37 84.97 76.88 85.91 76.6 86.9 76.52 87.93 76.44 88.95 76.05 89.93 76.33 90.96 76.32 91.95 76.36 92.95 76.54 93.93 76.86 94.89 77.05 95.96 77.77 96.78 78.8 97.36 79.16 98.43 79.94 99.19 81 99.71 81.5 100.7 82.7 101.11 83.48 101.86 84.08 102.79 85.09 103.34 86.19 103.74 87.1 104.43 88.31 104.48 89.35 105.2 90.58 104.7 91.69 105.32 92.74 104.77 93.9 104.82 94.87 104.31 95.99 104.06 96.91 103.47 97.66 102.72 98.35 101.95 98.87 101.08 99.23 100.17 99.51 99.26 100.19 98.39 100.04 97.4 99.67 96.47 99.93 95.43 99.35 94.56 98.76 93.73 98.64 92.72 97.87 91.94 97.97 90.9 97.92 89.96 98.04 89.02 98.48 88.17 98.91 87.3 98.84 87.11"/>
      <polygon class="cls-7" points="120.26 100.77 119.45 100.05 118.51 99.36 117.29 99.51 116.16 99.55 115.03 99.72 113.84 100 112.92 100.72 112.67 101.81 112.44 102.76 112.35 103.72 112.27 104.78 112.9 105.68 113.81 106.34 114.67 107.02 115.76 107.41 116.93 107.37 118.02 107.22 119.11 107.05 120.35 106.93 121.11 106.11 121.5 105.15 122.29 104.34 122.36 103.28 121.77 102.36 121.19 101.52 120.53 100.82 120.26 100.77"/>
      <polygon class="cls-7" points="146.96 12.51 146.15 11.79 145.21 11.1 143.99 11.25 142.86 11.29 141.73 11.45 140.55 11.73 139.62 12.45 139.37 13.55 139.14 14.5 139.05 15.45 138.98 16.52 139.6 17.42 140.51 18.08 141.37 18.76 142.46 19.15 143.63 19.1 144.72 18.96 145.81 18.79 147.05 18.67 147.81 17.85 148.2 16.89 148.99 16.08 149.06 15.02 148.47 14.1 147.89 13.25 147.23 12.56 146.96 12.51"/>
    </g>
  </g>
</svg>