<?xml version="1.0" encoding="UTF-8"?>
<svg id="Layer_2" data-name="Layer 2" xmlns="http://www.w3.org/2000/svg" viewBox="0 0 150.2 127.06">
  <defs>
    <style>
      .cls-1 {
        fill: #2b2b2b;
      }

      .cls-2 {
        fill: #5b5b5b;
      }

      .cls-3 {
        fill: #919191;
      }
    </style>
  </defs>
  <g id="Layer_1-2" data-name="Layer 1">
    <g>
      <path class="cls-1" d="M.57,38.14l-.57-7.54c.38.08.71.12,1,.14.29.02.52.03.71.03.99,0,1.8-.21,2.43-.63.63-.42,1.08-1.1,1.37-2.06.29-.95.43-2.19.43-3.71V0h8.28v24.55c0,3.05-.42,5.59-1.26,7.62-.84,2.04-2.12,3.56-3.85,4.57-1.73,1.01-3.93,1.51-6.59,1.51-.38,0-.7,0-.97-.03-.27-.02-.59-.05-.97-.09Z"/>
      <path class="cls-1" d="M15.36,37.68L24.09,0h11.25l8.62,37.68h-8.51l-5.65-31.35h-.46l-5.42,31.35h-8.56ZM21.47,30.83v-5.54h16.73v5.54h-16.73Z"/>
      <path class="cls-1" d="M46.27,37.68V0h8.05v17.01c1.26-.84,2.34-1.82,3.25-2.94.91-1.12,1.7-2.4,2.37-3.83.67-1.43,1.25-3,1.74-4.71.49-1.71.84-3.56,1.03-5.54h8.91c-.27,2.17-.71,4.23-1.31,6.17-.61,1.94-1.44,3.72-2.48,5.34-1.05,1.62-2.25,3.06-3.6,4.34-1.35,1.28-2.92,2.29-4.71,3.05v.46c1.67-.08,3.1.05,4.28.37,1.18.32,2.21.84,3.08,1.54.88.71,1.58,1.62,2.11,2.74.53,1.12.93,2.48,1.2,4.08l1.66,9.59h-8.56l-1.14-7.25c-.23-1.98-.57-3.52-1.03-4.62-.46-1.1-1.08-1.88-1.88-2.34-.8-.46-1.85-.69-3.14-.69h-1.77v14.9h-8.05Z"/>
      <path class="cls-1" d="M74.69,37.68V0h8.16v37.68h-8.16ZM80.29,6.68V0h14.5v6.68h-14.5ZM80.29,21.64v-6.11h12.62v6.11h-12.62ZM80.29,37.68v-6.68h14.5v6.68h-14.5Z"/>
      <path class="cls-2" d="M1.43,82v-37.68h7.99v37.68H1.43ZM7.02,71.72v-6.62h4.4c1.86,0,3.23-.57,4.11-1.71.88-1.14,1.31-3.03,1.31-5.65,0-2.32-.41-4.05-1.23-5.2-.82-1.14-2.08-1.71-3.8-1.71h-4.8v-6.51h5.65c1.52,0,3.03.26,4.51.77,1.48.51,2.83,1.32,4.05,2.43,1.22,1.1,2.18,2.53,2.88,4.28.7,1.75,1.06,3.83,1.06,6.22,0,3.01-.58,5.52-1.74,7.54-1.16,2.02-2.81,3.55-4.94,4.6-2.13,1.05-4.68,1.57-7.65,1.57h-3.83Z"/>
      <path class="cls-2" d="M27.54,82v-37.68h8.05v37.68h-8.05ZM33.02,50.94v-6.62h13.36v6.62h-13.36ZM33.02,65.9v-6.05h11.59v6.05h-11.59ZM33.02,82v-6.62h13.36v6.62h-13.36Z"/>
      <path class="cls-2" d="M48.16,82l7.99-37.68h11.3l7.88,37.68h-8.45l-5.02-31.4h-.4l-4.8,31.4h-8.51ZM54.1,75.21v-5.48h15.47v5.48h-15.47Z"/>
      <path class="cls-2" d="M77.54,82v-37.68h11.02c1.41,0,2.72.13,3.94.4,1.22.27,2.35.71,3.4,1.34,1.05.63,1.96,1.37,2.74,2.23.78.86,1.37,1.88,1.77,3.05.4,1.18.6,2.57.6,4.17,0,1.22-.15,2.37-.46,3.45-.31,1.08-.8,2.05-1.48,2.88-.69.84-1.58,1.56-2.68,2.17-1.1.61-2.42,1.01-3.94,1.2v.46c2.02.15,3.56.6,4.62,1.34,1.07.74,1.85,1.73,2.34,2.97.49,1.24.88,2.65,1.14,4.25l1.37,7.77h-8.51l-.8-6.74c-.19-1.26-.44-2.38-.74-3.37-.3-.99-.79-1.76-1.46-2.31-.67-.55-1.63-.83-2.88-.83h-2v13.25h-7.99ZM85.53,63.05h2.11c1.75,0,3.05-.5,3.91-1.51.86-1.01,1.28-2.62,1.28-4.82,0-2.06-.38-3.55-1.14-4.48-.76-.93-1.96-1.4-3.6-1.4h-2.57v12.22Z"/>
      <path class="cls-2" d="M116.59,82.69c-2.51,0-4.61-.45-6.28-1.34-1.68-.89-3.01-2.19-4-3.88-.99-1.69-1.72-3.74-2.2-6.14-.48-2.4-.71-5.08-.71-8.05,0-2.78.22-5.37.66-7.77.44-2.4,1.14-4.49,2.11-6.28.97-1.79,2.31-3.17,4.02-4.14,1.71-.97,3.79-1.46,6.22-1.46,2.25,0,4.13.4,5.65,1.2,1.52.8,2.7,1.86,3.54,3.17.84,1.31,1.37,2.85,1.6,4.62.23,1.77.23,3.65,0,5.62l-7.48.86c.15-1.86.11-3.47-.11-4.82-.23-1.35-.64-2.4-1.23-3.14-.59-.74-1.34-1.11-2.26-1.11-.76,0-1.42.26-1.97.77-.55.51-1.02,1.28-1.4,2.28-.38,1.01-.66,2.3-.83,3.88-.17,1.58-.26,3.44-.26,5.57,0,3.31.18,5.99.54,8.05.36,2.06.89,3.53,1.57,4.42.69.9,1.58,1.34,2.68,1.34s2.01-.51,2.6-1.54c.59-1.03.96-2.4,1.11-4.11.15-1.71.13-3.58-.06-5.6l7.71.97c.34,2.63.37,4.96.09,6.99-.29,2.04-.9,3.78-1.86,5.22-.95,1.45-2.23,2.54-3.83,3.28s-3.48,1.11-5.65,1.11Z"/>
      <path class="cls-2" d="M131.18,82v-37.68h8.05v37.68h-8.05ZM136.67,50.94v-6.62h13.36v6.62h-13.36ZM136.67,65.9v-6.05h11.59v6.05h-11.59ZM136.67,82v-6.62h13.36v6.62h-13.36Z"/>
      <path class="cls-3" d="M1.54,126.32v-37.68h8.05v37.68H1.54ZM5.31,126.32v-6.57h7.08c1.29,0,2.39-.36,3.28-1.08.89-.72,1.61-1.97,2.14-3.74.53-1.77.8-4.25.8-7.45,0-2.4-.15-4.38-.46-5.94-.3-1.56-.73-2.8-1.28-3.71-.55-.91-1.24-1.58-2.06-2-.82-.42-1.8-.63-2.94-.63h-6.57v-6.57h6.28c3.39,0,6.21.73,8.48,2.2,2.26,1.47,3.95,3.6,5.05,6.39,1.1,2.8,1.66,6.16,1.66,10.08,0,3.16-.28,5.85-.83,8.08-.55,2.23-1.36,4.05-2.43,5.48-1.07,1.43-2.21,2.53-3.43,3.31-1.22.78-2.46,1.33-3.74,1.66-1.28.32-2.5.49-3.68.49h-7.37Z"/>
      <path class="cls-3" d="M30.09,126.32v-37.68h8.16v37.68h-8.16ZM35.69,95.32v-6.68h14.5v6.68h-14.5ZM35.69,110.28v-6.11h12.62v6.11h-12.62ZM35.69,126.32v-6.68h14.5v6.68h-14.5Z"/>
      <path class="cls-3" d="M64.84,127.06c-2.36,0-4.38-.33-6.05-1-1.68-.67-3.03-1.6-4.05-2.8-1.03-1.2-1.7-2.64-2.03-4.31-.32-1.67-.35-3.52-.09-5.54l7.48-1.14c-.11,1.6-.02,3.05.29,4.34.3,1.29.85,2.32,1.63,3.08.78.76,1.78,1.14,3,1.14.8,0,1.52-.15,2.17-.46.65-.3,1.11-.74,1.4-1.31.29-.57.43-1.26.43-2.06,0-1.33-.3-2.46-.88-3.37-.59-.91-1.42-1.68-2.48-2.31-1.07-.63-2.21-1.23-3.43-1.8-1.18-.57-2.35-1.16-3.51-1.77-1.16-.61-2.2-1.36-3.11-2.26-.91-.89-1.66-1.93-2.23-3.11-.57-1.18-.86-2.59-.86-4.23,0-2.09.46-3.9,1.37-5.42.91-1.52,2.26-2.71,4.05-3.57,1.79-.86,3.96-1.28,6.51-1.28s4.8.51,6.65,1.54c1.85,1.03,3.2,2.47,4.05,4.34.86,1.87,1.19,4.13,1,6.79l-7.42,1.03c.11-.99.1-1.92-.03-2.8-.13-.88-.39-1.66-.77-2.34-.38-.69-.87-1.24-1.46-1.66-.59-.42-1.32-.63-2.2-.63s-1.53.16-2.08.49c-.55.32-.99.75-1.31,1.28-.32.53-.49,1.16-.49,1.88,0,.99.28,1.83.83,2.51.55.69,1.3,1.28,2.26,1.8.95.51,1.94,1.02,2.97,1.51,1.37.57,2.66,1.23,3.88,1.97,1.22.74,2.35,1.58,3.4,2.51,1.05.93,1.88,2.08,2.51,3.45s.94,2.97.94,4.8c0,2.13-.47,4-1.4,5.6-.93,1.6-2.3,2.85-4.11,3.74-1.81.89-4.08,1.34-6.82,1.34Z"/>
      <path class="cls-3" d="M80.26,126.32v-37.68h8.28v37.68h-8.28Z"/>
      <path class="cls-3" d="M103.71,127.06c-2.7,0-4.9-.82-6.59-2.46-1.69-1.64-2.95-3.9-3.77-6.79-.82-2.89-1.23-6.28-1.23-10.16,0-2.89.25-5.53.74-7.91.49-2.38,1.27-4.47,2.34-6.28,1.06-1.81,2.49-3.19,4.28-4.14,1.79-.95,3.98-1.43,6.57-1.43,2.28,0,4.21.38,5.77,1.14,1.56.76,2.79,1.8,3.68,3.11.89,1.31,1.49,2.82,1.8,4.51.3,1.69.32,3.47.06,5.34l-7.65.91c.23-1.79.19-3.33-.11-4.62-.31-1.29-.78-2.27-1.43-2.94-.65-.67-1.47-1-2.46-1-1.14,0-2.11.5-2.91,1.48-.8.99-1.4,2.39-1.8,4.2-.4,1.81-.6,4.03-.6,6.65s.13,4.7.4,6.45c.27,1.75.64,3.19,1.11,4.31.48,1.12,1.06,1.93,1.77,2.43.7.5,1.49.74,2.37.74,1.07,0,1.94-.31,2.63-.94.69-.63,1.22-1.51,1.6-2.66.38-1.14.63-2.49.74-4.05h-4.34v-5.77h11.53v19.13h-5.37v-10.62h-.51c-.04,2.13-.35,4.07-.94,5.82-.59,1.75-1.5,3.11-2.74,4.08-1.24.97-2.88,1.46-4.94,1.46Z"/>
      <path class="cls-3" d="M122.23,126.32v-37.68h9.88l10.16,25.46h.29l-.11-25.46h7.77v37.68h-9.54l-10.51-25.75h-.23l.06,25.75h-7.76Z"/>
    </g>
  </g>
</svg>