<?xml version="1.0" encoding="UTF-8"?>
<svg id="Layer_1" data-name="Layer 1" xmlns="http://www.w3.org/2000/svg" viewBox="0 0 252.09 294.73">
  
  <path class="hero-fill" d="M37.5,42.1h.88c2.94,0,5.36-.43,7.27-1.3,1.9-.87,3.32-2.3,4.24-4.3.92-2,1.39-4.66,1.39-7.97V4.33h-9.05v23.92c0,1.28-.15,2.33-.45,3.14-.3.81-.8,1.39-1.5,1.75-.7.36-1.67.54-2.91.54h-.88c-.32,0-.61-.02-.88-.06l.34,8.48h1.55Z"/>
  <path class="hero-fill" d="M62.42,35.42h7.11l.78,6.22h9.56l-6.9-37.32h-13.57l-6.95,37.32h9.16l.82-6.22ZM66.46,11.11l2.36,18.77h-5.68l2.47-18.77h.85Z"/>
  <path class="hero-fill" d="M90.66,26.72h1.58c1.21,0,2.11.24,2.71.71.6.47,1.04,1.29,1.3,2.46.26,1.17.51,2.81.74,4.92l.62,6.84h9.05l-1.19-9.78c-.26-1.7-.65-3.11-1.16-4.24-.51-1.13-1.18-2.01-2.01-2.63s-1.78-1.06-2.86-1.33c-1.07-.26-2.23-.41-3.48-.45v-.45c1.55-.9,2.91-2,4.1-3.28,1.19-1.28,2.22-2.7,3.11-4.27.89-1.56,1.6-3.26,2.15-5.09.55-1.83.95-3.76,1.22-5.8h-9.61c-.11,2.04-.35,3.87-.71,5.51-.36,1.64-.81,3.13-1.36,4.47-.55,1.34-1.18,2.56-1.89,3.68-.72,1.11-1.49,2.18-2.32,3.19V4.33h-8.71v37.32h8.71v-14.93Z"/>
  <polygon class="hero-fill" points="118.18 41.64 128.42 41.64 128.42 34.75 118.18 34.75 118.18 25.87 126.95 25.87 126.95 19.42 118.18 19.42 118.18 11.28 128.42 11.28 128.42 4.33 118.18 4.33 115.41 4.33 109.42 4.33 109.42 41.64 115.41 41.64 118.18 41.64"/>
  <rect class="hero-fill" x="141.25" y="4.33" width="8.82" height="37.32"/>
  <path class="hero-fill" d="M153.38,29.54c-.23,1.51-.23,3.03,0,4.55.23,1.53.79,2.91,1.7,4.16.9,1.24,2.2,2.25,3.9,3.03,1.7.77,3.86,1.16,6.5,1.16,2.98,0,5.34-.47,7.1-1.41,1.75-.94,3.02-2.21,3.79-3.82.77-1.6,1.16-3.31,1.16-5.12s-.29-3.33-.88-4.66c-.59-1.34-1.38-2.53-2.38-3.56-1-1.04-2.11-1.95-3.34-2.74-1.23-.79-2.46-1.51-3.7-2.15-.9-.49-1.78-.99-2.63-1.5s-1.55-1.1-2.12-1.78c-.57-.68-.85-1.49-.85-2.43,0-.6.14-1.13.42-1.58.28-.45.67-.8,1.16-1.05.49-.24,1.05-.37,1.7-.37.71,0,1.37.17,1.95.51.58.34,1.07.79,1.47,1.36s.67,1.21.82,1.92c.15.72.17,1.49.06,2.32l7.92-.96c.08-2.15-.26-4.12-1.02-5.91-.75-1.79-2.03-3.2-3.82-4.24-1.79-1.04-4.23-1.55-7.32-1.55-2.6,0-4.79.42-6.56,1.24-1.77.83-3.08,1.97-3.93,3.42-.85,1.45-1.27,3.12-1.27,5,0,1.47.24,2.77.73,3.9.49,1.13,1.15,2.14,1.98,3.03.83.89,1.78,1.69,2.86,2.4,1.07.72,2.16,1.41,3.25,2.09,1.43.79,2.66,1.55,3.67,2.26,1.02.72,1.8,1.48,2.35,2.29.55.81.82,1.82.82,3.03,0,.94-.16,1.68-.48,2.21-.32.53-.73.9-1.24,1.1-.51.21-1.05.31-1.61.31-1.21,0-2.13-.35-2.77-1.05-.64-.7-1.07-1.6-1.3-2.71-.23-1.11-.28-2.31-.17-3.59l-7.92.9Z"/>
  <path class="hero-fill" d="M197.74,35.42h7.11l.78,6.22h9.56l-6.9-37.32h-13.57l-6.95,37.32h9.16l.82-6.22ZM201.78,11.11l2.36,18.77h-5.68l2.47-18.77h.85Z"/>
  <polygon class="hero-fill" points="47.76 54.04 37.7 54.04 37.7 91.36 45.78 91.36 45.27 66.71 46.01 66.71 55 91.36 64.78 91.36 64.78 54.04 56.58 54.04 57.09 77.57 56.35 77.57 47.76 54.04"/>
  <path class="hero-fill" d="M76.82,85.14h7.11l.78,6.22h9.56l-6.9-37.32h-13.57l-6.95,37.32h9.16l.82-6.22ZM80.86,60.83l2.36,18.77h-5.68l2.47-18.77h.85Z"/>
  <path class="hero-fill" d="M102.19,54.04l-6.96,37.32h9.16l.82-6.22h7.11l.78,6.22h9.56l-6.9-37.32h-13.57ZM105.94,79.6l2.47-18.77h.85l2.36,18.77h-5.68Z"/>
  <path class="hero-fill" d="M124.75,91.36h8.71v-12.89h1.64c1.13.04,1.99.36,2.57.96.58.6,1.02,1.41,1.3,2.43s.54,2.17.76,3.45l1.02,6.05h9.1l-1.53-7.12c-.34-1.47-.72-2.83-1.13-4.07s-1.07-2.28-1.98-3.11c-.91-.83-2.24-1.38-4.01-1.64v-.51c1.51-.34,2.76-.79,3.76-1.36s1.81-1.27,2.43-2.12c.62-.85,1.06-1.77,1.33-2.77.26-1,.4-2.06.4-3.19,0-2.15-.33-3.93-.99-5.34-.66-1.41-1.52-2.52-2.57-3.31-1.06-.79-2.19-1.39-3.39-1.81-1.21-.41-2.33-.68-3.36-.79-1.04-.11-1.88-.17-2.52-.17h-11.53v37.32ZM133.45,60.94h1.98c1.73,0,2.99.44,3.76,1.33.77.89,1.16,2.27,1.16,4.16,0,2.22-.42,3.83-1.24,4.81-.83.98-2.13,1.47-3.9,1.47h-1.75v-11.76Z"/>
  <polygon class="hero-fill" points="159.89 62.47 160.63 62.47 166.34 91.36 174.37 91.36 180.13 62.47 180.87 62.47 180.36 91.36 188.28 91.36 188.28 54.04 175.89 54.04 170.58 81.92 169.9 81.92 164.7 54.04 152.31 54.04 152.31 91.36 160.4 91.36 159.89 62.47"/>
  <polygon class="hero-fill" points="199.19 95.89 207.22 95.89 216.32 51.9 208.35 51.9 199.19 95.89"/>
  <polygon class="hero-fill" points="31.72 112.19 31.21 141.08 39.13 141.08 39.13 103.76 26.75 103.76 21.43 131.64 20.75 131.64 15.55 103.76 3.17 103.76 3.17 141.08 11.25 141.08 10.74 112.19 11.48 112.19 17.19 141.08 25.22 141.08 30.99 112.19 31.72 112.19"/>
  <polygon class="hero-fill" points="52.2 141.08 62.44 141.08 62.44 134.18 52.2 134.18 52.2 125.3 60.97 125.3 60.97 118.86 52.2 118.86 52.2 110.72 62.44 110.72 62.44 103.76 52.2 103.76 49.43 103.76 43.44 103.76 43.44 141.08 49.43 141.08 52.2 141.08"/>
  <polygon class="hero-fill" points="65.75 141.08 67.39 141.08 74.46 141.08 84.46 141.08 84.46 133.56 74.46 133.56 74.46 103.76 65.75 103.76 65.75 141.08"/>
  <path class="hero-fill" d="M105.89,140.01c1.9-.72,3.34-1.81,4.3-3.28.96-1.47,1.44-3.34,1.44-5.6,0-2.68-.72-4.73-2.15-6.16-1.43-1.43-3.68-2.24-6.73-2.43v-.85c1.7-.19,3.1-.57,4.21-1.13,1.11-.57,1.94-1.39,2.49-2.46.55-1.07.82-2.46.82-4.16,0-1.88-.32-3.47-.96-4.75-.64-1.28-1.53-2.33-2.66-3.14-1.13-.81-2.41-1.39-3.85-1.75-1.43-.36-2.94-.54-4.52-.54h-11.7v37.32h12.38c2.71,0,5.02-.36,6.93-1.07ZM95.11,110.49h2.49c1.39,0,2.41.39,3.05,1.16.64.77.96,1.91.96,3.42,0,1.58-.37,2.73-1.1,3.45-.73.72-1.91,1.07-3.53,1.07h-1.87v-9.1ZM95.11,134.35v-9.22h2.71c1.43,0,2.59.44,3.48,1.33.89.89,1.33,2.06,1.33,3.53s-.37,2.52-1.1,3.25c-.73.74-1.84,1.1-3.31,1.1h-3.11Z"/>
  <path class="hero-fill" d="M114.89,111.4c-.96,2.87-1.44,6.56-1.44,11.08,0,3.24.24,6.08.73,8.51.49,2.43,1.25,4.45,2.29,6.05,1.04,1.6,2.37,2.81,3.99,3.62s3.52,1.22,5.71,1.22,4.16-.4,5.8-1.19c1.64-.79,3.01-2,4.1-3.62,1.09-1.62,1.89-3.67,2.4-6.13.51-2.47.76-5.36.76-8.68s-.26-6.19-.76-8.62c-.51-2.43-1.32-4.43-2.43-5.99-1.11-1.56-2.48-2.72-4.1-3.48-1.62-.75-3.51-1.13-5.65-1.13-2.83,0-5.19.68-7.1,2.04-1.9,1.36-3.34,3.47-4.3,6.33ZM122.75,115.44c.28-1.87.72-3.29,1.3-4.27.58-.98,1.29-1.47,2.12-1.47s1.62.52,2.26,1.55c.64,1.04,1.13,2.53,1.47,4.47.34,1.94.51,4.31.51,7.1s-.16,4.94-.48,6.79c-.32,1.85-.79,3.23-1.41,4.16-.62.92-1.39,1.39-2.29,1.39-.64,0-1.21-.26-1.7-.79-.49-.53-.91-1.34-1.24-2.43-.34-1.09-.58-2.44-.73-4.04-.15-1.6-.23-3.44-.23-5.51,0-2.75.14-5.06.42-6.93Z"/>
  <path class="hero-fill" d="M142.38,103.76v24.77c0,.72.08,1.63.23,2.74.15,1.11.45,2.28.9,3.51.45,1.23,1.12,2.37,2.01,3.45.89,1.07,2.08,1.95,3.59,2.63,1.51.68,3.41,1.02,5.71,1.02,3.73,0,6.66-1.08,8.79-3.25,2.13-2.17,3.19-5.53,3.19-10.09v-24.77h-8.76v24.88c0,1.43-.13,2.55-.4,3.36-.26.81-.65,1.38-1.16,1.7-.51.32-1.12.48-1.84.48-.79,0-1.44-.16-1.95-.48-.51-.32-.9-.89-1.16-1.72-.26-.83-.4-1.94-.4-3.34v-24.88h-8.76Z"/>
  <path class="hero-fill" d="M191.2,123.27c1-.57,1.81-1.27,2.43-2.12.62-.85,1.06-1.77,1.33-2.77.26-1,.4-2.06.4-3.19,0-2.15-.33-3.93-.99-5.34-.66-1.41-1.52-2.52-2.57-3.31-1.06-.79-2.19-1.39-3.39-1.81-1.21-.41-2.33-.68-3.36-.79-1.04-.11-1.88-.17-2.52-.17h-11.53v37.32h8.71v-12.89h1.64c1.13.04,1.99.36,2.57.96.58.6,1.02,1.41,1.3,2.43s.54,2.17.76,3.45l1.02,6.05h9.1l-1.53-7.12c-.34-1.47-.72-2.83-1.13-4.07s-1.07-2.28-1.98-3.11c-.91-.83-2.24-1.38-4.01-1.64v-.51c1.51-.34,2.76-.79,3.76-1.36ZM185.35,120.95c-.83.98-2.13,1.47-3.9,1.47h-1.75v-11.76h1.98c1.73,0,2.99.44,3.76,1.33.77.89,1.16,2.27,1.16,4.16,0,2.22-.42,3.83-1.24,4.81Z"/>
  <polygon class="hero-fill" points="217.95 127.28 217.22 127.28 208.62 103.76 198.56 103.76 198.56 141.08 206.64 141.08 206.13 116.43 206.87 116.43 215.86 141.08 225.64 141.08 225.64 103.76 217.44 103.76 217.95 127.28"/>
  <polygon class="hero-fill" points="248.92 110.72 248.92 103.76 238.69 103.76 235.92 103.76 229.93 103.76 229.93 141.08 235.92 141.08 238.69 141.08 248.92 141.08 248.92 134.18 238.69 134.18 238.69 125.3 247.45 125.3 247.45 118.86 238.69 118.86 238.69 110.72 248.92 110.72"/>
  <path class="hero-fill" d="M81.08,189.72c1.9-.72,3.34-1.81,4.3-3.28.96-1.47,1.44-3.34,1.44-5.6,0-2.68-.72-4.73-2.15-6.16-1.43-1.43-3.68-2.24-6.73-2.43v-.85c1.7-.19,3.1-.57,4.21-1.13,1.11-.57,1.94-1.39,2.49-2.46.55-1.07.82-2.46.82-4.16,0-1.88-.32-3.47-.96-4.75-.64-1.28-1.53-2.33-2.66-3.14-1.13-.81-2.41-1.39-3.85-1.75-1.43-.36-2.94-.54-4.52-.54h-11.7v37.32h12.38c2.71,0,5.02-.36,6.93-1.07ZM70.31,160.21h2.49c1.39,0,2.41.39,3.05,1.16.64.77.96,1.91.96,3.42,0,1.58-.37,2.73-1.1,3.45-.73.72-1.91,1.07-3.53,1.07h-1.87v-9.1ZM70.31,184.07v-9.22h2.71c1.43,0,2.59.44,3.48,1.33.89.89,1.33,2.06,1.33,3.53s-.37,2.52-1.1,3.25c-.73.74-1.84,1.1-3.31,1.1h-3.11Z"/>
  <path class="hero-fill" d="M97.36,184.58h7.11l.78,6.22h9.56l-6.9-37.32h-13.57l-6.95,37.32h9.16l.82-6.22ZM101.41,160.27l2.36,18.77h-5.68l2.47-18.77h.85Z"/>
  <path class="hero-fill" d="M127.86,191.59c2.98,0,5.34-.47,7.1-1.41,1.75-.94,3.02-2.21,3.79-3.82.77-1.6,1.16-3.31,1.16-5.12s-.29-3.33-.88-4.66c-.58-1.34-1.38-2.53-2.37-3.56-1-1.04-2.11-1.95-3.34-2.74-1.23-.79-2.46-1.51-3.7-2.15-.9-.49-1.78-.99-2.63-1.5-.85-.51-1.56-1.1-2.12-1.78-.57-.68-.85-1.49-.85-2.43,0-.6.14-1.13.42-1.58.28-.45.67-.8,1.16-1.05s1.05-.37,1.7-.37c.72,0,1.37.17,1.95.51s1.07.79,1.47,1.36c.4.57.67,1.21.82,1.92.15.72.17,1.49.06,2.32l7.92-.96c.08-2.15-.26-4.12-1.02-5.91-.75-1.79-2.03-3.2-3.82-4.24-1.79-1.04-4.23-1.55-7.32-1.55-2.6,0-4.79.42-6.56,1.24-1.77.83-3.08,1.97-3.93,3.42-.85,1.45-1.27,3.12-1.27,5,0,1.47.24,2.77.73,3.9.49,1.13,1.15,2.14,1.98,3.03.83.89,1.78,1.69,2.86,2.4,1.07.72,2.16,1.41,3.25,2.09,1.43.79,2.66,1.55,3.68,2.26,1.02.72,1.8,1.48,2.35,2.29.55.81.82,1.82.82,3.03,0,.94-.16,1.68-.48,2.21-.32.53-.73.9-1.24,1.1-.51.21-1.05.31-1.61.31-1.21,0-2.13-.35-2.77-1.05-.64-.7-1.07-1.6-1.3-2.71-.23-1.11-.28-2.31-.17-3.59l-7.92.9c-.23,1.51-.23,3.03,0,4.55.23,1.53.79,2.91,1.7,4.16s2.2,2.25,3.9,3.03,3.86,1.16,6.5,1.16Z"/>
  <polygon class="hero-fill" points="161.74 160.43 161.74 153.48 151.5 153.48 148.73 153.48 142.74 153.48 142.74 190.8 148.73 190.8 151.5 190.8 161.74 190.8 161.74 183.9 151.5 183.9 151.5 175.02 160.27 175.02 160.27 168.58 151.5 168.58 151.5 160.43 161.74 160.43"/>
  <path class="hero-fill" d="M182.52,189.02c1.24-.7,2.43-1.72,3.56-3.08,1.13-1.36,2.04-3.15,2.71-5.37.68-2.22,1.02-4.99,1.02-8.31,0-4.03-.64-7.44-1.92-10.23-1.28-2.79-3.02-4.91-5.2-6.36-2.19-1.45-4.67-2.18-7.46-2.18h-10.18v37.32h10.91c.79,0,1.77-.12,2.94-.37,1.17-.24,2.37-.72,3.62-1.41ZM175.68,183.9h-1.92v-23.52h1.58c1.02,0,1.89.22,2.63.65.73.43,1.34,1.13,1.81,2.09.47.96.81,2.19,1.02,3.68.21,1.49.31,3.27.31,5.34,0,2.64-.21,4.84-.62,6.62-.42,1.77-1.01,3.07-1.78,3.9-.77.83-1.78,1.24-3.03,1.24Z"/>
  <path class="hero-fill" d="M56.66,240.52h5.09v-18.94h-12.1v6.05h4.41c-.15,1.43-.42,2.68-.79,3.73-.38,1.06-.85,1.85-1.41,2.37-.57.53-1.28.79-2.15.79-.6,0-1.18-.22-1.72-.65-.55-.43-1.03-1.13-1.44-2.09-.42-.96-.73-2.29-.96-3.99-.23-1.7-.34-3.79-.34-6.28,0-2.83.17-5.15.51-6.98.34-1.83.84-3.18,1.5-4.07.66-.88,1.5-1.33,2.52-1.33.9,0,1.65.36,2.23,1.07.58.72.98,1.66,1.19,2.83.21,1.17.2,2.43-.03,3.79l8.2-.79c.34-1.62.41-3.22.23-4.81-.19-1.58-.7-3.03-1.53-4.35-.83-1.32-2.06-2.37-3.68-3.17s-3.67-1.19-6.16-1.19c-2.71,0-4.95.49-6.7,1.47-1.75.98-3.14,2.35-4.16,4.1-1.02,1.75-1.74,3.81-2.18,6.16-.43,2.36-.65,4.89-.65,7.6,0,3.58.35,6.84,1.05,9.78.7,2.94,1.85,5.29,3.45,7.04,1.6,1.75,3.7,2.63,6.3,2.63,2.11,0,3.76-.47,4.95-1.41,1.19-.94,2.04-2.29,2.57-4.04.53-1.75.81-3.82.85-6.19h.96v10.86Z"/>
  <path class="hero-fill" d="M79.81,231.02c.28,1.02.54,2.17.76,3.45l1.02,6.05h9.1l-1.53-7.12c-.34-1.47-.72-2.83-1.13-4.07-.42-1.24-1.07-2.28-1.98-3.11-.9-.83-2.24-1.38-4.01-1.64v-.51c1.51-.34,2.76-.79,3.76-1.36,1-.57,1.81-1.27,2.43-2.12.62-.85,1.06-1.77,1.33-2.77.26-1,.4-2.06.4-3.19,0-2.15-.33-3.93-.99-5.34-.66-1.41-1.52-2.52-2.57-3.31-1.05-.79-2.19-1.39-3.39-1.81-1.21-.41-2.33-.68-3.36-.79-1.04-.11-1.88-.17-2.52-.17h-11.53v37.32h8.71v-12.89h1.64c1.13.04,1.99.36,2.57.96.58.6,1.02,1.41,1.3,2.43ZM74.3,221.86v-11.76h1.98c1.73,0,2.99.44,3.76,1.33.77.89,1.16,2.27,1.16,4.16,0,2.22-.42,3.83-1.24,4.81-.83.98-2.13,1.47-3.9,1.47h-1.75Z"/>
  <path class="hero-fill" d="M101.9,234.3h7.11l.78,6.22h9.56l-6.9-37.32h-13.57l-6.96,37.32h9.16l.82-6.22ZM105.95,209.98l2.36,18.77h-5.68l2.47-18.77h.85Z"/>
  <path class="hero-fill" d="M145.33,210.46c-.85-1.79-1.96-3.22-3.34-4.3-1.38-1.07-2.86-1.84-4.44-2.29s-3.11-.68-4.58-.68h-11.53v37.32h8.71v-9.05h.9c2.98,0,5.64-.47,8-1.41,2.36-.94,4.2-2.46,5.54-4.55,1.34-2.09,2.01-4.83,2.01-8.23,0-2.75-.42-5.02-1.27-6.81ZM136.08,222.79c-.87,1.19-2.22,1.78-4.07,1.78h-1.87v-14.47h1.92c1.85,0,3.19.58,4.04,1.72.85,1.15,1.27,2.95,1.27,5.4s-.43,4.38-1.3,5.57Z"/>
  <polygon class="hero-fill" points="164.67 217.84 157.66 217.84 157.66 203.2 148.95 203.2 148.95 240.52 157.66 240.52 157.66 224.97 164.67 224.97 164.67 240.52 173.38 240.52 173.38 203.2 164.67 203.2 164.67 217.84"/>
  <rect class="hero-fill" x="177.63" y="203.2" width="8.82" height="37.32"/>
  <path class="hero-fill" d="M209.2,240.06c1.6-.83,2.85-1.98,3.73-3.45s1.46-3.18,1.73-5.15c.26-1.96.3-4.09.11-6.39l-8.2-1.07c.11,1.81.06,3.51-.17,5.09-.23,1.58-.63,2.87-1.22,3.84-.59.98-1.37,1.47-2.35,1.47-.75,0-1.46-.4-2.12-1.22-.66-.81-1.19-2.14-1.58-3.99-.4-1.85-.59-4.39-.59-7.63,0-2.19.09-4.07.28-5.65s.47-2.86.85-3.84c.38-.98.81-1.71,1.3-2.18.49-.47,1.05-.71,1.7-.71s1.26.26,1.87.79c.6.53,1.06,1.39,1.39,2.6.32,1.21.39,2.81.2,4.81l8.09-.9c.19-1.92.12-3.73-.2-5.43-.32-1.7-.92-3.18-1.81-4.47-.89-1.28-2.07-2.27-3.56-2.97-1.49-.7-3.35-1.05-5.57-1.05-2.41,0-4.47.45-6.16,1.36-1.7.9-3.06,2.2-4.1,3.9-1.04,1.7-1.79,3.76-2.26,6.19-.47,2.43-.71,5.17-.71,8.23s.23,5.65.68,8c.45,2.36,1.2,4.36,2.23,6.02,1.04,1.66,2.4,2.91,4.1,3.76s3.75,1.27,6.16,1.27,4.59-.42,6.19-1.24Z"/>
  <path class="hero-fill" d="M45.91,255.09c-2.19-1.45-4.67-2.18-7.46-2.18h-10.18v37.32h10.91c.79,0,1.77-.12,2.94-.37,1.17-.24,2.37-.72,3.62-1.41,1.24-.7,2.43-1.72,3.56-3.08,1.13-1.36,2.04-3.15,2.71-5.37.68-2.22,1.02-4.99,1.02-8.31,0-4.03-.64-7.44-1.92-10.23-1.28-2.79-3.02-4.91-5.2-6.36ZM43.71,278.19c-.42,1.77-1.01,3.07-1.78,3.9-.77.83-1.78,1.24-3.03,1.24h-1.92v-23.52h1.58c1.02,0,1.89.22,2.63.65.73.43,1.34,1.13,1.81,2.09.47.96.81,2.19,1.02,3.67.21,1.49.31,3.27.31,5.34,0,2.64-.21,4.84-.62,6.62Z"/>
  <polygon class="hero-fill" points="62.07 252.92 56.08 252.92 56.08 290.23 62.07 290.23 64.84 290.23 75.08 290.23 75.08 283.34 64.84 283.34 64.84 274.46 73.61 274.46 73.61 268.01 64.84 268.01 64.84 259.87 75.08 259.87 75.08 252.92 64.84 252.92 62.07 252.92"/>
  <path class="hero-fill" d="M98.15,272.45c-1-1.04-2.11-1.95-3.34-2.74-1.23-.79-2.46-1.51-3.7-2.15-.9-.49-1.78-.99-2.63-1.5-.85-.51-1.55-1.1-2.12-1.78s-.85-1.49-.85-2.43c0-.6.14-1.13.42-1.58.28-.45.67-.8,1.16-1.05.49-.24,1.05-.37,1.7-.37.71,0,1.37.17,1.95.51.58.34,1.07.79,1.47,1.36s.67,1.21.82,1.92c.15.72.17,1.49.06,2.32l7.92-.96c.08-2.15-.26-4.12-1.02-5.91-.75-1.79-2.03-3.2-3.82-4.24-1.79-1.04-4.23-1.55-7.32-1.55-2.6,0-4.79.42-6.56,1.24-1.77.83-3.08,1.97-3.93,3.42-.85,1.45-1.27,3.12-1.27,5,0,1.47.24,2.77.73,3.9.49,1.13,1.15,2.14,1.98,3.03s1.78,1.69,2.86,2.4c1.07.72,2.16,1.41,3.25,2.09,1.43.79,2.66,1.55,3.67,2.26s1.8,1.48,2.35,2.29c.55.81.82,1.82.82,3.03,0,.94-.16,1.68-.48,2.2-.32.53-.73.9-1.24,1.1-.51.21-1.05.31-1.61.31-1.21,0-2.13-.35-2.77-1.05-.64-.7-1.07-1.6-1.3-2.71-.23-1.11-.28-2.31-.17-3.59l-7.92.9c-.23,1.51-.23,3.03,0,4.55.23,1.53.79,2.91,1.7,4.16.9,1.24,2.2,2.25,3.9,3.03,1.7.77,3.86,1.16,6.5,1.16,2.98,0,5.34-.47,7.1-1.41,1.75-.94,3.02-2.21,3.79-3.82.77-1.6,1.16-3.31,1.16-5.12s-.29-3.33-.88-4.66c-.59-1.34-1.38-2.52-2.38-3.56Z"/>
  <rect class="hero-fill" x="104.29" y="252.92" width="8.82" height="37.32"/>
  <path class="hero-fill" d="M129.61,277.34h4.41c-.15,1.43-.42,2.68-.79,3.73-.38,1.06-.85,1.85-1.41,2.38-.57.53-1.28.79-2.15.79-.6,0-1.18-.22-1.72-.65-.55-.43-1.03-1.13-1.44-2.09-.42-.96-.73-2.29-.96-3.99-.23-1.7-.34-3.79-.34-6.28,0-2.83.17-5.15.51-6.98.34-1.83.84-3.18,1.5-4.07.66-.89,1.5-1.33,2.52-1.33.9,0,1.65.36,2.23,1.07.58.72.98,1.66,1.19,2.83.21,1.17.2,2.43-.03,3.79l8.2-.79c.34-1.62.41-3.22.23-4.81-.19-1.58-.7-3.03-1.53-4.35-.83-1.32-2.06-2.38-3.68-3.17-1.62-.79-3.67-1.19-6.16-1.19-2.71,0-4.95.49-6.7,1.47-1.75.98-3.14,2.35-4.16,4.1-1.02,1.75-1.74,3.81-2.18,6.16-.43,2.36-.65,4.89-.65,7.61,0,3.58.35,6.84,1.05,9.78.7,2.94,1.85,5.29,3.45,7.04,1.6,1.75,3.7,2.63,6.3,2.63,2.11,0,3.76-.47,4.95-1.41,1.19-.94,2.04-2.29,2.57-4.04.53-1.75.81-3.82.85-6.19h.96v10.86h5.09v-18.94h-12.1v6.05Z"/>
  <polygon class="hero-fill" points="164.94 276.44 164.2 276.44 155.61 252.92 145.55 252.92 145.55 290.23 153.63 290.23 153.12 265.58 153.86 265.58 162.85 290.23 172.63 290.23 172.63 252.92 164.43 252.92 164.94 276.44"/>
  <polygon class="hero-fill" points="182.91 252.92 176.91 252.92 176.91 290.23 182.91 290.23 185.68 290.23 195.91 290.23 195.91 283.34 185.68 283.34 185.68 274.46 194.44 274.46 194.44 268.01 185.68 268.01 185.68 259.87 195.91 259.87 195.91 252.92 185.68 252.92 182.91 252.92"/>
  <path class="hero-fill" d="M221.67,279.04c-.42-1.24-1.07-2.28-1.98-3.11-.91-.83-2.24-1.38-4.01-1.64v-.51c1.51-.34,2.76-.79,3.76-1.36,1-.57,1.81-1.27,2.43-2.12.62-.85,1.06-1.77,1.33-2.77.26-1,.4-2.06.4-3.19,0-2.15-.33-3.93-.99-5.34s-1.52-2.52-2.57-3.31c-1.06-.79-2.19-1.39-3.39-1.81-1.21-.41-2.33-.68-3.36-.79-1.04-.11-1.88-.17-2.52-.17h-11.53v37.32h8.71v-12.89h1.64c1.13.04,1.99.36,2.57.96.58.6,1.02,1.41,1.3,2.43s.54,2.17.76,3.45l1.02,6.05h9.1l-1.53-7.12c-.34-1.47-.72-2.83-1.13-4.07ZM213.59,270.1c-.83.98-2.13,1.47-3.9,1.47h-1.75v-11.76h1.98c1.73,0,2.99.44,3.76,1.33.77.89,1.16,2.27,1.16,4.16,0,2.22-.42,3.83-1.24,4.81Z"/>
</svg>