<?xml version="1.0" encoding="UTF-8"?>
<svg id="Layer_2" data-name="Layer 2" xmlns="http://www.w3.org/2000/svg" viewBox="0 0 63.35 38.41">
  <defs>
    <style>
      .cls-1 {
        fill: #f9f9f9;
      }
    </style>
  </defs>
  <g id="uuid-8302f5ac-5125-4a54-b893-48f309f4516e">
    <path class="cls-1" d="M2.43,38.23c2.28,0,4.16-.5,5.64-1.51,1.48-1,2.58-2.52,3.3-4.55.72-2.02,1.08-4.55,1.08-7.58V.18h-7.08v24.23c0,1.52-.12,2.74-.37,3.69-.25.95-.63,1.63-1.17,2.05s-1.23.62-2.08.62c-.16,0-.36,0-.6-.03s-.53-.06-.85-.14l.49,7.5h0c.33.03.59.06.83.08.23.03.51.03.83.03h0v.02Z"/>
    <path class="cls-1" d="M24.71,27.73h1.19c2.5,0,4.65-.52,6.44-1.57,1.79-1.04,3.18-2.57,4.15-4.58.97-2.01,1.47-4.51,1.47-7.5,0-2.38-.31-4.45-.89-6.18-.58-1.74-1.4-3.16-2.43-4.26s-2.16-1.91-3.41-2.42-2.52-.76-3.79-.76h-9.45v37.48h6.72v-10.21h0ZM26.72,6.95c1.45,0,2.51.56,3.2,1.7s1.03,2.86,1.03,5.17c0,2.61-.37,4.49-1.1,5.62-.74,1.13-1.89,1.7-3.46,1.7h-1.68V6.96h2.01Z"/>
    <path class="cls-1" d="M57.42,2.65c-1.91-1.47-4.28-2.19-7.13-2.19h-8.44v37.49h9.35c.99,0,2.02-.17,3.09-.49,1.08-.33,2.12-.87,3.15-1.65,1.03-.77,1.98-1.87,2.88-3.29s1.59-3.23,2.04-5.45.69-4.89.69-8.03c0-3.9-.48-7.24-1.4-10.03-.92-2.77-2.35-4.89-4.25-6.35h0ZM55.52,26.62c-.45,1.76-1.05,3-1.8,3.72s-1.67,1.07-2.76,1.07h-2.36V6.99h1.92c.96,0,1.78.21,2.48.62s1.27,1.08,1.73,1.99c.47.9.82,2.14,1.08,3.69.26,1.56.39,3.52.39,5.9,0,3.18-.23,5.65-.67,7.41h0Z"/>
  </g>
</svg>