<?xml version="1.0" encoding="UTF-8"?>
<svg xmlns="http://www.w3.org/2000/svg" viewBox="0 0 1200 1200">
  <style>
    .cls-1 {
      fill: #141414;
    }
    @media (prefers-color-scheme: dark) {
      .cls-1 {
        fill: #f9f9f9;
      }
    }
  </style>
  <g transform="scale(1)">
    <path class="cls-1" d="M515.23,478.38c-7.01-32.21-38.8-52.64-71.01-45.63l-210.74,45.86C76.28,512.82-23.43,667.98,10.78,825.18c33.68,154.79,186.47,252.97,341.26,219.29,151-32.86,246.78-181.91,213.92-332.91l-50.74-233.17Z"/>
    <path class="cls-1" d="M1132.68,233.56l-.33-1.52c-34.04-156.43-188.45-255.65-344.88-221.61-158.04,34.39-258.28,190.39-223.89,348.43l49.88,229.24c6.85,31.48,37.92,51.45,69.41,44.6l224.76-48.91c158.86-34.57,259.62-191.38,225.06-350.24Z"/>
    <path class="cls-1" d="M988.28,675.91c-4.94-22.72-27.37-37.13-50.09-32.19l-257.35,56c-22.72,4.94-37.13,27.37-32.19,50.09l56,257.35c4.94,22.72,27.37,37.13,50.09,32.19l257.35-56c22.72-4.94,37.13-27.37,32.19-50.09l-56-257.35Z"/>
    <ellipse class="cls-1" cx="270.13" cy="217" rx="195.46" ry="194.33" transform="translate(-39.99 62.45) rotate(-12.29)"/>
  </g>
</svg>
