<?xml version="1.0" encoding="UTF-8"?>
<svg id="Layer_1" xmlns="http://www.w3.org/2000/svg" version="1.1" viewBox="0 0 1135.42 1047.35">
  <!-- Generator: Adobe Illustrator 29.5.1, SVG Export Plug-In . SVG Version: 2.1.0 Build 141)  -->
  <path d="M511.43,474.86c-6.98-32.07-38.63-52.4-70.69-45.43l-209.8,45.66C74.44,509.14-24.83,663.61,9.23,820.11c33.53,154.1,185.64,251.84,339.74,218.31,150.33-32.71,245.68-181.1,212.96-331.42l-50.51-232.13h0Z"/>
  <path d="M1126.12,231.13l-.33-1.51c-33.89-155.73-187.61-254.51-343.34-220.62-157.33,34.24-257.13,189.54-222.89,346.87l49.66,228.22c6.82,31.34,37.75,51.22,69.1,44.4l223.76-48.69c158.15-34.42,258.46-190.53,224.05-348.68h-.01Z"/>
  <path d="M982.36,671.51c-4.92-22.62-27.25-36.96-49.87-32.05l-256.2,55.75c-22.62,4.92-36.96,27.25-32.05,49.87l55.75,256.2c4.92,22.62,27.25,36.96,49.87,32.05l256.2-55.75c22.62-4.92,36.96-27.25,32.05-49.87l-55.75-256.2h0Z"/>
  <ellipse cx="267.43" cy="214.62" rx="194.59" ry="193.46" transform="translate(-39.56 61.84) rotate(-12.29)"/>
</svg>