<?xml version="1.0" encoding="UTF-8"?>
<svg xmlns="http://www.w3.org/2000/svg" version="1.1" viewBox="0 0 815.73 815.73">
  <!-- Generator: Adobe Illustrator 29.5.1, SVG Export Plug-In . SVG Version: 2.1.0 Build 141)  -->
  <defs>
    <style>
      .st0 {
        fill: #fff;
      }

      .st1 {
        fill: #141414;
        mix-blend-mode: darken;
      }

      .st2 {
        isolation: isolate;
      }
    </style>
  </defs>
  <g class="st2">
    <g id="Layer_1">
      <g>
        <circle class="st1" cx="407.86" cy="407.86" r="405.56"/>
        <path class="st0" d="M389.05,557.59c-24.66,0-45.3-4.99-61.92-14.95-16.62-9.98-29.24-23.63-37.82-40.94-8.59-17.31-13.03-36.93-13.29-58.79l72.3-3.34c.55,20.5,4.36,35.48,11.43,44.87,7.06,9.42,16.83,14.15,29.3,14.15s21.82-4.37,28.88-13.12c7.07-8.71,10.6-22.63,10.6-41.74v-187.85h72.31v187.85c0,23.25-4.71,43.43-14.13,60.44-9.42,17.05-22.51,30.22-39.27,39.5-16.77,9.28-36.23,13.91-58.39,13.91Z"/>
      </g>
    </g>
  </g>
</svg>


