<?xml version="1.0" encoding="UTF-8"?>
<svg xmlns="http://www.w3.org/2000/svg" version="1.1" viewBox="0 0 815.73 815.73">
  <!-- Generator: Adobe Illustrator 29.5.1, SVG Export Plug-In . SVG Version: 2.1.0 Build 141)  -->
  <defs>
    <style>
      .st0 {
        fill: #fff;
      }

      .st1 {
        fill: #141414;
        mix-blend-mode: darken;
      }

      .st2 {
        isolation: isolate;
      }
    </style>
  </defs>
  <g class="st2">
    <g id="Layer_1">
      <g>
        <circle class="st1" cx="407.86" cy="407.86" r="405.56"/>
        <path class="st0" d="M390.73,557.59c-25.03,0-45.98-5.07-62.84-15.17-16.87-10.13-29.67-23.98-38.38-41.55-8.72-17.57-13.22-37.48-13.49-59.66l73.38-3.39c.56,20.81,4.43,36.01,11.6,45.54,7.17,9.56,17.08,14.36,29.73,14.36s22.14-4.44,29.31-13.31c7.17-8.84,10.76-22.97,10.76-42.36v-190.65h73.39v190.65c0,23.6-4.78,44.07-14.34,61.34-9.56,17.3-22.85,30.67-39.85,40.08-17.02,9.41-36.77,14.12-59.26,14.12Z"/>
      </g>
    </g>
  </g>
</svg>