<?xml version="1.0" encoding="UTF-8"?>
<svg id="Layer_2" data-name="Layer 2" xmlns="http://www.w3.org/2000/svg" viewBox="0 0 127.54 127.56">
  <defs>
    <style>
      .cls-1 {
        fill: #2d2e34;
      }
    </style>
  </defs>
  <g id="Layer_2-2" data-name="Layer 2-2">
    <g id="uuid-8302f5ac-5125-4a54-b893-48f309f4516e">
      <g>
        <g>
          <path class="cls-1" d="M2.16,38.41c2.3,0,4.2-.5,5.69-1.52,1.49-1.01,2.6-2.54,3.33-4.59.73-2.04,1.09-4.59,1.09-7.65V0h-7.15v24.46c0,1.53-.12,2.77-.37,3.72-.25.96-.64,1.65-1.18,2.07s-1.24.63-2.1.63c-.16,0-.36-.01-.61-.03S.32,30.79,0,30.71l.49,7.57h0c.33.03.6.06.84.08.23.03.51.03.84.03h0v.02Z"/>
          <path class="cls-1" d="M21.67,30.96h7.87l1.07,6.88h7.35L30.51,0h-9.72l-7.54,37.83h7.4l1.02-6.88h0ZM25.73,6.36l2.95,19.03h-6.18l2.83-19.03s.4,0,.4,0Z"/>
          <path class="cls-1" d="M46.92,37.83v-14.96h1.53c1.11,0,2.02.23,2.71.69.69.46,1.23,1.24,1.62,2.35.4,1.1.69,2.65.89,4.64l.98,7.28h7.4l-1.43-9.63c-.23-1.61-.58-2.97-1.04-4.1-.46-1.12-1.06-2.04-1.82-2.75-.75-.7-1.64-1.22-2.66-1.55-1.02-.32-2.25-.45-3.7-.37v-.46c1.55-.76,2.9-1.78,4.07-3.06,1.17-1.28,2.2-2.73,3.11-4.36.9-1.63,1.62-3.41,2.14-5.36S61.62,2.17,61.85,0h-7.7c-.16,1.99-.47,3.84-.89,5.56-.42,1.72-.92,3.29-1.5,4.73s-1.26,2.72-2.05,3.84-1.72,2.11-2.81,2.95V0h-6.95v37.83h6.97Z"/>
          <polygon class="cls-1" points="71.56 37.84 81.87 37.84 81.87 31.13 71.56 31.13 71.56 21.73 80.25 21.73 80.25 15.6 71.56 15.6 71.56 6.72 81.87 6.72 81.87 0 71.56 0 69.35 0 64.51 0 64.51 37.84 69.35 37.84 71.56 37.84"/>
          <path class="cls-1" d="M7.98,72.02h1.2c2.52,0,4.69-.52,6.5-1.58,1.81-1.05,3.21-2.59,4.19-4.62.98-2.03,1.48-4.55,1.48-7.57,0-2.4-.31-4.49-.9-6.24-.59-1.76-1.41-3.19-2.45-4.3s-2.18-1.93-3.44-2.44-2.54-.77-3.83-.77H1.19v37.83h6.78v-10.31h0ZM10.01,51.04c1.46,0,2.53.57,3.23,1.72s1.04,2.89,1.04,5.22c0,2.63-.37,4.53-1.11,5.67-.75,1.14-1.91,1.72-3.49,1.72h-1.7v-14.32h2.03Z"/>
          <polygon class="cls-1" points="30.2 82.33 39.36 82.33 39.36 75.68 30.2 75.68 30.2 66.16 37.86 66.16 37.86 60.09 30.2 60.09 30.2 51.15 39.36 51.15 39.36 44.5 30.2 44.5 28.02 44.5 23.37 44.5 23.37 82.33 28.02 82.33 30.2 82.33"/>
          <path class="cls-1" d="M47.66,44.5l-6.78,37.83h7.22l.88-6.82h6.88l.92,6.82h7.18l-6.69-37.83h-9.61ZM49.69,70.01l2.48-19.2h.34l2.6,19.2s-5.42,0-5.42,0Z"/>
          <path class="cls-1" d="M79.3,82.33h7.23l-1.16-7.8c-.22-1.61-.55-3.02-.97-4.27-.42-1.24-1.08-2.24-1.99-2.98-.9-.74-2.21-1.19-3.92-1.35v-.46c1.29-.19,2.41-.59,3.35-1.2.93-.61,1.69-1.34,2.28-2.18.58-.83.99-1.81,1.26-2.89.26-1.08.39-2.24.39-3.46,0-1.61-.17-3-.51-4.19-.34-1.17-.84-2.2-1.5-3.06s-1.44-1.61-2.33-2.24-1.85-1.07-2.89-1.35c-1.04-.27-2.15-.4-3.35-.4h-9.36v37.83h6.78v-13.3h1.7c1.06,0,1.88.28,2.45.83s.99,1.33,1.24,2.32.47,2.12.63,3.38l.68,6.77h0ZM77.72,61.79c-.73,1.01-1.83,1.52-3.32,1.52h-1.8v-12.26h2.18c1.39,0,2.41.47,3.06,1.41s.97,2.43.97,4.5c0,2.21-.36,3.82-1.09,4.84h0Z"/>
          <path class="cls-1" d="M107.01,78.58c.82-1.45,1.33-3.19,1.58-5.24.24-2.04.21-4.38-.08-7.02l-6.55-.97c.16,2.03.18,3.9.05,5.62s-.44,3.09-.94,4.13c-.5,1.03-1.27,1.55-2.21,1.55s-1.69-.44-2.28-1.35c-.58-.89-1.03-2.37-1.33-4.44s-.46-4.76-.46-8.08c0-2.14.08-4.01.22-5.59.14-1.59.38-2.88.7-3.89.32-1,.72-1.78,1.19-2.29.47-.51,1.03-.77,1.67-.77.78,0,1.42.37,1.92,1.11s.85,1.8,1.04,3.15c.19,1.36.22,2.97.09,4.84l6.35-.86c.2-1.98.2-3.86,0-5.64s-.65-3.32-1.36-4.64-1.72-2.38-3.01-3.18-2.89-1.2-4.8-1.2c-2.06,0-3.83.49-5.28,1.47-1.45.97-2.59,2.36-3.41,4.16-.82,1.8-1.42,3.89-1.79,6.3s-.56,5.01-.56,7.8c0,2.98.2,5.67.6,8.08.41,2.41,1.03,4.47,1.87,6.16.84,1.7,1.97,3,3.4,3.89,1.42.89,3.2,1.35,5.33,1.35l-.03-.03c1.84,0,3.44-.37,4.8-1.11s2.45-1.84,3.25-3.29c0,0,.03-.02.03-.02Z"/>
          <polygon class="cls-1" points="118.21 82.33 127.38 82.33 127.38 75.68 118.21 75.68 118.21 66.16 125.87 66.16 125.87 60.09 118.21 60.09 118.21 51.15 127.38 51.15 127.38 44.5 118.21 44.5 116.03 44.5 111.37 44.5 111.37 82.33 116.03 82.33 118.21 82.33"/>
        </g>
        <g>
          <path class="cls-1" d="M17.01,91.19c-1.93-1.48-4.32-2.21-7.2-2.21H1.29v37.84h9.44c1,0,2.04-.17,3.12-.49,1.09-.33,2.14-.88,3.18-1.67,1.04-.78,2-1.89,2.91-3.32s1.6-3.26,2.06-5.5.7-4.94.7-8.11c0-3.94-.48-7.31-1.41-10.12-.93-2.8-2.37-4.94-4.29-6.41h.01ZM15.1,115.38c-.45,1.78-1.06,3.03-1.82,3.75s-1.69,1.08-2.79,1.08h-2.38v-24.64h1.94c.97,0,1.8.21,2.5.63s1.28,1.09,1.75,2.01c.47.91.83,2.16,1.09,3.72.26,1.57.39,3.55.39,5.96,0,3.21-.23,5.7-.68,7.48h0Z"/>
          <polygon class="cls-1" points="30.29 88.99 25.53 88.99 25.53 126.82 30.29 126.82 32.46 126.82 42.6 126.82 42.6 120.11 32.46 120.11 32.46 110.71 41 110.71 41 104.58 32.46 104.58 32.46 95.7 42.6 95.7 42.6 88.99 32.46 88.99 30.29 88.99"/>
          <path class="cls-1" d="M62.59,108.53c-.89-.93-1.85-1.78-2.89-2.52s-2.13-1.41-3.29-1.98c-.87-.49-1.72-1-2.52-1.52-.82-.52-1.45-1.11-1.92-1.81-.47-.68-.7-1.53-.7-2.52,0-.72.14-1.36.42-1.89.27-.53.65-.96,1.11-1.28.47-.33,1.02-.49,1.77-.49s1.37.21,1.87.63.92.97,1.24,1.67c.32.68.54,1.47.65,2.35s.12,1.82.03,2.81l6.3-1.03c.16-2.67-.12-4.94-.85-6.82-.72-1.88-1.87-3.32-3.44-4.36-1.57-1.03-3.48-1.55-5.65-1.55s-4.01.42-5.53,1.28-2.67,2.06-3.44,3.58c-.77,1.53-1.16,3.34-1.16,5.44,0,1.65.25,3.06.73,4.25s1.12,2.23,1.89,3.12c.77.9,1.66,1.66,2.64,2.27.98.61,1.98,1.2,2.98,1.78,1.04.57,2,1.17,2.91,1.81.9.63,1.6,1.41,2.11,2.32.49.91.75,2.05.75,3.38,0,.8-.12,1.5-.37,2.07s-.64,1.01-1.19,1.32-1.16.46-1.84.46c-1.04,0-1.89-.38-2.55-1.14s-1.13-1.8-1.38-3.09c-.26-1.29-.34-2.75-.25-4.36l-6.35,1.14c-.22,2.03-.2,3.88.08,5.56.28,1.68.85,3.12,1.72,4.33.87,1.2,2.01,2.14,3.44,2.81,1.42.67,3.13,1,5.14,1v-.03c2.34,0,4.26-.45,5.8-1.35s2.7-2.15,3.49-3.75,1.19-3.48,1.19-5.62c0-1.84-.26-3.44-.8-4.82s-1.24-2.53-2.13-3.46h-.01Z"/>
          <rect class="cls-1" x="68.13" y="88.99" width="7.03" height="37.83"/>
          <path class="cls-1" d="M90.57,113.39h3.69c-.09,1.57-.31,2.92-.63,4.07s-.77,2.04-1.36,2.67-1.32.94-2.23.94c-.75,0-1.42-.24-2.01-.74-.6-.5-1.1-1.32-1.5-2.44s-.71-2.57-.94-4.33-.34-3.84-.34-6.47.17-4.86.51-6.68c.34-1.82.85-3.22,1.53-4.22.68-.98,1.5-1.49,2.47-1.49.84,0,1.54.33,2.09,1,.55.67.95,1.66,1.21,2.95.25,1.3.29,2.84.09,4.64l6.5-.91c.22-1.88.2-3.66-.05-5.36-.26-1.7-.77-3.21-1.53-4.53s-1.8-2.36-3.12-3.12-2.96-1.14-4.9-1.14c-2.2,0-4.06.48-5.58,1.44-1.52.95-2.73,2.34-3.63,4.16-.91,1.82-1.57,3.92-1.99,6.3s-.63,5.04-.63,7.94c0,3.89.35,7.3,1.04,10.2.7,2.9,1.77,5.17,3.2,6.82,1.44,1.65,3.3,2.47,5.6,2.47h0c1.75-.01,3.14-.5,4.19-1.48,1.05-.97,1.83-2.34,2.33-4.1s.76-3.7.8-5.84h.43v10.66h4.56v-19.2h-9.79v5.79h0Z"/>
          <polygon class="cls-1" points="120.94 88.99 121.03 114.55 120.79 114.55 112.16 88.99 103.77 88.99 103.77 126.82 103.78 126.82 110.37 126.82 110.32 100.97 110.51 100.97 119.44 126.82 127.54 126.82 127.54 88.99 120.94 88.99"/>
        </g>
      </g>
    </g>
  </g>
</svg>