<?xml version="1.0" encoding="UTF-8"?>
<svg id="Layer_2" data-name="Layer 2" xmlns="http://www.w3.org/2000/svg" viewBox="0 0 786.78 786.78">
  <defs>
    <style>
      .cls-1 {
        fill: #2b2b2b;
      }
    </style>
  </defs>
  <path class="cls-1" d="M99.89,289.13c-1.04-1.09-2.06-2.18-3.05-3.3-3.63-4.05-7.24-9.79-13.12-10.06-2.81-.13-4.64,2.33-6.29,4.08-2.15,2.27-4.28,4.56-6.4,6.86-4.23,4.61-8.39,9.27-12.5,14-8.2,9.46-16.12,19.14-23.78,29.05-.99,1.28-1.98,2.57-2.96,3.86-.34.45-2.76,2.68-2.7,3.24-2.12,2.64-4.29,5.22-6.41,7.86-.64.79-1.35,1.55-1.92,2.39-4.62,6.83-12.96,12.6-12.79,21.74,3.92,37.62,14.31,135.93,15.75,149.87,1.18,7.56,9.72,15.01,15.62,20.59,11.62,11.07,24.63,20.98,38.22,29.02,35.08,21.4,74.41,27.89,110.78,17.96,9.43-1.72,20.89-7.83,30.08-10.16,2.1,13.17,11.42,110.62,13.15,122.31,2.27,5.63,4.96,6.02,10.43,11.15,5.19,4.44,12.47,10.69,20.43,17.51,16.93,13.7,44.48,39.4,54.49,46.08,6.03,2.13,17.04-15.72,31.77-29.43,15.68-16.5,33.75-35.61,49.08-51.76,32.73-33.29,7.23-23.04,66.19,12.98,125.95,82.25,261.85-18.59,303.14-122.82,14.5-33.39,12.52-67.87,7.89-104.48-3.45-30.86-8.19-61.29-10.94-92.11-.36-65.48-23.88-115.92-80.46-158.71-26.81-22.93-67.97-58.15-92.84-79.43-3.32-3.46-7.61-3.46-10.09.32-6.57,6.79-36.09,37.75-39.38,41.07-4.39-8.81-6.74-86.27-12.92-98.06-19.04-17.25-56.17-48.87-77.85-68.02-4.7-3.33-11.72-11.3-17.54-8.83-8.76,8.69-228.08,240.39-238.54,251.23-.76.41-3.27,3.46-4.85,4.74-16.89,16.25-36.27,34.64-58.18,35.33-7.2.23-14.68-2.65-20.88-6.84-3.9-2.64-7.39-5.83-10.65-9.23h0ZM732.13,316.28c14.3,39.96,15.2,91.57-5.12,127.53-55.87,98.2-172.49,167.83-286.39,85.47-12.55-9.02-24.06-19.22-35.89-28.81-1.51-1.16-3.23-2-5.02-1.84-2.12.13-3.09,1.73-3.67,2.25-.66.69-1.24,1.27-1.97,2.04-14.54,14.33-89.73,94.69-94.59,97.35-7.07-5.77-55.17-47.78-61.91-53.42,22.49-29.8,343.13-365.9,350.32-375.51.19-.09.7.28,2.39,1.66.71.58,1.64,1.36,2.69,2.25,23.48,19.9,46.81,39.45,70.29,59.71,27.31,23.45,56.8,48.11,68.8,81.08l.08.22h0ZM510.08,101.42c-10.32,11.32-176.62,185.3-237.56,249.23-64.52,64.36-149.32,109.13-239.77,25.49-1.28-1.33-4.39-3.37-3.26-4.95,5.7-7.03,47.51-58.16,54.71-67,.81-1.08,1.26-1.23,2.87.18,1.78,1.6,3.77,3.49,6.16,5.48,39.79,33.5,78.25,7.89,108.07-20.76,9.78-9.41,230.67-242.58,238.04-247.92,16.63,14.01,64.35,54.8,70.7,60.25v.02h.03,0ZM604.37,284.34c-2.63-.12-5.24,2.48-6.81,3.66-.79.69-1.46,1.14-1.99,1.73-14.78,15.78-48.41,51.09-69.12,73.09-31.74,33.64-61.49,64.87-66.04,69.91-2.58,3.49.1,9.1,3.95,12.16,8.75,7.31,16.84,14.8,26.57,21.44,37.55,26.36,71.73,13.42,100.53-11.06,37.26-31.12,96.36-92.24,46.47-143.97-6.75-6.62-16.77-14.33-24.15-20.77-3-2.15-5.73-5.99-9.25-6.19h-.17,0Z"/>
</svg>