<?xml version="1.0" encoding="UTF-8"?>
<svg id="Layer_2" data-name="Layer 2" xmlns="http://www.w3.org/2000/svg" viewBox="0 0 697.48 697.59">
  <defs>
    <style>
      .cls-1 {
        fill: #27282d;
      }
    </style>
  </defs>
  <g id="Layer_2-2" data-name="Layer 2-2">
    <g>
      <g>
        <path class="cls-1" d="M13.8,210.87c12.5,0,22.83-2.72,30.93-8.26,8.1-5.49,14.13-13.81,18.1-24.95,3.97-11.09,5.93-24.95,5.93-41.59V2.11H29.89v132.98c0,8.32-.65,15.06-2.01,20.22-1.36,5.22-3.48,8.97-6.42,11.25s-6.74,3.42-11.42,3.42c-.87,0-1.96-.05-3.32-.16s-2.94-.33-4.68-.76l2.66,41.15h0c1.79.16,3.26.33,4.57.43,1.25.16,2.77.16,4.57.16l-.05.05Z"/>
        <path class="cls-1" d="M119.87,170.37h42.79l5.82,37.4h39.96L167.92,2.11h-52.84l-40.99,205.66h40.23s5.55-37.4,5.55-37.4ZM141.94,36.63l16.04,103.46h-33.6l15.39-103.46s2.17,0,2.17,0Z"/>
        <path class="cls-1" d="M257.14,207.72v-81.33h8.32c6.03,0,10.98,1.25,14.73,3.75,3.75,2.5,6.69,6.74,8.81,12.78,2.17,5.98,3.75,14.41,4.84,25.23l5.33,39.58h40.23l-7.77-52.35c-1.25-8.75-3.15-16.15-5.65-22.29-2.5-6.09-5.76-11.09-9.89-14.95-4.08-3.81-8.92-6.63-14.46-8.43-5.55-1.74-12.23-2.45-20.11-2.01v-2.5c8.43-4.13,15.77-9.68,22.13-16.64,6.36-6.96,11.96-14.84,16.91-23.7,4.89-8.86,8.81-18.54,11.63-29.14s4.89-21.85,6.14-33.65h-41.86c-.87,10.82-2.56,20.88-4.84,30.23-2.28,9.35-5,17.89-8.15,25.71s-6.85,14.79-11.14,20.88-9.35,11.47-15.28,16.04V2.11h-37.78v205.66h0l37.78-.05h.11Z"/>
        <polygon class="cls-1" points="391.09 207.77 447.14 207.77 447.14 171.3 391.09 171.3 391.09 120.19 438.34 120.19 438.34 86.87 391.09 86.87 391.09 38.59 447.14 38.59 447.14 2.11 391.09 2.11 379.08 2.11 352.77 2.11 352.77 207.77 379.08 207.77 391.09 207.77"/>
        <path class="cls-1" d="M45.44,393.59h6.52c13.7,0,25.5-2.83,35.34-8.59,9.84-5.71,17.45-14.08,22.78-25.12,5.33-11.04,8.05-24.74,8.05-41.15,0-13.05-1.69-24.41-4.89-33.92-3.21-9.57-7.67-17.34-13.32-23.38-5.65-6.03-11.85-10.49-18.7-13.26s-13.81-4.19-20.82-4.19H8.53v205.66h36.86v-56.05h.05ZM56.48,279.54c7.94,0,13.75,3.1,17.56,9.35,3.81,6.25,5.65,15.71,5.65,28.38,0,14.3-2.01,24.63-6.03,30.82-4.08,6.2-10.38,9.35-18.97,9.35h-9.24v-77.85h11.04v-.05Z"/>
        <polygon class="cls-1" points="166.24 449.64 216.04 449.64 216.04 413.49 166.24 413.49 166.24 361.74 207.88 361.74 207.88 328.74 166.24 328.74 166.24 280.13 216.04 280.13 216.04 243.98 166.24 243.98 154.39 243.98 129.11 243.98 129.11 449.64 154.39 449.64 166.24 449.64"/>
        <path class="cls-1" d="M261.16,243.98l-36.86,205.66h39.25l4.78-37.08h37.4l5,37.08h39.03l-36.37-205.66h-52.24ZM272.2,382.67l13.48-104.38h1.85l14.13,104.38h-29.47Z"/>
        <path class="cls-1" d="M433.17,449.64h39.31l-6.31-42.4c-1.2-8.75-2.99-16.42-5.27-23.21-2.28-6.74-5.87-12.18-10.82-16.2-4.89-4.02-12.01-6.47-21.31-7.34v-2.5c7.01-1.03,13.1-3.21,18.21-6.52,5.06-3.32,9.19-7.28,12.4-11.85,3.15-4.51,5.38-9.84,6.85-15.71,1.41-5.87,2.12-12.18,2.12-18.81,0-8.75-.92-16.31-2.77-22.78-1.85-6.36-4.57-11.96-8.15-16.64s-7.83-8.75-12.67-12.18-10.06-5.82-15.71-7.34c-5.65-1.47-11.69-2.17-18.21-2.17h-50.89v205.66h36.86v-72.31h9.24c5.76,0,10.22,1.52,13.32,4.51s5.38,7.23,6.74,12.61,2.56,11.53,3.42,18.38l3.7,36.8h-.05ZM424.58,337.98c-3.97,5.49-9.95,8.26-18.05,8.26h-9.79v-66.65h11.85c7.56,0,13.1,2.56,16.64,7.67,3.53,5.11,5.27,13.21,5.27,24.46,0,12.01-1.96,20.77-5.93,26.31v-.05Z"/>
        <path class="cls-1" d="M583.82,429.26c4.46-7.88,7.23-17.34,8.59-28.49,1.3-11.09,1.14-23.81-.43-38.16l-35.61-5.27c.87,11.04.98,21.2.27,30.55s-2.39,16.8-5.11,22.45c-2.72,5.6-6.9,8.43-12.01,8.43s-9.19-2.39-12.4-7.34c-3.15-4.84-5.6-12.88-7.23-24.14s-2.5-25.88-2.5-43.93c0-11.63.43-21.8,1.2-30.39.76-8.64,2.07-15.66,3.81-21.15,1.74-5.44,3.91-9.68,6.47-12.45,2.56-2.77,5.6-4.19,9.08-4.19,4.24,0,7.72,2.01,10.44,6.03s4.62,9.79,5.65,17.12c1.03,7.39,1.2,16.15.49,26.31l34.52-4.68c1.09-10.76,1.09-20.98,0-30.66-1.09-9.68-3.53-18.05-7.39-25.23s-9.35-12.94-16.36-17.29-15.71-6.52-26.1-6.52c-11.2,0-20.82,2.66-28.7,7.99-7.88,5.27-14.08,12.83-18.54,22.62-4.46,9.79-7.72,21.15-9.73,34.25-2.01,13.1-3.04,27.24-3.04,42.4,0,16.2,1.09,30.82,3.26,43.93,2.23,13.1,5.6,24.3,10.17,33.49,4.57,9.24,10.71,16.31,18.48,21.15,7.72,4.84,17.4,7.34,28.98,7.34l-.16-.16c10,0,18.7-2.01,26.1-6.03,7.39-4.02,13.32-10,17.67-17.89l.16-.11Z"/>
        <polygon class="cls-1" points="644.7 449.64 694.56 449.64 694.56 413.49 644.7 413.49 644.7 361.74 686.35 361.74 686.35 328.74 644.7 328.74 644.7 280.13 694.56 280.13 694.56 243.98 644.7 243.98 632.85 243.98 607.52 243.98 607.52 449.64 632.85 449.64 644.7 449.64"/>
      </g>
      <g>
        <path class="cls-1" d="M94.53,497.81c-10.49-8.05-23.49-12.01-39.14-12.01h-28.98l-17.34.05v205.66h51.32c5.44,0,11.09-.92,16.96-2.66,5.93-1.79,11.63-4.78,17.29-9.08,5.65-4.24,10.87-10.27,15.82-18.05s8.7-17.72,11.2-29.9,3.81-26.86,3.81-44.09c0-21.42-2.61-39.74-7.67-55.02-5.06-15.22-12.88-26.86-23.32-34.85l.05-.05ZM84.15,629.32c-2.45,9.68-5.76,16.47-9.89,20.39-4.13,3.91-9.19,5.87-15.17,5.87h-12.94v-133.95h10.55c5.27,0,9.79,1.14,13.59,3.42s6.96,5.93,9.51,10.93c2.56,4.95,4.51,11.74,5.93,20.22,1.41,8.54,2.12,19.3,2.12,32.4,0,17.45-1.25,30.99-3.7,40.66v.05Z"/>
        <polygon class="cls-1" points="166.73 485.85 140.85 485.85 140.85 691.51 166.73 691.51 178.53 691.51 233.65 691.51 233.65 655.03 178.53 655.03 178.53 603.93 224.95 603.93 224.95 570.61 178.53 570.61 178.53 522.33 233.65 522.33 233.65 485.85 178.53 485.85 166.73 485.85"/>
        <path class="cls-1" d="M342.33,592.08c-4.84-5.06-10.06-9.68-15.71-13.7s-11.58-7.67-17.89-10.76c-4.73-2.66-9.35-5.44-13.7-8.26-4.46-2.83-7.88-6.03-10.44-9.84-2.56-3.7-3.81-8.32-3.81-13.7,0-3.91.76-7.39,2.28-10.27,1.47-2.88,3.53-5.22,6.03-6.96,2.56-1.79,5.55-2.66,9.62-2.66s7.45,1.14,10.17,3.42,5,5.27,6.74,9.08c1.74,3.7,2.94,7.99,3.53,12.78s.65,9.89.16,15.28l34.25-5.6c.87-14.52-.65-26.86-4.62-37.08-3.91-10.22-10.17-18.05-18.7-23.7-8.54-5.6-18.92-8.43-30.72-8.43s-21.8,2.28-30.06,6.96-14.52,11.2-18.7,19.46c-4.19,8.32-6.31,18.16-6.31,29.57,0,8.97,1.36,16.64,3.97,23.11s6.09,12.12,10.27,16.96c4.19,4.89,9.02,9.02,14.35,12.34,5.33,3.32,10.76,6.52,16.2,9.68,5.65,3.1,10.87,6.36,15.82,9.84,4.89,3.42,8.7,7.67,11.47,12.61,2.66,4.95,4.08,11.14,4.08,18.38,0,4.35-.65,8.15-2.01,11.25s-3.48,5.49-6.47,7.18-6.31,2.5-10,2.5c-5.65,0-10.27-2.07-13.86-6.2s-6.14-9.79-7.5-16.8c-1.41-7.01-1.85-14.95-1.36-23.7l-34.52,6.2c-1.2,11.04-1.09,21.09.43,30.23,1.52,9.13,4.62,16.96,9.35,23.54,4.73,6.52,10.93,11.63,18.7,15.28,7.72,3.64,17.02,5.44,27.94,5.44v-.16c12.72,0,23.16-2.45,31.53-7.34s14.68-11.69,18.97-20.39,6.47-18.92,6.47-30.55c0-10-1.41-18.7-4.35-26.2s-6.74-13.75-11.58-18.81l-.05.05Z"/>
        <rect class="cls-1" x="372.45" y="485.85" width="38.22" height="205.66"/>
        <path class="cls-1" d="M494.44,618.5h20.06c-.49,8.54-1.69,15.87-3.42,22.13s-4.19,11.09-7.39,14.52-7.18,5.11-12.12,5.11c-4.08,0-7.72-1.3-10.93-4.02-3.26-2.72-5.98-7.18-8.15-13.27s-3.86-13.97-5.11-23.54-1.85-20.88-1.85-35.17.92-26.42,2.77-36.32c1.85-9.89,4.62-17.51,8.32-22.94,3.7-5.33,8.15-8.1,13.43-8.1,4.57,0,8.37,1.79,11.36,5.44,2.99,3.64,5.16,9.02,6.58,16.04,1.36,7.07,1.58,15.44.49,25.23l35.34-4.95c1.2-10.22,1.09-19.9-.27-29.14-1.41-9.24-4.19-17.45-8.32-24.63s-9.79-12.83-16.96-16.96-16.09-6.2-26.64-6.2c-11.96,0-22.07,2.61-30.34,7.83-8.26,5.16-14.84,12.72-19.73,22.62-4.95,9.89-8.54,21.31-10.82,34.25-2.28,12.94-3.42,27.4-3.42,43.17,0,21.15,1.9,39.69,5.65,55.45,3.81,15.77,9.62,28.11,17.4,37.08,7.83,8.97,17.94,13.43,30.44,13.43h0c9.51-.05,17.07-2.72,22.78-8.05,5.71-5.27,9.95-12.72,12.67-22.29,2.72-9.57,4.13-20.11,4.35-31.75h2.34v57.95h24.79v-104.38h-53.22v31.48h-.05Z"/>
        <polygon class="cls-1" points="659.55 485.85 660.03 624.81 658.73 624.81 611.81 485.85 566.2 485.85 566.2 691.51 566.26 691.51 602.08 691.51 601.81 550.98 602.84 550.98 651.39 691.51 695.43 691.51 695.43 485.85 659.55 485.85"/>
      </g>
    </g>
  </g>
</svg>