<?xml version="1.0" encoding="UTF-8"?>
<svg id="Layer_2" data-name="Layer 2" xmlns="http://www.w3.org/2000/svg" viewBox="0 0 786.78 786.78">
  <defs>
    <style>
      .cls-1 {
        fill: #27282d;
      }
    </style>
  </defs>
  <path class="cls-1" d="M112.19,287.77c-.94-1.1-1.85-2.21-2.74-3.34-3.25-4.1-6.29-9.92-12.22-10.19-2.83-.13-4.95,2.36-6.81,4.13-2.42,2.3-4.82,4.62-7.21,6.95-4.78,4.67-9.49,9.39-14.15,14.18-9.31,9.58-18.37,19.39-27.18,29.43-1.14,1.3-2.28,2.6-3.41,3.91-.39.46-3.08,2.71-3.08,3.28-2.43,2.67-4.9,5.29-7.33,7.96-.73.8-1.53,1.57-2.2,2.42-5.41,6.92-14.47,12.76-15.27,22.02-.03,38.11.02,137.7,0,151.82.39,7.66,8.25,15.21,13.63,20.86,10.59,11.21,22.72,21.25,35.63,29.4,33.26,21.68,72.41,28.25,110.31,18.19,9.74-1.74,22-7.93,31.55-10.29.73,13.34-.21,112.06.3,123.9,1.7,5.7,4.38,6.1,9.38,11.3,4.78,4.5,11.49,10.83,18.83,17.74,15.69,13.88,40.86,39.91,50.29,46.68,5.88,2.16,18.94-15.92,35.32-29.81,17.64-16.71,37.98-36.07,55.23-52.43,36.7-33.72,9.78-23.34,65.67,13.15,118.83,83.32,267.24-18.83,320.16-124.42,18.24-33.82,19.91-68.75,19.12-105.84-.21-31.26-1.77-62.09-1.28-93.31,6.61-66.33-11.85-117.43-64.61-160.77-24.72-23.23-62.66-58.91-85.59-80.46-2.99-3.51-7.34-3.5-10.25.32-7.38,6.88-40.58,38.24-44.26,41.6-3.51-8.92,2.36-87.39-2.65-99.34-17.45-17.47-51.7-49.51-71.62-68.9-4.41-3.37-10.67-11.45-16.83-8.94-9.8,8.8-256.64,243.52-268.39,254.5-.81.42-3.68,3.51-5.42,4.8-18.84,16.46-40.43,35.09-62.7,35.79-7.32.23-14.59-2.68-20.42-6.93-3.67-2.67-6.87-5.91-9.81-9.35ZM749.76,315.28c10.23,40.48,5.65,92.76-18.76,129.19-67.05,99.48-192.6,170.01-299.22,86.58-11.75-9.14-22.33-19.47-33.29-29.18-1.41-1.18-3.06-2.03-4.89-1.86-2.16.13-3.31,1.75-3.96,2.28-.74.7-1.39,1.29-2.21,2.07-16.26,14.52-100.98,95.92-106.19,98.62-6.55-5.84-50.8-48.4-57.03-54.11,25.96-30.19,386.55-370.66,394.86-380.4.2-.09.68.28,2.24,1.68.66.59,1.52,1.38,2.49,2.28,21.67,20.16,43.22,39.96,64.85,60.49,25.17,23.76,52.42,48.74,61.06,82.13l.06.22ZM547.7,97.62c-11.66,11.47-198.65,187.71-267.19,252.47-72.21,65.2-162.88,110.55-245.6,25.82-1.15-1.35-4.09-3.41-2.78-5.01,6.52-7.12,54.32-58.92,62.56-67.87.94-1.09,1.41-1.25,2.89.18,1.63,1.62,3.45,3.54,5.66,5.55,36.74,33.94,78.43,7.99,111.69-21.03,10.91-9.53,259.5-245.74,267.53-251.15,15.35,14.19,59.35,55.51,65.21,61.03v.02Z"/>
  <path class="cls-1" d="M623.74,282.92c-2.65-.12-5.57,2.51-7.29,3.71-.87.7-1.6,1.15-2.2,1.75-16.65,15.99-54.48,51.75-77.8,74.04-35.73,34.08-69.2,65.71-74.34,70.82-2.99,3.54-.87,9.22,2.71,12.32,8.08,7.41,15.48,14.99,24.63,21.72,35.23,26.7,71.23,13.59,103.01-11.2,41.06-31.52,107.43-93.44,62.4-145.84-6.13-6.71-15.46-14.52-22.25-21.04-2.81-2.18-5.17-6.07-8.71-6.27h-.17Z"/>
</svg>