<?xml version="1.0" encoding="UTF-8"?>
<svg id="Layer_2" data-name="Layer 2" xmlns="http://www.w3.org/2000/svg" viewBox="0 0 447.73 210.05">
  <defs>
    <style>
      .cls-1 {
        fill: #27282d;
      }
    </style>
  </defs>
  <g id="Layer_2-2" data-name="Layer 2-2">
    <g>
      <path class="cls-1" d="M13.64,209.15c12.47,0,22.77-2.71,30.85-8.24,8.08-5.48,14.1-13.77,18.05-24.89,3.96-11.06,5.91-24.89,5.91-41.48V.96H29.69v132.61c0,8.3-.65,15.02-2.01,20.17-1.36,5.2-3.47,8.95-6.4,11.22s-6.72,3.42-11.39,3.42c-.87,0-1.95-.05-3.31-.16s-2.93-.33-4.66-.76l2.66,41.04h0c1.79.16,3.25.33,4.55.43,1.25.16,2.77.16,4.55.16l-.05.05Z"/>
      <path class="cls-1" d="M119.42,168.76h42.67l5.8,37.3h39.85L167.34.96h-52.7l-40.88,205.1h40.12s5.53-37.3,5.53-37.3ZM141.43,35.39l15.99,103.17h-33.51l15.34-103.17s2.17,0,2.17,0Z"/>
      <path class="cls-1" d="M256.31,206.01v-81.11h8.3c6.02,0,10.95,1.25,14.69,3.74,3.74,2.49,6.67,6.72,8.78,12.74,2.17,5.96,3.74,14.37,4.83,25.16l5.31,39.47h40.12l-7.75-52.21c-1.25-8.73-3.14-16.1-5.64-22.23-2.49-6.07-5.75-11.06-9.87-14.91-4.07-3.8-8.89-6.61-14.42-8.4-5.53-1.73-12.2-2.44-20.06-2.01v-2.49c8.4-4.12,15.72-9.65,22.07-16.59,6.34-6.94,11.93-14.8,16.86-23.64,4.88-8.84,8.78-18.49,11.6-29.06s4.88-21.79,6.13-33.56h-41.75c-.87,10.79-2.55,20.82-4.83,30.14-2.28,9.33-4.99,17.84-8.13,25.64s-6.83,14.75-11.11,20.82-9.33,11.44-15.23,15.99V.96h-37.68v205.1h0l37.68-.05h.11Z"/>
      <polygon class="cls-1" points="389.9 206.06 445.8 206.06 445.8 169.68 389.9 169.68 389.9 118.72 437.01 118.72 437.01 85.48 389.9 85.48 389.9 37.34 445.8 37.34 445.8 .96 389.9 .96 377.92 .96 351.68 .96 351.68 206.06 377.92 206.06 389.9 206.06"/>
    </g>
  </g>
</svg>