<?xml version="1.0" encoding="UTF-8"?>
<svg id="Layer_2" data-name="Layer 2" xmlns="http://www.w3.org/2000/svg" viewBox="0 0 1970.07 210.05">
  <defs>
    <style>
      .cls-1 {
        fill: #27282d;
      }
    </style>
  </defs>
  <g id="Layer_2-2" data-name="Layer 2-2">
    <g>
      <path class="cls-1" d="M13.64,207.57c12.47,0,22.77-2.71,30.85-8.24,8.08-5.48,14.1-13.77,18.05-24.89,3.96-11.06,5.91-24.89,5.91-41.48V-.62H29.69v132.61c0,8.3-.65,15.02-2.01,20.17-1.36,5.2-3.47,8.95-6.4,11.22s-6.72,3.42-11.39,3.42c-.87,0-1.95-.05-3.31-.16s-2.93-.33-4.66-.76l2.66,41.04h0c1.79.16,3.25.33,4.55.43,1.25.16,2.77.16,4.55.16l-.05.05Z"/>
      <path class="cls-1" d="M119.42,167.18h42.67l5.8,37.3h39.85L167.34-.62h-52.7l-40.88,205.1h40.12s5.53-37.3,5.53-37.3ZM141.43,33.8l15.99,103.17h-33.51l15.34-103.17s2.17,0,2.17,0Z"/>
      <path class="cls-1" d="M256.31,204.42v-81.11h8.3c6.02,0,10.95,1.25,14.69,3.74,3.74,2.49,6.67,6.72,8.78,12.74,2.17,5.96,3.74,14.37,4.83,25.16l5.31,39.47h40.12l-7.75-52.21c-1.25-8.73-3.14-16.1-5.64-22.23-2.49-6.07-5.75-11.06-9.87-14.91-4.07-3.8-8.89-6.61-14.42-8.4-5.53-1.73-12.2-2.44-20.06-2.01v-2.49c8.4-4.12,15.72-9.65,22.07-16.59,6.34-6.94,11.93-14.8,16.86-23.64,4.88-8.84,8.78-18.49,11.6-29.06s4.88-21.79,6.13-33.56h-41.75c-.87,10.79-2.55,20.82-4.83,30.14-2.28,9.33-4.99,17.84-8.13,25.64s-6.83,14.75-11.11,20.82-9.33,11.44-15.23,15.99V-.62h-37.68v205.1h0l37.68-.05h.11Z"/>
      <polygon class="cls-1" points="389.9 204.48 445.8 204.48 445.8 168.1 389.9 168.1 389.9 117.13 437.01 117.13 437.01 83.9 389.9 83.9 389.9 35.76 445.8 35.76 445.8 -.62 389.9 -.62 377.92 -.62 351.68 -.62 351.68 204.48 377.92 204.48 389.9 204.48"/>
    </g>
  </g>
  <g>
    <path class="cls-1" d="M551.38,150.17h6.52c13.7,0,25.5-2.83,35.34-8.59,9.84-5.71,17.45-14.08,22.78-25.12,5.33-11.04,8.05-24.74,8.05-41.15,0-13.05-1.69-24.41-4.89-33.92-3.21-9.57-7.67-17.34-13.32-23.38-5.65-6.03-11.85-10.49-18.7-13.26s-13.81-4.19-20.82-4.19h-51.86v205.66h36.86v-56.05h.05ZM562.42,36.11c7.94,0,13.75,3.1,17.56,9.35,3.81,6.25,5.65,15.71,5.65,28.38,0,14.3-2.01,24.63-6.03,30.82-4.08,6.2-10.38,9.35-18.97,9.35h-9.24V36.17h11.04v-.05Z"/>
    <polygon class="cls-1" points="672.18 206.22 721.98 206.22 721.98 170.07 672.18 170.07 672.18 118.31 713.82 118.31 713.82 85.31 672.18 85.31 672.18 36.71 721.98 36.71 721.98 .56 672.18 .56 660.33 .56 635.05 .56 635.05 206.22 660.33 206.22 672.18 206.22"/>
    <path class="cls-1" d="M767.1.56l-36.86,205.66h39.25l4.78-37.08h37.4l5,37.08h39.03L819.35.56h-52.24ZM778.14,139.24l13.48-104.38h1.85l14.13,104.38h-29.47Z"/>
    <path class="cls-1" d="M939.11,206.22h39.31l-6.31-42.4c-1.2-8.75-2.99-16.42-5.27-23.21-2.28-6.74-5.87-12.18-10.82-16.2-4.89-4.02-12.01-6.47-21.31-7.34v-2.5c7.01-1.03,13.1-3.21,18.21-6.52,5.06-3.32,9.19-7.28,12.4-11.85,3.15-4.51,5.38-9.84,6.85-15.71,1.41-5.87,2.12-12.18,2.12-18.81,0-8.75-.92-16.31-2.77-22.78-1.85-6.36-4.57-11.96-8.15-16.64s-7.83-8.75-12.67-12.18c-4.84-3.42-10.06-5.82-15.71-7.34-5.65-1.47-11.69-2.17-18.21-2.17h-50.89v205.66h36.86v-72.31h9.24c5.76,0,10.22,1.52,13.32,4.51s5.38,7.23,6.74,12.61,2.56,11.53,3.42,18.38l3.7,36.8h-.05ZM930.52,94.56c-3.97,5.49-9.95,8.26-18.05,8.26h-9.79V36.17h11.85c7.56,0,13.1,2.56,16.64,7.67s5.27,13.21,5.27,24.46c0,12.01-1.96,20.77-5.93,26.31v-.05Z"/>
    <path class="cls-1" d="M1089.76,185.83c4.46-7.88,7.23-17.34,8.59-28.49,1.3-11.09,1.14-23.81-.43-38.16l-35.61-5.27c.87,11.04.98,21.2.27,30.55-.71,9.35-2.39,16.8-5.11,22.45-2.72,5.6-6.9,8.43-12.01,8.43s-9.19-2.39-12.4-7.34c-3.15-4.84-5.6-12.88-7.23-24.14-1.63-11.25-2.5-25.88-2.5-43.93,0-11.63.43-21.8,1.2-30.39.76-8.64,2.07-15.66,3.81-21.15,1.74-5.44,3.91-9.68,6.47-12.45,2.56-2.77,5.6-4.19,9.08-4.19,4.24,0,7.72,2.01,10.44,6.03s4.62,9.79,5.65,17.12c1.03,7.39,1.2,16.15.49,26.31l34.52-4.68c1.09-10.76,1.09-20.98,0-30.66-1.09-9.68-3.53-18.05-7.39-25.23s-9.35-12.94-16.36-17.29-15.71-6.52-26.1-6.52c-11.2,0-20.82,2.66-28.7,7.99-7.88,5.27-14.08,12.83-18.54,22.62-4.46,9.79-7.72,21.15-9.73,34.25-2.01,13.1-3.04,27.24-3.04,42.4,0,16.2,1.09,30.82,3.26,43.93,2.23,13.1,5.6,24.3,10.17,33.49,4.57,9.24,10.71,16.31,18.48,21.15,7.72,4.84,17.4,7.34,28.98,7.34l-.16-.16c10,0,18.7-2.01,26.1-6.03s13.32-10,17.67-17.89l.16-.11Z"/>
    <polygon class="cls-1" points="1150.64 206.22 1200.5 206.22 1200.5 170.07 1150.64 170.07 1150.64 118.31 1192.29 118.31 1192.29 85.31 1150.64 85.31 1150.64 36.71 1200.5 36.71 1200.5 .56 1150.64 .56 1138.79 .56 1113.46 .56 1113.46 206.22 1138.79 206.22 1150.64 206.22"/>
  </g>
  <g>
    <path class="cls-1" d="M1354.63,12.66c-10.49-8.05-23.49-12.01-39.14-12.01h-28.98l-17.34.05v205.66h51.32c5.44,0,11.09-.92,16.96-2.66,5.93-1.79,11.63-4.78,17.29-9.08,5.65-4.24,10.87-10.27,15.82-18.05s8.7-17.72,11.2-29.9,3.81-26.86,3.81-44.09c0-21.42-2.61-39.74-7.67-55.02-5.06-15.22-12.88-26.86-23.32-34.85l.05-.05ZM1344.25,144.16c-2.45,9.68-5.76,16.47-9.89,20.39-4.13,3.91-9.19,5.87-15.17,5.87h-12.94V36.47h10.55c5.27,0,9.79,1.14,13.59,3.42s6.96,5.93,9.51,10.93c2.56,4.95,4.51,11.74,5.93,20.22,1.41,8.54,2.12,19.3,2.12,32.4,0,17.45-1.25,30.99-3.7,40.66v.05Z"/>
    <polygon class="cls-1" points="1426.83 .7 1400.95 .7 1400.95 206.36 1426.83 206.36 1438.62 206.36 1493.75 206.36 1493.75 169.88 1438.62 169.88 1438.62 118.78 1485.05 118.78 1485.05 85.45 1438.62 85.45 1438.62 37.17 1493.75 37.17 1493.75 .7 1438.62 .7 1426.83 .7"/>
    <path class="cls-1" d="M1602.42,106.92c-4.84-5.06-10.06-9.68-15.71-13.7-5.65-4.02-11.58-7.67-17.89-10.76-4.73-2.66-9.35-5.44-13.7-8.26-4.46-2.83-7.88-6.03-10.44-9.84-2.56-3.7-3.81-8.32-3.81-13.7,0-3.91.76-7.39,2.28-10.27,1.47-2.88,3.53-5.22,6.03-6.96,2.56-1.79,5.55-2.66,9.62-2.66s7.45,1.14,10.17,3.42,5,5.27,6.74,9.08c1.74,3.7,2.94,7.99,3.53,12.78s.65,9.89.16,15.28l34.25-5.6c.87-14.52-.65-26.86-4.62-37.08-3.91-10.22-10.17-18.05-18.7-23.7-8.54-5.6-18.92-8.43-30.72-8.43s-21.8,2.28-30.06,6.96-14.52,11.2-18.7,19.46c-4.19,8.32-6.31,18.16-6.31,29.57,0,8.97,1.36,16.64,3.97,23.11s6.09,12.12,10.27,16.96c4.19,4.89,9.02,9.02,14.35,12.34,5.33,3.32,10.76,6.52,16.2,9.68,5.65,3.1,10.87,6.36,15.82,9.84,4.89,3.42,8.7,7.67,11.47,12.61,2.66,4.95,4.08,11.14,4.08,18.38,0,4.35-.65,8.15-2.01,11.25-1.36,3.1-3.48,5.49-6.47,7.18s-6.31,2.5-10,2.5c-5.65,0-10.27-2.07-13.86-6.2s-6.14-9.79-7.5-16.8c-1.41-7.01-1.85-14.95-1.36-23.7l-34.52,6.2c-1.2,11.04-1.09,21.09.43,30.23,1.52,9.13,4.62,16.96,9.35,23.54,4.73,6.52,10.93,11.63,18.7,15.28,7.72,3.64,17.02,5.44,27.94,5.44v-.16c12.72,0,23.16-2.45,31.53-7.34s14.68-11.69,18.97-20.39,6.47-18.92,6.47-30.55c0-10-1.41-18.7-4.35-26.2-2.94-7.5-6.74-13.75-11.58-18.81l-.05.05Z"/>
    <rect class="cls-1" x="1632.54" y=".7" width="38.22" height="205.66"/>
    <path class="cls-1" d="M1754.54,133.35h20.06c-.49,8.54-1.69,15.87-3.42,22.13s-4.19,11.09-7.39,14.52-7.18,5.11-12.12,5.11c-4.08,0-7.72-1.3-10.93-4.02-3.26-2.72-5.98-7.18-8.15-13.27-2.17-6.09-3.86-13.97-5.11-23.54s-1.85-20.88-1.85-35.17.92-26.42,2.77-36.32c1.85-9.89,4.62-17.51,8.32-22.94,3.7-5.33,8.15-8.1,13.43-8.1,4.57,0,8.37,1.79,11.36,5.44,2.99,3.64,5.16,9.02,6.58,16.04,1.36,7.07,1.58,15.44.49,25.23l35.34-4.95c1.2-10.22,1.09-19.9-.27-29.14-1.41-9.24-4.19-17.45-8.32-24.63-4.13-7.18-9.79-12.83-16.96-16.96s-16.09-6.2-26.64-6.2c-11.96,0-22.07,2.61-30.34,7.83-8.26,5.16-14.84,12.72-19.73,22.62-4.95,9.89-8.54,21.31-10.82,34.25-2.28,12.94-3.42,27.4-3.42,43.17,0,21.15,1.9,39.69,5.65,55.45,3.81,15.77,9.62,28.11,17.4,37.08,7.83,8.97,17.94,13.43,30.44,13.43h0c9.51-.05,17.07-2.72,22.78-8.05,5.71-5.27,9.95-12.72,12.67-22.29s4.13-20.11,4.35-31.75h2.34v57.95h24.79v-104.38h-53.22v31.48h-.05Z"/>
    <polygon class="cls-1" points="1919.64 .7 1920.13 139.65 1918.83 139.65 1871.91 .7 1826.3 .7 1826.3 206.36 1826.35 206.36 1862.18 206.36 1861.91 65.82 1862.94 65.82 1911.49 206.36 1955.52 206.36 1955.52 .7 1919.64 .7"/>
  </g>
</svg>