<?xml version="1.0" encoding="UTF-8"?>
<svg id="Layer_2" data-name="Layer 2" xmlns="http://www.w3.org/2000/svg" viewBox="0 0 799.12 799.13">
  <defs>
    <style>
      .cls-1 {
        fill: #27282d;
      }
    </style>
  </defs>
  <path class="cls-1" d="M476.71,293.2v.09h-17.5v123.43h14.65c13.62,0,23.62-5,30.08-14.83,6.38-9.83,9.57-26.2,9.57-48.87,0-20.08-2.93-35.08-8.96-45-6.03-9.91-15.26-14.83-27.84-14.83Z"/>
  <path class="cls-1" d="M399.56,6.01C182.21,6.01,6.01,182.21,6.01,399.56s176.2,393.55,393.55,393.55,393.55-176.2,393.55-393.55S616.92,6.01,399.56,6.01ZM352.57,446.81c0,26.38-3.1,48.36-9.4,65.94-6.29,17.67-15.86,30.86-28.7,39.56-12.84,8.79-29.22,13.1-49.05,13.1l.09-.17c-2.84,0-5.26,0-7.24-.26-2.07-.17-4.4-.43-7.24-.69l-4.22-65.25c2.76.69,5.26,1.03,7.41,1.21,2.16.17,3.88.26,5.26.26,7.41,0,13.45-1.81,18.1-5.43s8.02-9.57,10.17-17.84c2.15-8.19,3.19-18.88,3.19-32.07v-210.84h61.63v212.48ZM561.71,420.6c-8.45,17.5-20.51,30.77-36.12,39.82-15.6,9.14-34.31,13.62-56.03,13.62h-10.43v88.87h-58.44V236.83h82.23c11.12,0,22.15,2.24,33.01,6.64,10.86,4.4,20.69,11.46,29.65,21.03,8.96,9.57,16.03,21.89,21.12,37.06,5.09,15.08,7.76,33.1,7.76,53.79,0,26.03-4.31,47.75-12.76,65.25Z"/>
</svg>