<?xml version="1.0" encoding="UTF-8"?>
<svg id="Layer_2" data-name="Layer 2" xmlns="http://www.w3.org/2000/svg" viewBox="0 0 689.03 303.68">
  <defs>
    <style>
      .cls-1 {
        fill: #02a3de;
      }

      .cls-2 {
        fill: #fa6b9b;
      }

      .cls-3 {
        fill: #dfdedd;
      }

      .cls-4 {
        fill: #f8d551;
      }

      .cls-5 {
        fill: none;
        stroke: #fa6b9b;
        stroke-miterlimit: 10;
      }

      .cls-6 {
        fill: #00b070;
      }

      .cls-7 {
        fill: #e7e7e7;
      }

      .cls-8 {
        fill: #fff;
      }

      .cls-9 {
        fill: #f4d5a4;
      }

      .cls-10 {
        fill: #2d2e34;
      }
    </style>
  </defs>
  <g id="Layer_1-2" data-name="Layer 1">
    <g>
      <polygon class="cls-3" points="258.02 75.55 259 75.53 260.2 75.19 261.4 75.38 262.6 75.33 263.79 75.39 264.99 75.5 266.19 75.24 267.39 75.6 268.59 75.51 269.79 75.76 270.98 75.65 272.18 75.46 273.38 75.54 274.58 75.45 275.77 75.39 276.97 75.35 278.17 75.53 279.36 75.66 280.56 75.19 281.76 75.37 282.95 75.26 284.15 75.32 285.35 75.08 286.55 75.11 287.74 75.56 288.94 75.47 290.14 75.2 291.34 75.43 292.53 75.62 293.73 75.77 294.93 75.41 296.13 75.73 297.33 75.42 298.53 75.57 299.72 75.18 300.92 75.51 302.12 75.1 303.32 75.11 304.52 75.75 305.71 75.78 306.91 75.78 308.11 75.54 309.3 75.61 310.5 75.74 311.69 75.28 312.89 75.73 314.08 75.51 315.27 75.28 316.47 75.8 317.66 75.64 318.85 75.73 320.05 75.66 321.24 75.56 322.43 75.42 323.63 75.33 324.82 75.52 326.01 75.43 327.21 75.27 328.4 75.25 329.59 75.5 330.79 75.64 331.98 75.17 333.18 75.7 334.37 75.1 335.57 75.78 336.76 75.77 337.96 75.7 339.15 75.18 340.35 75.31 341.55 75.57 342.74 75.69 343.94 75.59 345.14 75.37 346.34 75.71 347.54 75.24 348.74 75.41 349.94 75.24 351.14 75.36 352.34 75.1 353.54 75.83 354.73 75.47 355.93 75.73 357.13 75.73 358.32 75.73 359.52 75.82 360.72 75.14 361.91 75.3 363.11 75.21 364.3 75.42 365.5 75.13 366.7 75.2 367.89 75.46 369.09 75.52 370.29 75.8 371.48 75.15 372.68 75.28 373.88 75.55 375.08 75.8 376.28 75.47 377.48 75.24 378.68 75.58 379.88 75.27 381.08 75.47 382.28 75.3 383.48 75.31 384.68 75.62 385.88 75.11 387.07 75.59 388.27 75.13 389.47 75.73 390.67 75.45 391.87 75.16 393.06 75.28 394.26 75.18 395.46 75.42 396.66 75.26 397.86 75.71 399.06 75.67 400.26 75.43 401.46 75.29 402.66 75.78 403.86 75.52 405.06 75.49 406.26 75.57 407.46 75.46 408.66 75.46 409.86 75.47 411.06 75.65 412.26 75.78 413.46 75.65 414.66 75.68 415.86 75.63 417.06 75.69 418.27 75.21 419.47 75.58 420.67 75.36 421.87 75.8 423.07 75.33 424.27 75.52 425.47 75.69 426.67 75.66 427.87 75.58 429.07 75.65 430.28 75.36 431.48 75.09 432.68 75.46 433.88 75.49 435.08 75.18 436.28 75.16 437.48 75.57 438.69 75.52 439.89 75.54 441.08 75.14 442.28 75.37 443.48 75.5 444.68 75.14 445.88 75.17 447.07 75.33 448.27 75.4 449.48 75.73 450.68 75.16 451.88 75.28 453.08 75.74 454.28 75.32 455.48 75.71 456.68 75.22 457.89 75.08 459.09 75.64 460.29 75.39 461.49 75.66 462.7 75.69 463.9 75.68 465.11 75.53 466.31 75.51 467.51 75.63 468.72 75.67 469.92 75.41 471.13 75.78 472.33 75.55 473.53 75.5 474.73 75.12 475.94 75.23 477.14 75.39 478.35 75.16 479.56 75.74 480.76 75.11 481.97 75.81 483.18 75.52 484.39 75.37 485.62 75.42 486.53 76.23 487.37 77.08 488.16 77.98 488.87 78.96 489.59 79.92 490.52 80.7 491.42 81.49 491.99 82.59 492.91 83.38 493.67 84.3 494.39 85.27 495.48 85.89 496.16 86.89 496.99 87.76 497.83 88.61 498.28 89.82 499.33 90.49 500.04 91.46 501.13 92.1 501.78 93.12 502.33 94.25 503.45 94.85 504.25 95.74 504.95 96.73 505.52 97.83 506.3 98.74 507.49 99.29 508.38 100.1 509.14 101.03 509.64 102.2 510.49 103.05 511.44 103.8 512.11 104.81 512.92 105.71 513.92 106.42 514.82 107.22 515.54 108.18 516 109.38 516.99 110.11 518.04 110.77 518.5 111.98 519.28 112.88 520.33 113.55 521.16 114.42 521.98 115.29 522.56 116.38 523.42 117.22 524.42 117.93 524.86 119.15 526.04 119.69 526.8 120.63 527.42 121.68 528.12 122.66 529.02 123.45 529.8 124.36 530.5 125.33 531.25 126.26 532.35 126.87 532.92 127.96 533.62 128.94 534.91 129.38 535.4 130.54 536.3 131.34 536.8 132.49 537.59 133.38 538.9 133.81 539.22 135.13 540.47 135.6 540.89 136.84 541.81 137.61 542.93 138.2 543.27 139.5 544 140.46 545.32 140.87 546.08 141.79 546.8 142.75 547.58 143.65 548.05 144.84 548.86 145.72 549.73 146.54 550.85 147.14 551.67 148.01 552.48 148.89 553.11 149.93 553.77 150.95 554.58 151.84 555.53 152.59 556.46 153.36 557.08 154.41 558.19 155.03 558.98 155.93 559.73 156.88 560.49 157.8 561.25 158.74 561.76 159.9 562.61 160.75 563.73 161.36 564.13 162.61 564.94 163.51 566.04 164.13 566.52 165.31 567.78 165.79 568.59 166.67 569.15 167.79 570.07 168.57 571.04 169.31 571.6 170.42 572.66 171.08 572.99 172.39 574.31 172.81 574.57 174.19 575.75 174.74 576.29 175.86 577.24 176.62 577.83 177.7 578.65 178.57 579.57 179.35 580.43 180.19 581.34 180.98 582.26 181.76 583.12 182.6 583.54 183.83 584.5 184.58 585.5 185.29 585.91 186.53 586.91 187.24 587.88 187.98 588.43 189.1 589.56 189.7 590.05 190.87 590.81 191.8 591.62 192.69 592.34 193.66 593.2 194.5 594.05 195.36 594.97 196.15 595.97 196.86 596.4 198.1 597.18 199.01 598.12 199.78 599.27 200.37 599.87 201.45 600.45 202.54 601.2 203.48 601.98 204.39 603.15 204.95 603.92 205.87 604.61 206.87 605.18 207.97 606.15 208.71 607.14 209.44 607.89 210.37 608.59 211.36 609.45 212.19 610.4 212.95 611.23 213.82 611.83 214.89 612.72 215.72 613.73 216.42 614.07 217.73 615.15 218.38 615.73 219.47 616.7 220.22 617.39 221.22 618.52 221.82 619.28 222.76 619.83 223.89 621.01 224.44 621.6 225.53 622.5 226.34 623.35 227.18 623.87 228.34 625.03 228.91 625.71 229.91 626.34 230.96 627.42 231.6 628.25 232.48 628.7 233.7 629.82 234.3 630.59 235.22 631.13 236.36 632.16 237.06 632.78 238.12 633.74 238.88 634.41 239.89 635.24 240.76 636.12 241.59 636.71 242.68 637.53 243.56 638.59 244.22 639.27 245.23 640.17 246.04 641.04 246.88 641.76 247.85 642.5 248.8 643.47 249.55 644.28 250.45 645.05 251.37 645.63 252.47 646.65 253.16 647.24 254.25 648 255.18 648.97 255.91 649.95 256.64 650.73 257.55 651.29 258.66 652.38 259.29 653.27 260.11 653.66 261.38 654.68 262.07 655.71 262.76 656.17 263.98 657.03 264.82 657.84 265.72 658.98 266.31 659.31 267.64 660.29 268.37 661.16 269.2 662.18 269.9 662.82 270.95 663.53 271.93 664.59 272.6 665.38 273.52 665.95 274.62 666.57 275.69 667.45 276.52 668.16 277.5 669.42 277.99 670.15 278.96 670.82 279.99 671.53 280.97 672.67 281.57 673.16 282.75 674.26 283.39 674.71 284.62 675.92 285.14 676.57 286.19 677.37 287.1 678.06 288.1 679.04 288.84 679.58 289.97 680.75 290.54 681.46 291.53 682.15 292.54 682.83 293.56 683.98 294.15 684.71 295.13 685.65 295.9 686.05 297.18 686.96 297.99 687.77 298.91 689.03 299.78 687.55 299.86 686.35 299.89 685.16 299.74 683.96 300 682.76 299.78 681.56 300.01 680.36 299.72 679.16 299.35 677.96 299.56 676.77 299.39 675.57 299.49 674.37 299.84 673.17 299.46 671.98 300.02 670.78 299.49 669.58 299.98 668.39 299.47 667.19 299.45 665.99 299.82 664.79 299.34 663.6 299.42 662.4 299.35 661.2 299.71 660.01 299.55 658.81 299.79 657.61 299.52 656.41 299.93 655.22 300.04 654.02 299.78 652.82 299.76 651.62 299.89 650.42 299.87 649.23 299.32 648.03 299.41 646.83 299.77 645.63 299.97 644.43 299.39 643.23 299.45 642.03 299.57 640.84 299.9 639.64 299.73 638.45 300 637.25 299.88 636.06 299.91 634.86 299.61 633.67 299.81 632.47 299.56 631.28 299.43 630.08 299.92 628.89 299.42 627.7 299.45 626.5 299.89 625.31 299.62 624.12 299.49 622.93 299.84 621.73 299.75 620.54 299.72 619.35 299.96 618.15 299.36 616.96 299.62 615.76 299.63 614.57 299.72 613.38 299.46 612.18 300 610.99 299.69 609.79 300 608.6 299.7 607.4 299.74 606.2 299.39 605.01 299.4 603.81 299.94 602.61 299.59 601.41 299.75 600.21 299.5 599.01 299.99 597.81 299.39 596.61 299.34 595.41 299.83 594.21 300.04 593.02 299.97 591.82 299.92 590.62 299.7 589.43 299.86 588.23 299.91 587.03 300.03 585.84 299.96 584.64 299.39 583.44 299.71 582.25 299.91 581.05 299.75 579.86 299.49 578.66 299.62 577.46 299.77 576.27 299.86 575.07 299.45 573.87 299.45 572.67 300 571.47 299.63 570.28 299.72 569.08 299.9 567.88 299.41 566.67 299.86 565.47 299.79 564.27 299.48 563.07 299.37 561.87 299.97 560.68 299.66 559.48 299.46 558.28 299.48 557.08 299.75 555.88 300.03 554.69 299.58 553.49 299.39 552.29 299.86 551.09 299.99 549.89 299.86 548.69 299.89 547.49 299.56 546.29 300.02 545.09 299.75 543.89 299.87 542.69 299.92 541.49 299.3 540.29 299.93 539.09 299.5 537.89 299.75 536.69 299.75 535.49 299.6 534.29 299.58 533.09 299.48 531.89 299.78 530.69 299.99 529.49 299.8 528.29 299.9 527.08 299.72 525.88 299.91 524.68 299.4 523.48 299.91 522.28 299.98 521.08 299.47 519.88 299.32 518.68 299.8 517.48 299.48 516.28 299.99 515.08 299.31 513.87 299.71 512.67 300.03 511.47 299.83 510.27 299.87 509.07 299.91 507.87 299.75 506.67 299.48 505.47 299.45 504.27 299.46 503.07 299.74 501.87 299.33 500.68 299.58 499.48 299.58 498.28 299.64 497.08 299.56 495.87 299.55 494.67 299.46 493.47 299.54 492.27 299.91 491.07 300.04 489.87 299.94 488.67 299.67 487.46 299.74 486.26 299.46 485.06 299.56 483.86 299.55 482.65 299.89 481.45 299.57 480.24 299.35 479.04 299.97 477.83 300 476.63 299.46 475.43 299.98 474.23 299.89 473.02 299.54 471.82 299.81 470.61 299.46 469.41 299.71 468.2 300.03 467 299.54 465.79 299.84 464.58 300.02 463.37 300 462.16 299.93 461.08 299.37 459.91 298.99 459.09 298.13 458.39 297.14 457.74 296.11 456.73 295.41 455.9 294.54 455.39 293.39 454.67 292.43 453.68 291.71 453.14 290.58 452.26 289.77 451.53 288.81 450.49 288.14 449.93 287.03 449.12 286.15 447.98 285.56 447.45 284.43 446.3 283.84 445.47 282.99 445.07 281.73 443.81 281.25 443.08 280.29 442.58 279.13 441.76 278.25 440.85 277.46 440.14 276.48 439.1 275.8 438.38 274.84 437.48 274.03 436.54 273.26 436.03 272.11 435.21 271.22 434.48 270.27 433.79 269.27 432.53 268.79 431.99 267.67 431.38 266.61 430.57 265.72 429.3 265.26 429 263.9 428.22 262.99 426.96 262.52 426.36 261.44 425.33 260.76 424.53 259.87 423.77 258.94 422.86 258.14 422.47 256.88 421.48 256.16 420.46 255.47 419.92 254.34 418.95 253.6 418.21 252.66 417.31 251.87 416.92 250.61 415.88 249.95 415.25 248.91 414.12 248.32 413.55 247.23 412.82 246.29 412.09 245.34 411.31 244.44 410.05 243.97 409.68 242.69 408.85 241.84 407.73 241.25 407.02 240.27 406.07 239.53 405.4 238.53 404.42 237.8 403.69 236.85 403.25 235.65 402.43 234.77 401.52 233.99 400.62 233.2 399.68 232.44 399.09 231.36 398.46 230.32 397.4 229.67 396.89 228.52 395.85 227.85 394.89 227.11 394.02 226.28 393.37 225.25 392.51 224.42 391.75 223.49 390.94 222.61 390.41 221.48 389.3 220.86 388.87 219.63 387.69 219.09 386.96 218.12 386.44 216.97 385.21 216.47 384.39 215.59 383.8 214.5 383.17 213.45 381.94 212.94 381.14 212.05 380.44 211.06 379.67 210.14 378.99 209.14 377.89 208.51 377.42 207.32 376.38 206.64 375.76 205.59 374.76 204.87 374.13 203.83 373.55 202.74 372.26 202.29 371.61 201.26 370.85 200.34 369.9 199.58 369.07 198.72 368.42 197.7 367.46 196.95 366.72 196.01 366.3 194.77 365.3 194.06 364.53 193.14 363.83 192.16 362.75 191.53 362.01 190.58 361.18 189.72 360.65 188.58 359.8 187.73 358.67 187.14 357.98 186.14 357.5 184.97 356.4 184.34 355.69 183.37 354.97 182.4 353.74 181.89 353.44 180.54 352.58 179.7 351.32 179.22 350.83 178.03 349.93 177.22 349.14 176.31 348.37 175.39 347.78 174.31 346.74 173.62 345.9 172.76 345 171.96 344.37 170.91 343.37 170.19 342.82 169.07 341.64 168.53 340.83 167.64 340.34 166.46 339.34 165.75 338.43 164.96 337.66 164.04 337.12 162.9 336.46 161.89 335.32 161.3 334.63 160.3 333.67 159.55 333.21 158.35 332.28 157.57 331.29 156.84 330.51 155.93 329.55 155.17 328.75 154.27 328.38 152.98 327.13 152.49 326.69 151.26 325.86 150.39 324.7 149.82 324.19 148.66 323.2 147.93 322.38 147.06 321.71 146.04 320.87 145.18 320.02 144.33 319.41 143.27 318.64 142.34 317.47 141.77 317.12 140.47 316.07 139.79 315.48 138.7 314.49 137.98 313.48 137.26 312.84 136.22 312.16 135.21 311.05 134.59 310.67 133.32 309.59 132.67 309 131.58 307.88 130.97 307.29 129.88 306.31 129.14 305.61 128.16 304.8 127.26 304.22 126.16 303.02 125.63 302.43 124.53 301.42 123.82 300.45 123.08 299.98 121.89 299.12 121.05 298.16 120.3 297.34 119.43 296.57 118.51 296.1 117.32 295.02 116.68 294.39 115.63 293.22 115.07 292.63 113.98 291.62 113.28 291.03 112.18 290.24 111.27 289.31 110.49 288.57 109.53 287.68 108.71 287.02 107.68 285.96 107.02 285.29 106 284.67 104.94 283.52 104.36 282.96 103.24 282.14 102.36 281.38 101.42 280.42 100.66 279.79 99.6 278.72 98.95 278.21 97.78 277.2 97.07 276.58 96 275.73 95.14 274.67 94.47 273.78 93.64 273.42 92.34 272.55 91.5 271.69 90.65 270.62 89.99 270.14 88.79 269.2 88.01 268.29 87.21 267.83 85.99 266.65 85.44 265.95 84.44 265.06 83.62 264.49 82.5 263.26 81.97 262.56 80.98 261.83 80.01 261.33 78.83 260.17 78.24 259.31 77.38 258.65 76.33 258.02 75.55"/>
      <polygon class="cls-1" points="129.02 299.31 129.69 298.31 130.15 297.19 131.14 296.37 131.51 295.2 132.24 294.25 132.78 293.17 133.47 292.18 133.64 290.9 134.33 289.91 134.79 288.8 135.81 288 136.04 286.75 137.1 285.98 137.63 284.9 137.77 283.59 138.75 282.77 139 281.53 140.03 280.75 140.25 279.49 141.12 278.61 141.88 277.66 142.17 276.44 142.73 275.38 143.13 274.23 143.82 273.24 144.87 272.46 145.36 271.36 145.78 270.21 146.1 269.01 146.85 268.05 147.6 267.1 148.27 266.1 148.94 265.1 149.61 264.1 150.09 262.99 150.74 261.98 151.12 260.81 151.56 259.68 152.27 258.71 153.16 257.83 153.46 256.62 154 255.55 155.03 254.76 155.12 253.43 155.92 252.51 156.6 251.52 157.46 250.64 157.56 249.32 158.58 248.52 159.19 247.49 159.21 246.12 160.3 245.36 161.03 244.4 161.09 243.06 161.9 242.14 162.55 241.13 163.11 240.07 163.83 239.1 164.22 237.93 165.21 237.12 165.47 235.88 165.81 234.69 166.94 233.95 166.99 232.6 167.7 231.63 168.42 230.66 168.8 229.49 169.95 228.77 170.38 227.64 170.61 226.39 171.53 225.54 171.82 224.32 172.8 223.5 173.1 222.3 174.12 221.51 174.15 220.14 175.29 219.42 175.92 218.4 176.1 217.12 177.12 216.33 177.55 215.2 178.09 214.13 178.93 213.23 179.2 212.01 179.62 210.87 180.69 210.11 181.29 209.07 181.62 207.88 182.19 206.82 182.58 205.67 183.32 204.71 183.89 203.65 184.57 202.66 184.94 201.49 185.76 200.58 186.12 199.41 187.32 198.71 187.54 197.45 188.25 196.47 188.94 195.48 189.33 194.31 190.17 193.41 190.64 192.3 191.52 191.42 191.64 190.1 192.55 189.24 193.31 188.29 193.81 187.2 194.01 185.93 194.55 184.86 195.15 183.82 196.18 183.03 196.26 181.69 197.11 180.79 198.03 179.94 198.57 178.87 199.02 177.75 199.77 176.79 200.36 175.75 201.05 174.76 201.63 173.71 201.91 172.48 202.78 171.6 203.08 170.39 203.99 169.52 204.07 168.18 204.64 167.12 205.53 166.24 205.86 165.04 206.73 164.16 207.27 163.08 208.03 162.14 208.8 161.19 208.88 159.85 209.74 158.96 210.41 157.96 211.16 157.01 211.47 155.8 211.89 154.66 212.66 153.71 213.04 152.54 213.71 151.54 214.83 150.8 214.96 149.49 215.59 148.46 216.56 147.63 216.8 146.37 217.62 145.46 218.22 144.42 218.7 143.31 219.26 142.24 219.67 141.09 220.57 140.22 221.21 139.21 221.75 138.13 222.52 137.18 223.14 136.15 223.85 135.17 224.11 133.93 224.46 132.74 225.08 131.71 226.24 130.99 226.3 129.64 227.31 128.83 227.87 127.77 228.23 126.58 228.99 125.63 229.35 124.45 230.45 123.7 230.88 122.56 231.47 121.52 232.26 120.59 232.23 119.19 232.92 118.2 233.45 117.11 234.41 116.27 234.99 115.22 235.42 114.08 235.85 112.94 236.64 112.01 237.02 110.84 238.12 110.09 238.78 109.08 239.03 107.84 239.96 106.98 240.51 105.91 241.01 104.8 241.71 103.82 242.28 102.76 242.65 101.58 243.45 100.65 244.26 99.72 244.7 98.59 245.04 97.39 245.52 96.27 246.65 95.53 247.12 94.41 247.38 93.17 247.94 92.1 248.65 91.11 249.1 89.98 249.81 89 250.79 88.17 251.43 87.15 251.68 85.9 252.68 85.08 253.27 84.03 253.71 82.89 254.49 81.94 254.63 80.62 255.61 79.79 255.81 78.52 256.83 77.7 257.12 76.46 257.96 75.37 256.61 75.56 255.41 75.68 254.22 75.14 253.02 75.8 251.83 75.54 250.63 75.52 249.44 75.67 248.24 75.29 247.04 75.41 245.85 75.51 244.65 75.82 243.46 75.59 242.26 75.22 241.07 75.59 239.87 75.78 238.68 75.3 237.48 75.25 236.28 75.44 235.09 75.39 233.89 75.66 232.7 75.09 231.5 75.43 230.3 75.21 229.11 75.64 227.91 75.48 226.71 75.58 225.51 75.79 224.32 75.2 223.12 75.68 221.92 75.37 220.72 75.69 219.52 75.52 218.33 75.82 217.13 75.24 215.93 75.77 214.74 75.65 213.54 75.55 212.34 75.79 211.15 75.82 209.95 75.28 208.75 75.57 207.56 75.5 206.36 75.59 205.16 75.72 203.97 75.37 202.77 75.82 201.57 75.44 200.38 75.28 199.18 75.47 197.99 75.57 196.79 75.73 195.59 75.77 194.4 75.22 193.2 75.58 192 75.55 190.8 75.37 189.61 75.81 188.41 75.57 187.21 75.8 186.01 75.21 184.81 75.15 183.61 75.8 182.42 75.34 181.22 75.46 180.02 75.53 178.83 75.34 177.63 75.69 176.44 75.63 175.24 75.7 174.05 75.74 172.86 75.32 171.66 75.13 170.47 75.77 169.28 75.16 168.08 75.37 166.89 75.32 165.7 75.56 164.51 75.26 163.31 75.25 162.12 75.2 160.93 75.33 159.74 75.43 158.54 75.57 157.35 75.63 156.16 75.31 154.97 75.13 153.77 75.23 152.58 75.24 151.38 75.27 150.19 75.41 149 75.44 147.8 75.72 146.61 75.31 145.41 75.64 144.21 75.34 143.02 75.36 141.82 75.24 140.62 75.33 139.42 75.69 138.22 75.24 137.02 75.11 135.82 75.51 134.63 75.39 133.43 75.37 132.23 75.26 131.03 75.25 129.84 75.7 128.64 75.37 127.45 75.24 126.25 75.17 125.05 75.5 123.86 75.26 122.66 75.29 121.47 75.17 120.27 75.34 119.08 75.66 117.88 75.33 116.69 75.22 115.49 75.28 114.29 75.35 113.1 75.66 111.9 75.56 110.7 75.24 109.5 75.23 108.3 75.33 107.1 75.28 105.9 75.39 104.7 75.39 103.5 75.29 102.31 75.4 101.11 75.1 99.91 75.82 98.71 75.36 97.51 75.7 96.32 75.36 95.12 75.67 93.92 75.4 92.73 75.17 91.53 75.63 90.33 75.69 89.13 75.59 87.93 75.09 86.73 75.34 85.53 75.61 84.33 75.63 83.13 75.79 81.93 75.5 80.73 75.09 79.53 75.46 78.33 75.19 77.14 75.63 75.94 75.72 74.74 75.62 73.54 75.08 72.34 75.77 71.14 75.58 69.94 75.36 68.74 75.62 67.54 75.62 66.34 75.65 65.14 75.14 63.94 75.13 62.74 75.52 61.54 75.24 60.34 75.25 59.14 75.18 57.94 75.75 56.74 75.68 55.54 75.13 54.33 75.18 53.13 75.73 51.93 75.62 50.73 75.72 49.53 75.78 48.33 75.1 47.13 75.57 45.93 75.71 44.73 75.44 43.54 75.79 42.34 75.68 41.14 75.37 39.94 75.66 38.75 75.11 37.55 75.57 36.35 75.13 35.14 75.43 33.94 75.35 32.74 75.15 31.54 75.76 30.34 75.8 29.14 75.8 27.94 75.46 26.74 75.57 25.54 75.71 24.33 75.57 23.13 75.42 21.93 75.28 20.73 75.55 19.52 75.19 18.32 75.68 17.12 75.47 15.91 75.64 14.71 75.09 13.51 75.58 12.3 75.73 11.1 75.49 9.9 75.5 8.69 75.15 7.49 75.47 6.28 75.35 5.08 75.21 3.87 75.77 2.66 75.65 1.45 75.47 0 75.31 .92 76.45 1.49 77.5 1.78 78.72 2.55 79.66 3.39 80.56 3.96 81.62 4.41 82.74 4.92 83.83 5.67 84.78 6.43 85.73 6.81 86.89 7.37 87.95 8.14 88.89 8.58 90.02 8.95 91.19 10.06 91.94 10.15 93.27 11.27 94 11.69 95.15 11.89 96.42 12.87 97.24 13.15 98.46 13.79 99.48 14.54 100.43 15.48 101.27 15.79 102.48 16.34 103.55 17.3 104.38 17.62 105.58 18.34 106.56 18.79 107.68 19.38 108.73 19.99 109.76 20.77 110.7 20.94 111.99 21.95 112.79 22.22 114.02 23.15 114.87 23.52 116.04 24.25 117 24.99 117.96 25.17 119.24 26.22 120.02 26.32 121.35 27.03 122.32 28.08 123.09 28.67 124.13 28.85 125.41 29.83 126.22 29.94 127.54 30.81 128.42 31.48 129.42 32.2 130.39 32.39 131.66 33.35 132.49 33.81 133.61 34.01 134.88 34.79 135.82 35.61 136.73 35.84 137.99 36.58 138.94 37.44 139.84 37.94 140.94 38.31 142.1 38.8 143.21 39.39 144.25 40.61 144.93 40.87 146.17 41.64 147.1 42.07 148.23 42.79 149.21 43.02 150.45 43.61 151.49 44.26 152.5 44.84 153.55 46 154.26 46.01 155.63 46.83 156.54 47.42 157.58 47.96 158.65 48.62 159.65 48.98 160.82 49.94 161.65 50.14 162.91 50.93 163.84 51.53 164.87 52.02 165.97 52.99 166.8 53.13 168.1 53.8 169.09 54.39 170.14 55.05 171.14 55.58 172.22 56.26 173.21 57.35 173.97 57.78 175.11 58.33 176.17 58.71 177.34 59.18 178.46 59.88 179.45 60.66 180.38 61.12 181.5 61.87 182.46 62.44 183.52 63.31 184.41 63.84 185.48 64.14 186.7 64.71 187.75 65.24 188.83 66.05 189.75 66.38 190.94 66.98 191.98 67.85 192.86 68.08 194.11 69.2 194.85 69.81 195.88 69.88 197.22 70.78 198.09 71.35 199.15 72.19 200.05 72.65 201.17 72.94 202.38 73.58 203.41 74.23 204.42 74.94 205.4 75.51 206.46 75.87 207.64 76.62 208.59 77.7 209.36 78.08 210.53 78.48 211.69 79.01 212.77 79.91 213.64 80.27 214.81 80.89 215.84 81.47 216.89 81.88 218.04 82.62 219 83.07 220.13 83.95 221.01 84.49 222.09 85.14 223.1 85.82 224.09 86.5 225.09 86.87 226.27 87.44 227.33 88.14 228.32 88.52 229.49 89.44 230.34 89.83 231.51 90.66 232.42 91.16 233.51 91.63 234.63 92.1 235.75 92.82 236.72 93.25 237.86 93.88 238.89 94.65 239.84 95.25 240.88 95.87 241.91 96.47 242.95 97.24 243.9 97.74 245 98.22 246.11 98.91 247.1 99.63 248.08 100.37 249.04 100.68 250.25 101.61 251.1 101.72 252.42 102.64 253.27 103.31 254.27 103.75 255.4 104.34 256.45 105.15 257.37 105.44 258.6 106.2 259.55 107.08 260.43 107.67 261.48 108.17 262.57 108.26 263.91 109.18 264.77 109.66 265.87 110.62 266.71 110.98 267.89 111.66 268.9 112.46 269.83 112.65 271.11 113.16 272.2 113.98 273.12 114.44 274.24 114.94 275.35 115.47 276.44 116.48 277.25 116.96 278.36 117.49 279.45 118.08 280.5 118.8 281.48 119.26 282.61 119.66 283.77 120.78 284.52 121.45 285.52 121.98 286.61 122.39 287.76 123.29 288.63 123.43 289.95 124.2 290.9 125.08 291.79 125.7 292.83 126.26 293.9 126.92 294.92 126.89 296.33 127.96 297.12 128.29 298.33 129.02 299.31"/>
      <polygon class="cls-6" points="575.97 187.5 576.13 188.71 575.84 189.91 575.49 191.11 575.56 192.32 575.42 193.52 575.53 194.72 575.55 195.93 575.46 197.13 576.04 198.34 575.51 199.54 576.04 200.74 575.71 201.94 576.1 203.14 575.64 204.34 575.62 205.55 576.06 206.75 575.36 207.95 575.69 209.15 575.37 210.35 575.66 211.56 575.96 212.76 575.36 213.97 575.82 215.17 575.72 216.38 575.96 217.58 575.43 218.78 575.45 219.99 575.75 221.19 575.77 222.4 575.57 223.6 575.39 224.8 575.45 226 575.52 227.21 575.61 228.41 575.79 229.62 575.85 230.82 575.73 232.03 575.74 233.23 575.83 234.44 576.02 235.64 575.88 236.85 575.74 238.05 575.87 239.25 575.47 240.46 575.83 241.66 575.37 242.87 575.61 244.08 575.52 245.28 575.34 246.48 575.4 247.69 575.68 248.89 575.5 250.1 575.91 251.31 575.38 252.51 575.92 253.72 575.94 254.92 575.73 256.12 575.73 257.32 575.35 258.52 575.46 259.72 575.45 260.93 575.95 262.13 575.57 263.33 575.73 264.54 575.69 265.75 575.75 266.95 575.89 268.16 575.46 269.36 575.29 270.56 575.92 271.77 575.43 272.98 575.8 274.19 575.61 275.39 575.59 276.6 575.21 277.8 575.16 279.01 575.39 280.22 575.23 281.43 575.73 282.64 575.22 283.84 575.62 285.05 575.27 286.26 575.86 287.47 575.15 288.67 575.23 289.88 575.31 291.09 575.45 292.3 575.25 293.51 575.49 294.72 575.78 295.93 575.23 297.14 575.31 298.36 575.48 299.57 575.78 299.35 576.99 299.93 578.19 299.87 579.38 299.21 580.61 299.81 581.79 299.21 582.99 299.14 584.19 299.08 585.41 299.25 586.59 298.96 587.77 298.71 588.97 298.55 590.17 298.5 591.35 298.25 592.54 298.05 593.82 298.46 594.94 297.82 596.11 297.53 597.25 297.11 598.56 297.5 599.69 297.01 600.8 296.45 602.05 296.5 603.19 296.12 604.44 296.11 605.45 295.26 606.61 294.93 607.93 295.14 608.97 294.42 610.12 294.08 611.31 293.83 612.54 293.68 613.55 292.94 614.61 292.34 615.91 292.36 616.98 291.78 618.16 291.48 619.09 290.59 620.35 290.47 621.41 289.87 622.42 289.19 623.6 288.87 624.77 288.52 625.71 287.7 626.63 286.85 627.73 286.36 628.9 286 630.05 285.6 630.88 284.62 631.86 283.9 632.95 283.4 634.09 282.96 635.15 282.37 636.12 281.66 636.95 280.74 637.94 280.06 639.13 279.67 639.91 278.69 641.02 278.16 642.04 277.52 642.87 276.63 644 276.12 645.13 275.61 645.81 274.54 646.76 273.8 647.52 272.83 648.58 272.22 649.56 271.52 650.26 270.49 651.16 269.7 652.31 269.17 652.94 268.09 654.1 267.55 654.91 266.66 655.48 265.53 656.27 264.62 657.32 263.96 658.11 263.06 659.09 262.32 659.97 261.48 660.48 260.33 661.39 259.53 662.12 258.56 663.04 257.76 663.41 256.52 664.62 255.93 664.93 254.66 665.9 253.88 666.24 252.64 667.02 251.71 667.93 250.89 668.51 249.82 669.5 249.04 669.75 247.76 670.55 246.85 671.49 246.01 671.84 244.81 672.12 243.58 672.99 242.69 673.6 241.66 674.01 240.51 675.06 239.71 675.3 238.47 675.6 237.28 676.27 236.27 676.8 235.19 677.49 234.18 677.63 232.92 678.1 231.82 679.17 230.97 679.11 229.64 679.6 228.55 680.1 227.45 680.44 226.3 680.89 225.18 681.23 224.03 681.85 222.97 682.63 221.96 682.82 220.75 683.15 219.59 683.22 218.36 683.69 217.24 683.72 216 684.55 214.98 684.27 213.67 684.69 212.53 685.4 211.46 685.2 210.18 685.87 209.09 685.94 207.88 685.87 206.64 685.98 205.44 686.53 204.31 686.41 203.08 686.71 201.91 687.07 200.74 687.33 199.55 687.09 198.32 687.61 197.15 687.19 195.91 687.78 194.75 687.73 193.53 687.45 192.31 687.76 191.12 687.57 189.91 687.67 188.71 687.52 187.5 687.48 186.3 687.37 185.1 687.49 183.9 687.52 182.69 687.56 181.48 687.29 180.3 687.59 179.07 687.09 177.9 687.12 176.69 687.21 175.47 686.87 174.3 687.1 173.05 686.77 171.88 686.38 170.72 685.98 169.56 686.3 168.29 685.88 167.14 685.57 165.97 685.61 164.73 684.85 163.66 684.75 162.45 684.54 161.26 684.26 160.09 684.24 158.85 684.02 157.66 683.69 156.49 683.05 155.43 682.56 154.32 682.12 153.19 681.76 152.05 681.32 150.93 681.23 149.68 680.66 148.61 680.32 147.45 680.05 146.26 679.39 145.22 678.9 144.13 678.71 142.89 677.87 141.95 677.76 140.67 676.73 139.83 676.41 138.64 676.18 137.41 675.01 136.66 675.04 135.28 674.25 134.33 673.72 133.25 672.83 132.37 672.4 131.23 671.8 130.19 670.85 129.36 670.71 128.03 669.97 127.07 669.15 126.17 668.3 125.29 667.59 124.32 667.1 123.2 666.79 121.94 665.67 121.26 664.78 120.43 664.22 119.34 663.38 118.48 662.6 117.57 662.11 116.41 661.56 115.3 660.34 114.76 659.49 113.9 658.73 112.98 658 112.01 657.45 110.88 656.69 109.93 655.67 109.25 654.58 108.63 653.72 107.8 653.1 106.71 651.98 106.14 651.4 105 650.66 104.02 649.41 103.61 648.59 102.73 647.59 102.04 646.74 101.19 645.76 100.49 645.12 99.36 643.8 99.09 642.84 98.36 642.08 97.38 640.9 96.95 640.28 95.75 639 95.47 638.03 94.77 637.05 94.07 635.91 93.62 634.92 92.95 634.05 92.07 633.2 91.14 631.94 90.91 631.07 90.01 630.01 89.44 628.86 89.03 627.81 88.43 626.72 87.93 625.67 87.33 624.46 87.07 623.5 86.3 622.46 85.68 621.21 85.52 620.18 84.87 619.18 84.16 617.96 83.96 616.96 83.21 615.76 82.97 614.73 82.3 613.5 82.15 612.43 81.58 611.3 81.14 610.13 80.85 608.95 80.59 607.73 80.48 606.7 79.73 605.58 79.25 604.41 78.95 603.1 79.22 602.07 78.35 600.87 78.2 599.65 78.15 598.49 77.8 597.33 77.47 596.15 77.2 595.01 76.78 593.81 76.64 592.55 76.85 591.42 76.26 590.2 76.28 588.97 76.43 587.81 76.03 586.58 76.18 585.37 76.22 584.23 75.47 583.01 75.58 581.82 75.31 580.6 75.5 579.4 75.34 578.19 75.73 576.99 75.44 575.83 75.45 576 76.64 575.76 77.84 575.65 79.04 576.06 80.25 575.7 81.45 576.02 82.66 575.48 83.86 575.76 85.06 575.74 86.27 575.77 87.47 575.62 88.67 575.64 89.87 575.89 91.07 575.69 92.28 575.53 93.48 576.08 94.68 575.5 95.88 575.44 97.08 575.96 98.29 575.81 99.49 576.11 100.69 576.08 101.9 575.44 103.1 575.44 104.31 575.77 105.51 576.03 106.72 575.97 107.92 575.42 109.12 575.59 110.33 575.79 111.53 575.74 112.73 575.95 113.94 575.65 115.14 575.81 116.34 575.87 117.55 575.82 118.75 576.15 119.96 575.96 121.16 575.82 122.37 575.5 123.57 576.06 124.78 575.47 125.98 575.61 127.18 575.49 128.39 575.42 129.59 575.53 130.8 575.98 132.01 575.94 133.21 575.74 134.42 576.07 135.62 575.71 136.83 576.03 138.03 575.58 139.24 575.65 140.44 575.51 141.65 575.55 142.85 576.15 144.05 575.62 145.25 575.5 146.45 576.15 147.65 576 148.86 575.9 150.06 575.7 151.27 575.91 152.47 575.46 153.68 575.43 154.88 575.66 156.09 575.61 157.29 575.42 158.5 575.87 159.7 575.81 160.91 576.09 162.12 575.84 163.32 575.42 164.53 575.92 165.74 575.43 166.94 576.05 168.15 576.07 169.36 575.53 170.57 575.93 171.78 576.15 172.98 575.4 174.19 575.48 175.4 575.99 176.6 575.43 177.81 575.95 179.02 575.64 180.23 575.64 181.44 575.67 182.65 575.81 183.86 575.46 185.07 575.95 186.27 575.97 187.5"/>
      <path class="cls-10" d="M353.78,246.7l1.2-.4.59-1.24,1.15-.46,1.21-.38.93-.76.95-.74,1.02-.65.88-.84,1.02-.65.8-.94,1.19-.41.78-.98.98-.7.92-.79,1.22-.36.63-1.18,1.38-.14.83-.91,1.03-.64.72-1.06.94-.76,1.21-.39,1.02-.64.7-1.09,1.08-.55,1.16-.45.95-.75,1.07-.58.68-1.11,1.27-.29.86-.86.96-.73.87-.86.87-.85.96-.73,1.35-.18.97-.71.62-1.2,1.04-.62,1.2-.4.87-.86.83-.91,1.1-.53,1.25-.33.96-.72.79-.96.83-.91.95-.74,1.34-.2.97-.71.72-1.06.95-.74,1.25-.32.61-1.22,1.36-.18.93-.78.96-.73.91-.8.95-.74.98-.7.97-.71.77-.99,1.19-.41,1.12-.5.61-1.21,1.16-.45.93-.76.84-.89,1.23-.35.87-.86.99-.69.91-.8,1.26-.31.64-1.18,1.19-.41.95-.74.94-.76.9-.81.83-.9,1.1-.54,1.16-.45,1-.67.68-1.12,1.31-.24.68-1.12.92-.78.94-.75,1.38-.15.74-1.04,1.08-.56,1.07-.58.85-.88,1.12-.51.82-.92,1.2-.4.66-1.14,1.12-.5.73-1.04,1.18-.43.89-.83,1.24-.34.79-.96.96-.73,1.09-.54.71-1.08,1.01-.65,1.23-.35.95-.74,1.1-.53.74-1.03.8-.95,1.28-.35.22-1.28.43-1.06.62-1.11-.07-1.23-.31-1.19-.86-.91-.65-.92-.84-.81-1.1-.59-1.28-.08-1.15.52-1.19.5.03.07.05.28-1.21.23-1.03.65-1.07.56-1.05.59-1.08.53-1.26.14-1.12.43-1.16.36-.86,1-1.02.64-1.29.1-.95.78-1.13.42-.95.78-1.3.09-1.04.6-.91.86-1,.67-1.14.41-.98.71-1.11.47-1.13.43-.91.83-1.13.44-1.12.46-1.12.46-.82.98-1.35.07-.97.72-.75,1.08-1.14.43-.97.72-1.31.17-.73,1.11-1.27.23-.72,1.12-1.34.13-.96.72-.72,1.1-1.37.1-.79.99-1.1.52-1.09.53-.94.75-1,.67-.86.87-.91.79-1.13.47-.89.83-1.04.61-.99.68-.82.91-.97.71-1.34.2-.8.94-1.07.57-.67,1.1-.9.8-1.19.41-.98.69-.8.93-1.15.47-.65,1.12-1.02.64-1.14.5-.93.76-.69,1.05-.87.83-1.24.37-.69,1.05-1.14.5-1.11.54-.51,1.27-1.31.31-.49,1.29-1.14.51-.89.81-1.09.57-.68,1.06-1.12.54-.74.97-1.01.66-.74.97-.76.95-1.02.66-.77.94-1.04.64-.94.75-.73.98-1.32.34-.73.98-1.05.63-.73.98-.93.76-.85.85-.93.76-.56,1.16-1.24.43-.59,1.12-1.16.52-.43,1.29-1.18.51-.86.83-.95.74-.85.85-.59,1.11-1.04.66-.68,1.02-.84.86-1.16.54-.72.98-.6,1.1-1.22.45-.61,1.17-1.1.53-.83.9-1.06.57-1.2.38-1.03.62-.56,1.27-1.19.4-1.15.46-.99.68-.85.88-.74,1.02-1.19.4-1.01.64-.91.78-.83.89-.92.77-1.3.24-.9.8-1.04.6-1.01.65-.76.99-1.1.52-.9.8-.92.77-1.03.62-.71,1.06-1.05.59-.91.79-1.24.33-.81.93-1.22.35-.68.84.9-.57.77-.93,1-.69.53-1.19,1.26-.41.88-.81.44-1.28,1.09-.59.79-.91.83-.87.71-.99,1.1-.58.85-.85.97-.71.62-1.09,1.14-.54.69-1.02.77-.92,1.19-.48.57-1.14,1.22-.45.6-1.11,1.23-.45.44-1.27,1.28-.39.44-1.28,1.29-.38.53-1.18,1.02-.66,1.03-.65.84-.85.56-1.15,1.09-.59.9-.79.82-.88.87-.83.82-.87,1.12-.56.47-1.24,1.09-.59.61-1.1,1.01-.67.92-.76,1.08-.6.76-.93.63-1.07.96-.73,1.03-.66.63-1.07.98-.71.67-1.03,1.26-.41.5-1.21.87-.83,1.2-.48.96-.73.76-.94.93-.76.49-1.23,1.29-.38.43-1.29,1.29-.38.74-.96.85-.84.75-.95.85-.85.76-.94.84-.85,1.1-.58.64-1.06,1.05-.63,1.15-.52.6-1.11.74-.96,1.22-.46.61-1.1.88-.81.83-.87.92-.77,1.14-.53.87-.82.57-1.14,1.05-.64.78-.92,1.01-.67.77-.92.82-.88,1.05-.63.7-1,.88-.81.85-.84.71-.99,1.19-.48.86-.84.85-.85.91-.78.74-.96.71-.99,1.22-.45.47-1.24,1.07-.61.88-.82,1.04-.64.64-1.07,1.09-.59.83-.86.57-1.14,1.09-.59.95-.74.86-.83.8-.89.92-.76.7-1.01,1.07-.61.43-1.29.87-.82,1.23-.44.61-1.09.77-.93,1.27-.4.95-.74.49-1.22,1.16-.52.87-.83.52-1.19,1.01-.67.72-.98.87-.82.9-.79.91-.78,1.12-.56.64-1.07.79-.91.99-.7.89-.8.78-.92.94-.75.87-.82,1.15-.53.62-1.09.79-.9.89-.8.96-.73.66-1.05,1.05-.64.75-.95,1.1-.58,1.02-.66.73-.97,1-.69.79-.91.95-.74.89-.8.81-.89.75-.95,1.06-.62.85-.84.77-.93.95-.83.25-1.25-.12-1.19.27-1.19-.27-1.21-1.12-.69-.76-.82-.86-.76-.98-.8-1.23.35-1.21-.13-1.04.61-1.15.4-.93.78-.98.69-1.02.63-.95.75-1.07.54-.99.67-.93.77-1.36.09-.74,1.08-1.29.21-.96.73-.84.91-.92.79-1.12.48-1.21.34-.78,1-1.04.6-1.14.45-.7,1.1-.97.7-1.11.5-1.1.52-1.01.64-.97.7-1.04.6-.7,1.09-1.23.34-.96.71-.9.8-.69,1.08-1.34.21-.6,1.21-1.28.29-1.02.64-.67,1.1-1.28.29-.74,1-.72,1.03-1.09.55-.98.69-.87.59.79-.73.69-1.02.68-1.03,1.17-.6.78-.94.47-1.21,1.16-.61.29-1.36,1.07-.68.86-.87,1-.75.38-1.29.93-.81,1.04-.71.85-.88.75-.97.4-1.27,1.14-.62.6-1.1,1-.77.56-1.14-.45-1.28.4-1.21-.66-1.05-.82-.83-.62-.99-.99-.61-1.06-.55-1.21-.23-1.17.36-1.06.56-1.02.64-.99.7-.95.74-.5,1.22-1.04.64-1.01.67-.63,1.08-1.07.61-.82.88-.58,1.14-.97.71-.89.8-.98.71-.73.98-1.32.34-.83.87-.72.99-.59,1.12-.95.74-.84.86-.98.7-.78.92-1.08.6-.6,1.11-1.03.65-1.16.51-.71,1-.75.95-1,.69-1.02.67-.57,1.14-1.05.64-1.03.65-.87.82-.63,1.08-.86.83-.85.85-1.13.56-.51,1.2-.83.87-1.18.5-.55,1.16-.94.75-.73.97-1.1.58-.89.81-1.04.65-.85.85-.5,1.21-1.17.51-.72.98-1.05.63-.61,1.1-.83.87-.86.84-1.05.64-.99.7-.42,1.28-1.28.4-.54,1.16-1,.69-.98.72-.8.9-.56,1.14-.84.86-.96.73-1.03.66-.89.81-.56,1.14-.93.77-.83.87-1.2.49-.88.82-.7,1-.97.73-.53,1.17-.87.82-.7.99-1.05.65-.8.9-.94.75-.62,1.07-1.1.59-.65,1.04-1.13.57-.84.86-.78.91-1,.69-.6,1.09-.76.93-1.25.44-.47,1.22-1.15.55-.6,1.1-1.14.56-.53,1.16-.75.94-1.22.48-.55,1.14-.69,1.01-.95.75-1.24.47-.42,1.27-.86.84-1.17.54-.77.92-.96.73-.82.88-.59,1.1-1.01.69-.93.77-.56,1.13-1.03.67-.89,1.17.85-1.2,1.06-.69.8-.91.53-1.14,1.13-.63.37-1.27.72-.98.85-.86.9-.82.82-.89.83-.88.72-.98,1.03-.71.54-1.13.94-.78.57-1.11,1.07-.67.37-1.28.96-.77.79-.91,1.06-.68.62-1.06.98-.75.48-1.19.62-1.07,1.13-.62.91-.81.58-1.1,1.09-.65.57-1.11.56-1.12.89-.83.87-.85.73-.97,1.04-.7.51-1.17,1.04-.69.55-1.13,1.17-.57.62-1.07,1.05-.68.46-1.22,1.01-.72.85-.86.87-.84,1.03-.69.44-1.25.86-.86,1.17-.56.38-1.29,1.07-.66.69-1.01.7-1,1.02-.7.74-.96.9-.81.64-1.06,1.1-.62.76-.95,1.11-.72.8-1.02,1.03-.8.38-1.4.95-.86,1.08-.73.76-1.04,1.24-.57.61-1.12.92-.81,1.03-.71.72-1.01.97-.76.5-1.23.85-.88,1-.46.7-.75.75-.94,1.07-.62.59-1.09,1.04-.64.67-1.01.9-.78.82-.86.8-.89.71-.97.78-.91,1.08-.6.73-.95.77-.91.9-.79.86-.83.69-1,.95-.73,1.17-.51.77-.92.67-1.02,1.15-.52.53-1.17,1.08-.59.76-.92.96-.72.9-.78.77-.92.71-.99,1.09-.58.74-.98.13-1.23.7-1.06-.51-1.14-.12-1.21-.55-1.11-.89-.87-1.02-.73-1.24-.23-1.21.02-1.08.48h-1.27s-1.1.63-1.1.63l-.91.83-.56,1.2-1.23.49-.81.93-.76.98-.67,1.08-1.01.72-.84.9-1.1.63-.48,1.26-1.38.35-.85.89-.87.86-.58,1.16-.72,1.02-1.05.68-.91.83-.95.79-.84.9-.99.8-.6,1.19-1.06.73-1.09.53-.37,1.26-.93.69-1.06.57-.77.86-.74.88-.63,1.12-.84.9-1.11.64-.63,1.11-.94.81-.83.91-.89.86-1.09.66-.77.97-1.02.73-.49,1.25-1.17.58-.69.85.6-.86,1.01-.71.73-.95.9-.8.57-1.08.98-.73.66-1,.96-.75.59-1.06.55-1.1.78-.91,1.15-.58.89-.81.26-1.35,1.13-.6.81-.88.47-1.17.71-.97,1.08-.64.43-1.2.97-.74,1.11-.62.27-1.35,1.3-.46.64-1.03.55-1.1,1.1-.63.55-1.1.89-.81.96-.75.15-1.36.67-.97.3-1.17-.55-1.11.17-1.31-.87-.89-.91-.76-.78-.99-1.3.12-1.09-.13-1.22-.19-1.01.67-.7.97-1.19.51-.64,1.01-.75.91-.73.93-.7.96-.69.97-.94.74-.69.97-.88.79-.9.78-.92.76-.89.78-.87.81-.31,1.32-1.09.6-.86.82-.8.87-.66,1-.69.97-.88.79-.77.9-.88.8-.88.8-.93.75-.43,1.2-1.05.65-.84.83-.55,1.09.9-.82.24-1.28,1.11-.66.44-1.14.63-1.01.96-.77.3-1.24.78-.9.86-.84.32-1.22.69-.96,1.23-.58.25-1.27.72-.94.78-.9.87-.84.8-.88.38-1.18.36-1.12.3-1.1.4-1.27-.76-1.05-.71-.98-.66-1.11-1.13-.59h-1.29s-1.15-.4-1.15-.4l-1.22.14-1.19.44-.51,1.22-1.18.57-.71.97-.74.94-.93.78-.68.99-.44,1.2-.87.83-.8.89-1.03.69-.64,1.03-.68,1-.98.74-.62,1.04-.87.83-.72.96-.61,1.06-1.22.53-.83.86-.3,1.33-1.07.65-.58,1.09-1.16.57-.75.94-.44,1.21-1.13.6-.78.91-.66,1.02-.84.86-1,.71-.46.75.48-.69.64-.99,1.03-.7.29-1.25.79-.88.82-.86.41-1.16,1.16-.61.72-.93.26-1.27,1.14-.62.78-.89.34-1.22.57-1.05,1.04-.7.74-.92.47-1.12.61-1.02.73-.92.85-.84.47-1.12,1.13-.72-.16-1.29-.04-1.12-.08-1.22-.73-.99-.9-.85-1.2-.32-1.14-.29-1.17-.37h-1.26s-1.02.79-1.02.79l-1.09.54-.41,1.21-1,.76-.82.89-.7.98-.64,1.03-.54,1.1-1.01.75-.53,1.11-.77.93-1.03.73-.67,1.01-.55,1.11-.76.93-.96.78-.87.85-.66,1.02-.47,1.17-1.17.6-.57,1.1-.71.98-.94.78-.53,1.13-1.09.66-.71.98-.49,1.17-1.11.63-.58,1.09-.99.73-.61,1.07-1.11.63-.44,1.23-.87.84-1.08.65-.75.94-.75.95-.79.91-.89.82-.74.96-.53,1.16-1.29.44-.53,1.16-.74.55.52-.74.57-1.07.98-.8.37-1.2.84-.89.33-1.23,1.12-.71.63-1.03.22-1.3.59-1.05,1.21-.64.48-1.13.51-1.11.8-.92.56-1.07.44-1.15.8-.92,1-.79.34-1.22,1.04-.76.6-1.05.28-1.26,1.02-.77.62-1.03.65-1.01.24-1.28.7-.98.78-.93.54-1.09.68-1,1.05-.75.33-1.22.91-.85.45-1.12.14-1.17.1-1.16-.28-1.17-.65-1.04-1.05-.62-1.13-.34-1.06-.51-1.18-.18-1.13.41-1.31-.05-.7,1.12-.93.72-.96.8-.55,1.12-.63,1.06-.58,1.1-1,.77-.92.83-.54,1.14-.74.98-.67,1.04-.95.81-.87.87-.76.96-.66,1.04-1.07.7-.63,1.07-.93.81-.71,1.01-.98.77-.78.95-.88.85-.61,1.14.57-1.14.47-1.15.54-1.11.46-1.15.91-.92.47-1.15.42-1.17,1.17-.77.02-1.39.51-1.13.79-.98.84-.95.26-1.26.49-1.14,1.01-.86.61-1.09-.52-1.27.62-1.25-.91-.96-.27-1.25-1.21-.46-.9-.73-1.06-.58-1.19.23-1.14.1-1.24.19-1.05.68-.59,1.06-.74.9-1.07.57-.75.9-.63,1.02-.98.66-1.02.62-.73.91-.54,1.11-1.07.56-1.01.63-.61,1.04-.76.88-.98.66-.59.56-.05-.99.56-1.18.11-1.28.33-1.24.13-1.28.08-1.29.19-1.1.42-1.21-.71-1.02-.37-1.18-.94-.78-1.05-.61-1.24.09-1.11.05h-1.12s-1.23,0-1.23,0l-1.07.44-.83.99-1.17.22-1.08.43-.97.67-1.02.57-1.05.49-1.35-.18-.8,1.06-1.05.47-1.03.65-.75,1.03-.16,1.27.13,1.26.49,1.15.74.99.81.93,1.04.68,1.23.18,1.15.31,1.24.07,1.18-.39-.36-.28.09,1.24-.6,1.09-.24,1.17-.05,1.21-.04,1.22-.3,1.16-.32,1.15-.5,1.11.16,1.26-.16,1.19-.71,1.07-.22,1.18-.25,1.19.05,1.24.84.96.25,1.26.91.85,1.06.66,1.24.15,1.18-.21,1.15-.05,1.03-.54.93-.69.58-.97,1.09-.52-.34,1.26-1.14.77-.46,1.13-.65,1.03-.33,1.2-.63,1.04-.23,1.26-.83.94-.89.9-.54,1.09-.51,1.1-.17,1.29-.93.88-.56,1.08-.45,1.14-.51,1.11-.66,1.03-.89.9.12,1.38-.29,1.14.08,1.19.19,1.25,1.01.79.92.73.98.67,1.17.17,1.18.16,1.14-.34,1.12-.48-.38,1.23-.91.88-.85.92-.62,1.07-.62,1.07-.58,1.09-.58,1.09-.86.91-.85.92-.83.93-.23,1.32-1.04.79-.21,1.34-.89.89-.91.88-.47,1.14-.51,1.16.39,1.22.58,1.02.65.93.57,1.19,1.32.09,1,.82,1.24-.5,1.13-.06,1.18-.16,1.15-.47.77-.76.59-.96,1.2-.67-.95,1.1-.69,1-.96.8-.7.99-.61,1.06-.95.8-.77.93-.56,1.09-.45,1.17-.82.9-.67,1.01-.74.96-.97.79-.21,1.25-.19,1.1-.25,1.17.37,1.15.95.77.89.72.96.63,1.12.26,1.12.37,1.24.11,1.19-.41.67-1.1,1.22-.47.87-.83.66-1.04.83-.87.92-.78.8-.9.7-1,1-.7.94-.76.61-1.08,1.24-.46.61-1.09.92-.78.59-1.11.92-.78,1.09-.61.73-.97.58-1.11.88-.81.85-.85.95-.75.84-.85,1.02-.68.89-.81.79-.9.79-.91.61-1.08.95-.67-.38,1.12-1.06.71-.79.9-.75.93-.37,1.2-.5,1.1-.94.79-.47,1.12-.98.77-.74.93-.55,1.07-.67.98-.9.82-.76.92-.47,1.12-.75.93-.64,1-.32,1.23-.93.8-.69.97-.9.82-.48,1.12-.85.85-.4,1.18-.62,1.02-1.21.6-.51,1.1-.72.95-.52,1.09-.91.81-.57,1.05-.32,1.23-.99.76-.53,1.09-1.04.72-.58,1.05-.71.95-.55,1.07-.93.8-.3,1.25-.76.92-.95.78-.4,1.18-1.08.69-.36,1.24-.48,1.2.63,1.17.28,1.15.63,1.03.83.9,1.24.26.8.77-.35.96-.65.99-.64,1-.2,1.23-.53,1.06-1.09.76-.47,1.09-.38,1.14-.18,1.23-.94.86-.67.99.06,1.23-.26,1.05-.08,1.09.24,1.09.79.79.46,1-.52.85-.38.99-.53,1.11-.04,1.23.61,1.1.3,1.09.22,1.25.92.82,1.2.31,1.05.35,1.12.68,1.14-.52,1.09-.49.77-.92.88-.81.93-.77.7-.99.67-1.01,1.09-.62.57-1.1,1.04-.67.73-.96.89-.8.95-.75.82-.87.71-.98.57-1.11,1.09-.62.5-1.18.85-.85,1.18-.53.6-1.08,1.13-.57.73-.96.49-1.19.96-.74,1.1-.6.46-1.22,1.05-.65.48-1.2,1.36-.36.5-1.18.72-.97.92-.78.84-.85,1.14-.56.35-1.33.82-.87,1.15-.55.78-.91,1.05-.65.52-1.16.97-.73.9-.79.42-1.26,1.23-.47.88-.81.42-1.26,1.17-.53.66-1.03.92-.78,1.07-.62.46-1.22,1.22-.48.44-1.24.73-.96.97-.73.97-.73.58-1.11,1.12-.58.63-1.06.94-.75,1.12-.58.38-1.31,1.05-.65.79-.91.77-.55-.64.67-.52,1.13-1.17.56-.62,1.05-.77.92-.84.86-.77.91-.85.85-.78.91-.92.79-.4,1.24-1.07.65-.67,1-.94.77-.87.82-.32,1.3-.73.95-.79.9-1.26.49-.42,1.22-.77.91-.93.78-.56,1.1-.9.8-1.21.53-.77.92-.79.89-.66,1.01-.37,1.26-1.24.51-.61,1.06-.55,1.11-1.09.63-.44,1.2-1.15.59-.42,1.22-1.33.43-.55,1.1-.91.79-.71.97-.93.78-.46,1.19-.76.93-.81.88-1.03.69-.38,1.25-.85.84-1.03.69-.58,1.08-.97.74-.56,1.1-.86.84-.89.81-.8.89-.58,1.08-1.09.64-.59,1.07-.98.73-.84.85-.54,1.11-1.08.65-.45,1.19-.8.89-.81.88-.88.82-.71.97-.66,1.01-.72.96-1.07.65-.82.87-.66,1.01-1.09.64-.42,1.22-.91.79-.91.8-.56,1.1-1.09.7-.22,1.24-.46,1.17.17,1.24.71,1.07-.6.79-.73.62-.67,1.01-.29,1.18-.32,1.19.64,1.13-.08,1.25.88.87.34,1.26,1.25.33,1.07.3,1.12.2,1.02-.52.97-.56.99-.64,1.06-.55,1.04-.58.8-.91.88-.8,1.34-.17.86-.83.93-.73,1.07-.54.7-1.06,1.04-.58,1.1-.49,1.04-.58.78-.93,1.1-.5.64-1.13,1.31-.21.56-1.24,1.32-.2.8-.91.81-.9,1.01-.62.88-.8,1.03-.6,1.19-.37,1.03-.59.6-1.18,1.09-.51.86-.82,1.13-.45.69-.52-.44.77-.73.93-.81.86-1.2.51-.47,1.16-.66.99-.72.94-.87.81-1.1.6-.37,1.25-.83.84-.77.89-.86.81-.76.91-.84.84-1.11.6-.74.92-.43,1.19-1.01.68-.64,1.01-.86.86-.18,1.2-.59,1.13.37,1.19.07,1.26.8.97.71,1.02,1.02.72,1.17.48,1.24-.31,1.03-.56,1.02-.45,1.2-.33.95-.72,1.22-.3.64-1.22.99-.66,1.2-.33,1.05-.57.89-.82,1.08-.53.99-.67.9-.8,1.17-.38,1.05-.57,1.08-.52.81-.94.89-.82.99-.66,1.04-.59,1.15-.49-.76,1.12-1,.88-.69,1.13-.57,1.22-1.18.64-.38,1.18.17,1.23.28,1.11-.06,1.22.88.83.56,1.02.96.67,1.15.17,1.14.28,1.26.07.87-.99.98-.7,1.29-.15.97-.71.92-.81,1.09-.5,1.01-.64.98-.69,1.17-.37,1.19-.33.79-1.04,1.14-.41,1.02-.63,1.1-.49.93-.78,1.2-.32,1-.67,1.01-1.02-.54.98-.67.97-.5,1.09.06,1.2v1.16s.6,1.01.6,1.01l.21,1.2.68,1.02,1.05.65,1.19.25,1.17-.25,1.18.04,1.25-.16.77-1.06,1.18-.3.95-.74,1.25-.17.95-.73,1.14-.38.75-1.1,1.23-.2.88-.85,1.2-.26,1.04-.57.86-.89,1.31-.06,1.04-.56.85-.91,1.07-.51,1.08-.49.83-.94,1.29-.12,1.06-.52.99-.88-.85,1.06-1.16.46-.98.7-.83.91-.98.7-1.32.24-.64,1.1-1.01.73-.31,1.19-.26,1.17-.05,1.22.37,1.17.77.94.94.69.8.9,1.22-.03,1.1.34,1.1-.35,1.21-.1,1.06-.61,1.19-.33.88-.96,1.09-.54,1.18-.35,1.09-.54,1.22-.29.96-.81,1.05-.62,1.23-.26,1.13-.46.81-1.09,1.15-.42,1.25-.24.94-.83,1.22-.3.89-.92,1.13-.46,1.01-.7,1.31-.14,1.08-.56.9-.89,1.1-.53,1.17-.4.89-.9.95-.79,1.35-.08.87-.93,1.09-.54,1.01-.68,1.03-.65,1.29-.19.88-.84-.75.95-.81.92-1.28.4-.7,1.04-.82.92-1.23.46-.63,1.12-.76.99-.98.74-1.08.62-1.12.58-.71,1.04-1.1.61-.79.94-.55,1.12-.5,1.04-.7,1.11.67,1.15.48,1.03.4,1.11.94.7,1.01.52.98.61h1.15s1.19.09,1.19.09l1.12-.44.92-.8,1.07-.55,1.22-.29.96-.74.94-.76,1-.67,1.08-.54.94-.77,1.17-.37.89-.85,1.04-.59,1.12-.46,1.2-.33.87-.88,1.2-.33,1.05-.59,1.04-.6.69-1.2,1.33-.1.91-.81,1.21-.31.75-1.08,1.46-.59-1.02,1.26-.87.94-1.08.73-.75,1.05-1.31.5-.54,1.26-.93.88-.96.76-.38,1.16.09,1.19.16,1.12.05,1.21.8.89.75.88,1.03.5.94.84,1.22-.09,1.18-.18,1.24-.26.97-.8,1.14-.53,1.04-.69.93-.87.97-.8,1.07-.65,1-.76,1.14-.52,1.28-.81.14,1.43-.15,1.28.86.92.55,1.11,1.22.34,1,.7,1.24.13,1.05-.72,1.32-.07,1.19-.4,1-.9,1.19-.41,1.31-.11,1.13-.83.25,1.28.81.9.75.87.76.97,1.23.08,1.11.03,1.21.06.99-.63,1.09-.39,1.03-.53,1.27.1,1.08-.39.88-.91,1.11-.32,1.02-.62.32-1.19.89-.86.26-1.17.13-1.21-.7-1.06-.38-1.07-.67-.92-.71-1-1.22-.13-1.22-.07v-1.25s-.53-1.01-.53-1.01l-.7-.89-.76-.86-1.35-.34,1.18-.81.8-.87.66-1,1.11-.59.39-1.25,1.04-.65.54-1.11,1.03-.66.5-1.09.94-.92.06-1.26-.39-1.18-.26-1.16-.37-1.2-.93-.84-1.12-.51-1.15-.24-1.13.09-1.12.1-.99.57-1.46.23.72-.57,1.03-.61.7-.94.59-1.04.81-.82.76-.84.48-1.03.75-1.1-.23-1.25-.5-1.14-.76-.95-.98-.67-.7-1.08-1.29.08-1.12-.34-1.19.13-1.14.41-1.15.44-1.03.64-.79,1.05-1.11.51-1.12.49-1.12.49-1.01.69-1.15.44-.99.71-.83.98-1,.7-1.34.12-.96.77-.7.54.53-.74,1-.71.92-.8.66-1.09,1.05-.66,1-.71.93-.79.9-.82.93-.79.62-1.13.96-.76,1.17-.52.68-1.06,1.19-.5.87-.85.76-.98,1.09-.62.56-1.2,1.12-.58,1.01-.7.64-1.11.82-.91,1.22-.47,1-.72.66-1.09.71-1.03.91-.81,1.11-.59.81-.92.58-1.01.79-.91-.03-1.2-.1-1.17-.49-1.07-.2-1.29-1.06-.69-.91-.81-1.11-.58-1.23.35-1.33-.33-1.09.7-.93.75-.78.94-1.13.48-.58,1.21-1.11.5-.85.86-1,.66-.92.76-1.13.47-.85.85-1.11.5-1.09.52-.99.67-.88.82-.93.75-.85.86-.97.69-1.02.62-1.1.51-1.02.62-.83.9-1.17.39-.78.97-1.17.39-.6,1.23-1.04.58-.98.68-.98.68-1.24.29-.92.77-.85.87-1.26.25-.68,1.14-1.11.48-.93.76-1.2.33-1.13.44-1,.64-.79.98-.92.77-1.15.41-1.05.56-1.09.51-.67.69.72-.64.63-1.12,1.02-.69,1.05-.66.67-1.08.92-.8,1.03-.68,1.02-.69.98-.75.91-.82.59-1.16.94-.78.99-.73,1.09-.63.57-1.18,1.18-.54.74-.99.99-.74.97-.76.66-1.08.75-.99.89-.84.8-.94,1.22-.48.63-1.09.91-.76,1.13-.51.97-.7.81-.88.65-1.06.99-.67.98-.69.64-1.06,1.14-.51.74-.95.97-.71.89-.79.78-.9.98-.7.85-.83.58-1.11,1.18-.51.75-.93.68-1,.89-.79.53-1.13.84-.84.75-.92,1.06-.64.5-1.15,1.18-.54.91-.78.56-1.09.75-.93.75-.9.43-1.09.36-1.15-.58-1.11-.08-1.16-.41-1.12-.74-.96-.94-.79-1.25-.14-1.14-.38-1.2.39.89-.79.66-.97,1.1-.44.84-.75.65-.99,1.02-.83-.36-1.28.29-1.2-.56-1.08-.71-.94-.75-.94-1.19-.3-.93-.85-1.21-.08-1.22.07-.91.87-1.28.08-.75,1.04-1.09.42-1.22.18-.77,1.01-1.02.55-1.3.05-.98.62-.85.86-1.01.56-1.22.2-.67,1.18-1.06.47-.82.25.82-.38.9-.8,1.01-.65.74-1.01,1.13-.5.65-1.14.93-.76,1.29-.29.85-.86.87-.84,1.07-.57,1.08-.56.71-1.05,1.15-.48,1.02-.64.7-1.07,1.09-.58.38-1.17.55-1.04.52-1.14-.55-1.18-.27-1.11-.18-1.21-1.07-.61-.69-1.03-1.15-.54-1.21.45-1.11.33h-1.27s-.92.96-.92.96l-1.12.41-1.21.17-1.12.41-1.04.63-1.12.41-1.1.46-1.14.36-1.03.63-1.36-.15-.83,1.1-1.33-.07-.9.91-1.32-.02-.86,1-1.28.09-1.02.65-.9.88h-1.33s-.82,1.03-.82,1.03l-1.01.64-1.13.42-1.22.25-.83.99-1.33.04-1.01.65-.99.68-1.1.48-.95.74-.96.73-1.12.44-1.01.65-.91.81-1.1.49-1.09.5-1.18.35-.73,1.09-1.1.5-1.01.64-1.1.5-.84.9-1.06.56-1.06.57-1.2.36-.58,1.27-1.09.52-.91.78-1.36.14-.57,1.27-1.05.58-1.29.25-.97.7-.79.95-1.04.6-1.02.63-.67,1.1-1.24.34-.55,1.24-1.18.43-.99.68-.66,1.08-1.25.35-.79.92-1.14.5-.57,1.19-1.09.56-.85.85-1,.66-1.03.63-.5,1.25-1.02.64-1,.66-.78.92-1.07.59-.84.86-.98.69-.95.73-.78.91-.65,1.06-1.19.47-.5,1.21-.86.83-1.22.44-.52,1.19-1.32.35-.73.96-.86.83-.59,1.11-1.25.43-.84.85-.43,1.26-1.05.64-.81.87-.93.76-.68,1.01-.84.85-.99.71-.96.74-.6,1.07-.55,1.13-.81.88-1.12.59-.81.88-.69.99-.7.98-.99.72-.97.71-1.13.46-.86.87-1.24.3-.83.92-1.11.48-.65,1.19-1.28.23-.86.87-.98.69-1.13.46-.85.89-1.05.58-.98.68-.99.67-1.12.48-1.24.97.83-1.36,1.17-.55.56-1.11.94-.76.62-1.05.72-.97,1.22-.5.93-.77.62-1.06.5-1.17.88-.81.91-.79.67-1.01,1.28-.44.79-.9.55-1.13,1.1-.61.43-1.24.77-.92,1.25-.46.54-1.14.83-.86.96-.74.99-.71.69-1,.93-.76.64-1.05.96-.74.92-.78.74-.95.75-.95ZM365.66,279.19l1.09-.77.3-1.36,1.03-.73,1.08-.62.93-.68.98-.68,1.04-.59.91-.79,1.04-.59.84-.9,1.2-.35.81-.94,1-.65.94-.75,1.23-.31.67-1.15,1.38-.08.85-.88,1.04-.6.74-1.04.95-.73,1.21-.35,1.03-.61.72-1.07,1.09-.52,1.16-.42.96-.72,1.07-.55.7-1.1,1.27-.27.87-.85.96-.71.87-.84.87-.84.96-.72,1.35-.16.97-.7.62-1.19,1.03-.61,1.19-.39.86-.85.82-.91,1.09-.53,1.24-.33.95-.72.78-.96.82-.91.93-.75,1.33-.21.96-.72.69-1.07.93-.75,1.24-.33.58-1.22,1.34-.2.9-.79.94-.74.88-.81.92-.76.96-.72.94-.74.74-1,1.17-.44,1.1-.53.57-1.22,1.13-.49.9-.79.8-.91,1.21-.4.82-.89.95-.73.87-.83,1.24-.36.57-1.2,1.16-.46.91-.78.89-.8.85-.85.78-.94,1.06-.59,1.13-.51.96-.72.6-1.16,1.29-.31.6-1.16,1.27-.82-.78,1.34-1.32.35-.55,1.13-.96.71-.95.72-.69.99-1.01.66-.65,1.03-1.11.56-.46,1.21-1.02.65-.55,1.13-1.08.59-.73.94-1.16.51-.62,1.06-.82.85-.98.69-.52,1.16-.89.78-1.15.52-.82.86-1,.67-.56,1.12-.64,1.05-1.33.31-.6,1.17-.96.73-1.22.42-.92.78-.91.79-.69,1.08-.98.71-1.06.6-1.12.53-1.03.64-.86.86-.98.71-.92.79-.82.93-1.13.5-.87.86-.93.77-.92.79-.96.73-1.21.37-1.04.62-1.09.55-.69,1.13-.93.79-1.27.28-.85.91-1.08.56-.86.89-1.29.23-.98.7-.83.94-.95.76-1.11.5-.93.79-1.08.55-1.11.5-.88.87-1.12.49-1.11.51-1.11.49-.8,1.01-1.35.1-.97.73-.76,1.09-1.15.43-.98.71-1.31.15-.76,1.09-1.28.2-.76,1.1-1.35.08-1,.68-.78,1.07-1.38.02-.86.94-1.14.45-1.13.45-1,.68-1.06.58-1.02.79ZM362.47,267.83l-1.24.34-.68,1.21-1.19.4-1.25.31-1,.71-1.01.68-1.07.59-.95.79-1.07.58-.88.89-1.23.33-.86.93-1.04.63-.99.72-1.26.27-.74,1.14-1.41.03-.78.87.86-.71.46-1.2.74-.96,1.09-.65.86-.85.44-1.22.94-.78,1.04-.69.77-.93.9-.77.69-1.07,1.28-.25.89-.83.98-.69.89-.83.89-.82.98-.7,1.36-.14.99-.68.65-1.18,1.05-.59,1.21-.36.89-.83.85-.89,1.11-.5,1.25-.3.98-.7.82-.94.85-.89.96-.72,1.34-.17.99-.69.87-1.03-.8,1.01-1.17.51-.38,1.29-1.29.4-.76.92-.8.88-.73.94-.78.9-.82.86-.79.88-.54,1.11-1.07.64-.98.72-.33,1.3-.96.75Z"/>
      <g>
        <polygon class="cls-8" points="77.95 37.92 77.94 36.72 78.49 35.49 77.84 34.34 77.94 33.12 77.66 31.95 77.39 30.79 77 29.65 77.33 28.33 77.03 27.16 76.24 26.15 75.8 25.03 75.8 23.74 75.16 22.7 74.47 21.7 74.27 20.45 73.08 19.73 72.83 18.49 72.13 17.52 71.23 16.69 70.73 15.57 70.05 14.59 69.11 13.81 68.55 12.71 67.55 12.01 66.59 11.29 65.87 10.3 65.09 9.38 63.97 8.86 63.39 7.65 62.38 6.98 61.08 6.76 60.37 5.63 58.98 5.63 58.25 4.47 57.07 4.13 55.97 3.64 54.84 3.23 53.75 2.74 52.51 2.67 51.55 1.72 50.36 1.47 49.06 1.75 47.95 1.21 46.76 1.08 45.55 1.15 44.41 .59 43.21 .42 42.01 .35 40.8 .19 39.6 .38 38.43 .95 37.24 .98 36.04 .98 34.81 .83 33.68 1.36 32.47 1.41 31.26 1.53 30.1 1.86 29.09 2.65 27.96 3.04 26.72 3.13 25.72 3.84 24.62 4.32 23.66 5.06 22.6 5.6 21.24 5.64 20.35 6.5 19.6 7.53 18.5 8.04 17.55 8.76 16.46 9.33 15.8 10.39 14.76 11.03 13.9 11.86 13.23 12.88 12.09 13.48 11.82 14.8 10.85 15.56 10.26 16.61 9.25 17.38 8.75 18.49 7.93 19.4 7.54 20.56 6.9 21.59 6.44 22.7 6.23 23.92 5.37 24.88 5.6 26.23 5.23 27.36 4.27 28.33 4.01 29.52 3.76 30.7 4.22 32 3.48 33.1 3.82 34.35 3.3 35.51 3.24 36.71 3.45 37.92 3.62 39.11 3.41 40.32 3.3 41.53 3.43 42.74 3.91 43.88 4.01 45.08 4.33 46.24 4.83 47.35 4.96 48.56 5.54 49.63 5.6 50.87 6.09 51.97 6.33 53.18 7.16 54.12 7.42 55.34 8.42 56.16 9 57.2 9.29 58.43 10.17 59.29 10.64 60.43 11.69 61.13 12.04 62.4 12.94 63.22 13.93 63.95 14.84 64.73 15.82 65.43 16.74 66.18 17.29 67.4 18.47 67.85 19.22 68.87 20.55 69.03 21.56 69.66 22.27 70.82 23.63 70.83 24.65 71.46 25.74 71.94 26.89 72.28 27.87 73.06 28.91 73.73 30.12 73.9 31.36 73.94 32.41 74.66 33.6 74.91 34.85 74.73 35.99 75.22 37.23 74.92 38.4 75.34 39.59 75.58 40.8 75.25 42 75.22 43.19 75.01 44.41 75.24 45.62 75.28 46.72 74.5 47.95 74.62 49.09 74.19 50.3 74.11 51.48 73.9 52.51 73.18 53.6 72.69 54.94 72.83 55.85 71.9 56.9 71.33 57.96 70.79 59.26 70.68 60.21 69.93 61.39 69.54 62.16 68.53 62.99 67.64 63.93 66.91 65.16 66.52 66.2 65.88 66.75 64.71 67.88 64.14 68.28 62.87 69.08 61.99 69.87 61.09 70.77 60.27 71.6 59.4 72.3 58.42 72.76 57.28 73.17 56.14 74.3 55.39 74.29 54.04 74.87 52.99 75.51 51.96 75.82 50.8 76.19 49.66 76.81 48.6 76.81 47.36 77.33 46.25 77.41 45.05 77.44 43.84 77.94 42.71 77.78 41.48 78.27 40.32 78.56 39.13 77.95 37.92"/>
        <g>
          <g>
            <polygon class="cls-4" points="160.01 75.55 161.3 75.13 162.5 75.79 163.69 75.41 164.89 75.35 166.09 75.69 167.28 75.55 168.48 75.41 169.68 75.17 170.87 75.43 172.07 75.69 173.27 75.19 174.46 75.64 175.66 75.61 176.86 75.11 178.05 75.35 179.25 75.15 180.45 75.55 181.64 75.3 182.84 75.77 184.03 75.82 185.23 75.33 186.43 75.47 187.62 75.29 188.82 75.24 190.01 75.29 191.21 75.82 192.41 75.43 193.6 75.61 194.8 75.35 195.99 75.62 197.19 75.27 198.39 75.62 199.58 75.66 200.78 75.75 201.98 75.24 203.17 75.68 204.37 75.52 205.57 75.47 206.76 75.44 207.96 75.39 209.16 75.75 210.35 75.33 211.55 75.61 212.75 75.15 213.94 75.66 215.14 75.15 216.34 75.27 217.54 75.81 218.73 75.54 219.93 75.31 221.13 75.81 222.33 75.39 223.53 75.33 224.73 75.44 225.93 75.62 227.13 75.65 228.32 75.64 229.52 75.19 230.72 75.67 231.92 75.81 233.12 75.75 234.32 75.39 235.52 75.5 236.72 75.74 237.92 75.39 239.12 75.55 240.32 75.57 241.52 75.22 242.72 75.62 243.92 75.55 245.12 75.45 246.32 75.58 247.51 75.38 248.71 75.38 249.91 75.76 251.11 75.71 252.31 75.11 253.5 75.44 254.7 75.59 255.9 75.48 257.1 75.42 258.29 75.71 259.49 75.41 260.69 75.54 261.89 75.22 263.08 75.78 264.28 75.08 265.48 75.26 266.67 75.35 267.87 75.23 269.07 75.43 270.27 75.1 271.46 75.62 272.66 75.08 273.86 75.24 275.06 75.41 276.26 75.8 277.45 75.25 278.65 75.16 279.85 75.61 281.05 75.3 282.25 75.43 283.45 75.82 284.64 75.61 285.84 75.1 287.04 75.14 288.24 75.72 289.44 75.12 290.64 75.46 291.84 75.09 293.04 75.66 294.24 75.73 295.44 75.81 296.64 75.59 297.84 75.75 299.04 75.33 300.24 75.52 301.44 75.67 302.64 75.55 303.84 75.65 305.04 75.46 306.24 75.39 307.44 75.35 308.64 75.1 309.84 75.79 311.03 75.25 312.23 75.7 313.43 75.29 314.63 75.2 315.83 75.19 317.03 75.37 318.23 75.57 319.42 75.5 320.62 75.33 321.82 75.39 323.02 75.78 324.22 75.49 325.42 75.66 326.61 75.14 327.81 75.8 329.01 75.36 330.21 75.36 331.41 75.53 332.61 75.56 333.81 75.65 335.01 75.79 336.21 75.37 337.41 75.4 338.61 75.4 339.81 75.67 341.01 75.11 342.21 75.09 343.41 75.34 344.61 75.33 345.81 75.65 347.01 75.25 348.21 75.74 349.41 75.57 350.61 75.8 351.81 75.73 353.01 75.4 354.21 75.21 355.41 75.67 356.61 75.41 357.81 75.11 359.01 75.4 360.21 75.26 361.41 75.34 362.6 75.44 363.8 75.25 365 75.56 366.2 75.71 367.4 75.14 368.6 75.12 369.8 75.26 371 75.18 372.2 75.16 373.4 75.14 374.6 75.41 375.8 75.71 377.01 75.67 378.21 75.48 379.41 75.59 380.61 75.3 381.81 75.62 383.01 75.75 384.2 75.39 385.4 75.79 386.6 75.13 387.8 75.63 388.99 75.21 390.19 75.3 391.39 75.78 392.58 75.4 393.78 75.12 394.97 75.49 396.17 75.4 397.37 75.64 398.56 75.71 399.76 75.48 400.95 75.83 402.15 75.47 403.34 75.1 404.54 75.14 405.73 75.27 406.93 75.39 408.12 75.61 409.32 75.24 410.52 75.12 411.71 75.75 412.91 75.11 414.11 75.52 415.31 75.08 416.5 75.42 417.7 75.77 418.9 75.45 420.1 75.23 421.3 75.35 422.5 75.51 423.7 75.55 424.91 75.27 426.11 75.63 427.31 75.79 428.51 75.23 429.71 75.49 430.91 75.38 432.11 75.39 433.31 75.48 434.51 75.58 435.71 75.19 436.91 75.55 438.11 75.6 439.3 75.12 440.5 75.16 441.7 75.22 442.9 75.2 444.1 75.65 445.3 75.57 446.49 75.82 447.69 75.33 448.89 75.3 450.09 75.47 451.29 75.57 452.49 75.69 453.69 75.54 454.9 75.7 456.1 75.18 457.3 75.16 458.51 75.13 459.71 75.32 460.91 75.77 462.11 75.68 463.31 75.4 464.51 75.67 465.71 75.67 466.91 75.72 468.11 75.72 469.31 75.74 470.51 75.51 471.71 75.16 472.91 75.77 474.11 75.34 475.32 75.77 476.52 75.53 477.72 75.3 478.92 75.65 480.13 75.52 481.33 75.56 482.53 75.6 483.73 75.68 484.94 75.13 486.14 75.48 487.34 75.32 488.54 75.43 489.74 75.23 490.94 75.63 492.15 75.38 493.35 75.68 494.55 75.56 495.76 75.24 496.96 75.33 498.16 75.64 499.37 75.56 500.57 75.14 501.77 75.64 502.97 75.7 504.18 75.18 505.38 75.15 506.58 75.22 507.79 75.12 508.99 75.59 510.2 75.09 511.4 75.48 512.6 75.75 513.81 75.11 515.01 75.54 516.21 75.14 517.42 75.52 518.62 75.15 519.82 75.23 521.02 75.34 522.22 75.64 523.42 75.71 524.62 75.45 525.82 75.29 527.02 75.5 528.23 75.14 529.43 75.58 530.64 75.31 531.84 75.33 533.04 75.65 534.24 75.42 535.45 75.62 536.66 75.77 537.86 75.35 539.06 75.22 540.27 75.57 541.47 75.59 542.68 75.38 543.89 75.36 545.09 75.5 546.3 75.39 547.5 75.35 548.71 75.18 549.91 75.16 551.12 75.21 552.33 75.29 553.53 75.62 554.74 75.46 555.95 75.13 557.16 75.17 558.37 75.54 559.57 75.25 560.78 75.25 562 75.26 563.17 75.42 562.88 74.27 563.56 73.08 562.96 71.89 562.84 70.7 563.26 69.51 563.01 68.32 563.39 67.12 562.93 65.93 563.35 64.74 563.19 63.55 562.99 62.36 563.52 61.17 563.41 59.98 563.57 58.79 563.56 57.6 563.39 56.41 563.38 55.22 563.45 54.03 563.38 52.84 563.14 51.65 563.18 50.46 563.15 49.27 563.49 48.07 563.19 46.88 563.11 45.69 562.85 44.5 563.2 43.32 563.37 42.13 562.9 40.94 563.44 39.76 562.93 38.57 562.97 37.38 563.05 36.19 563 34.99 563.42 33.8 563.04 32.61 563.27 31.42 562.95 30.23 563.45 29.04 562.88 27.85 563.12 26.65 563.14 25.46 563.38 24.27 562.97 23.08 563.53 21.89 563.01 20.69 562.97 19.5 563.44 18.31 562.95 17.11 563.17 15.92 563.1 14.72 563.49 13.53 563.29 12.34 563.37 11.15 562.88 9.95 562.86 8.76 562.97 7.56 563.26 6.37 563.21 5.17 563.17 3.97 563.5 2.78 563.5 1.58 563.12 .47 562.01 .61 560.82 .54 559.62 .62 558.42 .21 557.22 .7 556.03 0 554.83 .29 553.63 .59 552.44 .2 551.24 .23 550.04 .73 548.85 .01 547.65 .03 546.45 .59 545.26 .17 544.06 .46 542.87 .15 541.67 .72 540.47 .12 539.28 .56 538.08 .22 536.89 .15 535.69 .02 534.49 .74 533.3 .65 532.1 .6 530.91 .57 529.71 .05 528.51 .1 527.32 .16 526.12 .2 524.92 .26 523.73 .41 522.53 .68 521.34 .72 520.14 .55 518.94 .71 517.75 .27 516.55 .05 515.35 .69 514.16 .62 512.96 .58 511.76 .74 510.56 .38 509.37 .48 508.17 .08 506.97 .17 505.77 .11 504.58 .33 503.38 .54 502.18 .09 500.98 .04 499.78 .66 498.58 .37 497.39 .02 496.19 .08 494.99 .65 493.79 .46 492.59 .11 491.39 .71 490.19 .67 488.99 .61 487.79 .4 486.59 .08 485.39 .3 484.19 .39 482.99 .47 481.79 .63 480.59 .72 479.39 .28 478.19 .5 477 .32 475.8 .73 474.6 .52 473.4 .48 472.2 .58 471.01 .33 469.81 .39 468.61 .55 467.41 .11 466.22 .39 465.02 .38 463.82 .16 462.62 .44 461.43 .41 460.23 .45 459.03 .51 457.83 .12 456.64 .02 455.44 .43 454.24 .3 453.04 .32 451.85 .46 450.65 .22 449.45 .75 448.25 .17 447.06 .11 445.86 .05 444.66 .7 443.46 .29 442.26 .08 441.06 .59 439.87 .14 438.67 .15 437.47 .35 436.27 .04 435.07 .41 433.87 .27 432.67 .13 431.47 .22 430.27 .66 429.07 .3 427.87 .32 426.67 .72 425.47 .65 424.27 .69 423.07 .65 421.87 .47 420.67 .39 419.47 .05 418.27 .63 417.07 .23 415.87 .74 414.67 .24 413.48 .71 412.28 .62 411.08 .63 409.88 .74 408.68 0 407.48 .27 406.28 .49 405.09 .53 403.89 .31 402.69 .05 401.49 .56 400.29 .11 399.09 .37 397.9 .05 396.7 .02 395.5 .26 394.3 .35 393.1 .38 391.9 .72 390.7 .51 389.5 .43 388.3 .02 387.1 .13 385.9 .1 384.7 .24 383.5 .31 382.3 .21 381.1 .57 379.9 .12 378.7 .51 377.5 .03 376.3 .74 375.1 .38 373.9 .27 372.7 .34 371.5 .53 370.3 .42 369.1 .34 367.9 .14 366.7 .48 365.5 .6 364.3 .36 363.11 .45 361.91 .19 360.71 .47 359.51 .2 358.31 .03 357.11 .26 355.91 .63 354.71 .74 353.51 .31 352.31 .64 351.11 .55 349.91 .7 348.71 .66 347.51 .63 346.31 .23 345.1 .5 343.9 .6 342.7 .14 341.5 .22 340.3 .64 339.11 .26 337.91 .22 336.71 .58 335.51 .47 334.32 .25 333.12 .55 331.92 .62 330.73 .54 329.53 .45 328.34 .44 327.14 .1 325.95 .07 324.75 .16 323.56 .35 322.36 .64 321.17 .35 319.97 .14 318.77 .38 317.58 .57 316.38 .27 315.19 .63 313.99 .58 312.79 .11 311.6 .13 310.4 .29 309.2 .14 308.01 .08 306.81 .6 305.61 .07 304.41 .28 303.21 .67 302.01 .21 300.81 .25 299.61 .49 298.4 .09 297.2 .11 296 .14 294.8 .33 293.6 .17 292.4 .6 291.2 .49 290 .34 288.8 .12 287.6 .56 286.4 .12 285.21 .61 284.01 .42 282.81 .55 281.61 .56 280.41 .37 279.21 .43 278.02 .01 276.82 .75 275.62 .25 274.42 .32 273.22 .39 272.02 .57 270.82 .66 269.62 .7 268.42 .03 267.21 .24 266.01 .25 264.81 .07 263.6 .51 262.4 .09 261.2 0 260 .66 258.8 .14 257.6 .62 256.4 .2 255.2 .44 254 .47 252.8 .53 251.6 .53 250.4 .38 249.2 .02 248 .16 246.79 .25 245.59 .41 244.39 .34 243.18 .47 241.98 .38 240.78 .39 239.58 .12 238.38 .61 237.17 .34 235.97 .45 234.77 .03 233.57 .52 232.37 .08 231.16 .67 229.96 .3 228.76 .63 227.55 .1 226.35 .28 225.15 .05 223.95 .33 222.74 .61 221.54 .18 220.34 .64 219.14 .19 217.93 .47 216.73 .09 215.52 .28 214.32 .61 213.12 .22 211.91 .57 210.71 .25 209.51 .19 208.3 .09 207.1 .02 205.9 .21 204.69 .32 203.49 .23 202.29 .57 201.1 .56 199.9 .25 198.69 .08 197.49 .07 196.29 .06 195.08 .43 193.88 .47 192.68 .74 191.47 .49 190.27 .08 189.07 .65 187.86 .48 186.66 .55 185.45 .54 184.25 .07 183.04 .25 181.84 .74 180.63 .47 179.43 0 178.22 .34 177.01 .42 175.81 .5 174.6 .56 173.4 .27 172.19 .65 170.98 .26 169.78 .2 168.57 .45 167.36 .09 166.16 .28 164.95 .1 163.74 .29 162.53 .39 161.31 .6 159.99 .26 160.28 1.56 159.93 2.75 160.05 3.94 160.25 5.13 159.83 6.32 160 7.51 160.31 8.71 160.21 9.9 159.88 11.09 159.91 12.28 159.73 13.47 159.99 14.66 159.85 15.85 159.89 17.04 159.89 18.23 160.42 19.42 160.22 20.61 160.42 21.8 160.19 22.99 159.79 24.18 160.26 25.37 160.14 26.56 160.27 27.76 160.41 28.95 159.94 30.14 159.88 31.33 160.01 32.51 160.32 33.7 159.99 34.89 159.73 36.07 160.17 37.26 159.73 38.45 160.31 39.64 160.11 40.84 160.43 42.03 159.84 43.22 159.86 44.41 160.41 45.6 160.2 46.79 160.21 47.98 160.33 49.18 160.07 50.37 159.75 51.56 160.24 52.75 160.22 53.94 160.46 55.14 160.12 56.33 160.4 57.52 159.84 58.72 160.12 59.91 160.24 61.11 160.41 62.3 159.77 63.49 159.84 64.68 160.28 65.88 159.9 67.07 160.11 68.27 159.74 69.46 160.45 70.66 160.2 71.86 160.13 73.05 160.12 74.26 160.01 75.55"/>
            <polygon class="cls-2" points="575.53 75.7 576.97 75.55 578.17 75.58 579.37 75.73 580.57 75.23 581.77 75.6 582.98 75.71 584.18 75.75 585.38 75.7 586.59 75.8 587.79 75.68 588.99 75.11 590.19 75.23 591.4 75.56 592.6 75.47 593.8 75.61 595.01 75.59 596.21 75.21 597.42 75.14 598.62 75.6 599.83 75.43 601.03 75.64 602.24 75.77 603.44 75.8 604.65 75.27 605.85 75.1 607.06 75.19 608.26 75.71 609.47 75.41 610.67 75.66 611.88 75.39 613.09 75.63 614.3 75.35 615.51 75.22 616.72 75.44 617.9 75.31 618.61 74.46 619.65 73.84 620.26 72.78 621.51 72.36 621.98 71.16 622.78 70.29 623.8 69.63 624.84 69.01 625.19 67.71 626.38 67.24 626.9 66.1 627.95 65.49 628.83 64.71 629.52 63.74 630.31 62.86 631.55 62.18 631.27 60.92 631.22 59.71 630.98 58.5 631.4 57.3 631.34 56.09 631.2 54.89 631.03 53.68 631.35 52.48 631.53 51.27 630.97 50.06 631.32 48.85 631.38 47.64 631.23 46.43 630.94 45.22 631.2 44.01 631.49 42.8 631.38 41.59 630.95 40.38 631.2 39.17 631.51 37.96 631.24 36.75 631.32 35.54 631.3 34.33 631.07 33.12 630.95 31.91 631.35 30.69 631.23 29.48 631.15 28.27 631.16 27.06 630.91 25.85 631.37 24.64 631.2 23.43 631.14 22.21 631.42 21 630.99 19.78 631.47 18.57 631.55 17.36 631.29 16.14 631.34 14.92 630.99 13.75 630.47 12.82 629.71 11.91 628.82 11.14 627.97 10.31 627.33 9.28 626.18 8.76 625.16 8.11 624.82 6.79 623.57 6.37 623.13 5.17 621.96 4.68 621.3 3.68 620.22 3.09 619.81 1.83 618.66 1.32 617.92 .42 616.73 .55 615.53 .23 614.33 .42 613.13 .06 611.93 .57 610.72 .43 609.52 .58 608.32 .45 607.12 .05 605.92 .54 604.72 .08 603.51 .28 602.31 .06 601.1 .05 599.9 .09 598.7 .02 597.49 .4 596.29 .44 595.08 .58 593.88 .56 592.67 .06 591.47 .28 590.26 .05 589.06 .42 587.85 .66 586.65 .25 585.44 .09 584.24 .1 583.03 .65 581.82 .43 580.61 .52 579.41 .62 578.2 .51 576.99 .56 575.74 .34 575.54 1.56 575.45 2.75 575.89 3.94 575.99 5.13 575.99 6.32 576.04 7.51 575.56 8.71 575.44 9.9 575.91 11.09 575.5 12.28 575.7 13.47 575.7 14.66 575.48 15.85 576.02 17.04 575.43 18.23 575.6 19.42 576.14 20.61 575.63 21.8 575.53 22.99 575.48 24.18 575.96 25.37 575.55 26.56 576.06 27.76 576.01 28.95 575.99 30.14 575.46 31.33 575.45 32.51 575.99 33.7 575.89 34.89 575.5 36.07 575.73 37.26 575.41 38.45 575.94 39.64 575.76 40.84 576.14 42.03 575.47 43.22 575.85 44.41 575.67 45.6 575.49 46.79 575.83 47.98 575.64 49.18 575.98 50.37 576.12 51.56 575.82 52.75 575.46 53.94 575.98 55.14 576.04 56.33 576.12 57.52 575.4 58.72 576.14 59.91 575.81 61.11 575.61 62.3 575.71 63.49 575.91 64.68 575.52 65.88 575.71 67.07 575.57 68.27 576.05 69.46 575.7 70.66 575.58 71.86 576.09 73.05 575.89 74.27 575.53 75.7"/>
            <polygon class="cls-10" points="566.52 26.21 565.32 25.92 564.13 26.32 562.93 25.94 561.74 25.87 560.54 26.32 559.34 26.51 558.15 26.54 556.95 25.97 555.76 26.26 554.56 26.34 553.36 25.94 552.17 26.32 550.97 26.31 549.78 26.03 548.58 26.29 547.39 25.96 546.19 26.1 545 26.55 543.8 26.23 542.61 25.96 541.41 26.3 540.22 26.52 539.02 26.03 537.83 25.95 536.63 26.47 535.44 26.06 534.24 25.93 533.05 26.42 531.85 26.12 530.66 26.33 529.46 26.37 528.27 26.07 527.07 25.84 525.88 25.89 524.68 25.98 523.49 26.33 522.29 26.04 521.1 26.34 519.9 25.96 518.71 26.24 517.51 26.15 516.32 26.04 515.12 26.28 513.93 25.88 512.73 26.42 511.53 26.44 510.34 26.11 509.14 26.06 507.94 26.09 506.75 25.9 505.55 26.58 504.35 26.57 503.16 26 501.96 26.32 500.76 26.55 499.56 25.94 498.37 26.56 497.17 26.04 495.97 26.05 494.77 26.2 493.57 26.15 492.37 26.57 491.18 26.51 489.98 26.42 488.78 26.4 487.58 26.54 486.38 25.91 485.18 26.28 483.99 26.4 482.79 25.9 481.59 25.87 480.39 26.5 479.19 26.5 478 25.94 476.8 26.12 475.6 26.48 474.41 25.89 473.21 26.23 472.01 26.46 470.82 26.12 469.62 26.5 468.42 26.58 467.23 25.97 466.03 26.24 464.84 26.54 463.64 26.28 462.44 25.91 461.25 26.2 460.05 26.1 458.85 26.19 457.66 26.23 456.46 26.12 455.27 26.5 454.07 26.17 452.87 26.58 451.68 26.06 450.48 26.42 449.28 26.4 448.09 26.16 446.89 25.89 445.69 26.43 444.5 26.41 443.3 25.91 442.1 25.86 440.9 26.22 439.71 26.05 438.51 25.85 437.31 26.06 436.11 26.18 434.91 25.91 433.72 26.28 432.52 26.52 431.32 26.54 430.12 26.14 428.92 26.43 427.72 26.1 426.52 26.06 425.32 26.45 424.12 26.26 422.92 26.3 421.73 26.27 420.53 26.29 419.33 26.55 418.13 26.23 416.93 25.85 415.74 26.38 414.54 26.17 413.34 26.17 412.14 26.23 410.95 26.18 409.75 25.84 408.55 26.57 407.36 26.31 406.16 26 404.96 26.29 403.76 26.57 402.57 26.52 401.37 25.92 400.17 26.06 398.97 26.05 397.78 26.18 396.58 25.95 395.38 26.59 394.18 26.24 392.99 26.18 391.79 26.16 390.59 26.44 389.39 26.32 388.19 26.04 386.99 26.05 385.79 25.87 384.59 25.91 383.39 26.02 382.19 26.41 380.99 25.86 379.8 26.35 378.6 26.27 377.4 26.12 376.2 26.22 375 26.54 373.8 26.22 372.6 26.13 371.41 26.57 370.21 26.45 369.01 25.89 367.81 26.48 366.61 26.3 365.42 26.48 364.22 26.36 363.02 26.16 361.82 26.05 360.62 26.13 359.43 25.92 358.23 25.98 357.03 25.97 355.83 25.88 354.63 26.19 353.43 26.31 352.23 26.22 351.03 26.04 349.83 26.15 348.63 26.48 347.43 26.59 346.24 26.31 345.04 26.58 343.84 26.21 342.64 26.18 341.44 26.01 340.24 26.5 339.05 26.49 337.85 26.01 336.65 26.34 335.46 26.02 334.26 26.05 333.07 26.39 331.87 26.43 330.68 26.13 329.48 25.84 328.29 26.59 327.1 26.56 325.9 26.23 324.71 26.19 323.51 26.09 322.32 26.45 321.13 26.55 319.93 26.34 318.74 25.89 317.54 26.17 316.35 26.59 315.15 26.54 313.96 26.16 312.76 26.38 311.57 26.45 310.37 26.09 309.17 26.33 307.98 25.92 306.78 26.21 305.58 26.36 304.38 26.01 303.18 26 301.98 26.39 300.78 26.28 299.58 26.13 298.38 26.34 297.18 26.04 295.98 26.06 294.78 26.57 293.58 26.37 292.38 26.17 291.18 26.51 289.99 26.12 288.79 26.4 287.59 25.89 286.39 26.48 285.2 25.9 284 26.19 282.8 25.92 281.61 26.51 280.41 26.1 279.21 26.44 278.02 25.93 276.82 26.38 275.62 26.15 274.42 25.98 273.22 25.88 272.02 26.12 270.82 25.87 269.62 26.25 268.42 26.18 267.22 26.36 266.02 26.3 264.81 26.1 263.61 26.23 262.41 26.46 261.21 26.29 260.02 25.94 258.82 25.98 257.62 26.57 256.42 26.33 255.22 25.92 254.02 26.28 252.82 26.35 251.62 25.95 250.42 26.46 249.22 25.88 248.02 26.3 246.82 26.16 245.62 26.49 244.41 25.98 243.21 25.93 242.01 26.22 240.81 26.14 239.61 26.53 238.41 26.39 237.21 26.25 236.01 26.2 234.81 26.04 233.61 26.28 232.41 26.55 231.21 25.95 230 26.29 228.8 26.03 227.6 25.97 226.4 26.58 225.19 25.93 223.99 26.41 222.79 26 221.59 26.15 220.39 26.3 219.19 26.06 217.98 25.87 216.78 25.92 215.58 26.39 214.38 26.13 213.17 26.24 211.97 26.56 210.77 26.02 209.57 25.98 208.36 26.28 207.16 26 205.96 26.1 204.76 26.21 203.57 26.45 202.37 26.35 201.17 26.26 199.97 25.94 198.77 26.02 197.57 25.9 196.36 25.95 195.16 26.19 193.96 26.57 192.75 26.01 191.55 26.36 190.35 26.21 189.15 26.39 187.94 25.97 186.74 26.57 185.54 26.23 184.33 26.14 183.13 25.86 181.92 25.98 180.72 26.3 179.51 26.32 178.31 26.23 177.1 26.07 175.9 26.57 174.7 26.2 173.49 25.89 172.29 26.13 171.08 26.15 169.87 25.86 168.67 26.09 167.46 26.06 166.25 25.89 165.05 26.06 163.84 26.01 162.62 25.97 161.41 26.22 161.66 25.1 161.69 23.99 161.14 22.88 161.46 21.82 162.61 21.79 163.81 21.9 165 21.73 166.2 21.42 167.39 21.82 168.59 21.73 169.79 22.13 170.98 22.09 172.18 22.08 173.37 21.67 174.57 21.71 175.76 21.61 176.96 21.92 178.16 21.52 179.35 21.93 180.55 21.92 181.74 21.58 182.94 21.97 184.13 21.9 185.33 21.73 186.52 21.76 187.72 21.58 188.91 21.96 190.11 21.55 191.3 21.55 192.5 21.56 193.69 21.42 194.88 21.53 196.08 21.95 197.27 21.84 198.47 22.03 199.66 21.59 200.86 21.7 202.05 22.1 203.25 21.42 204.44 21.68 205.64 21.66 206.84 21.79 208.03 21.59 209.23 21.87 210.42 21.4 211.62 22.11 212.81 21.76 214.01 21.57 215.2 22.08 216.4 22.04 217.6 22.03 218.79 22.06 219.99 21.48 221.19 21.63 222.38 21.48 223.58 21.95 224.78 22.09 225.97 21.69 227.17 21.44 228.37 21.75 229.57 21.46 230.76 21.97 231.96 22.03 233.16 21.8 234.36 21.56 235.56 21.87 236.76 21.94 237.96 21.65 239.16 21.96 240.35 21.95 241.55 21.53 242.75 21.52 243.95 22.1 245.15 21.45 246.34 22.02 247.54 22.01 248.74 21.7 249.94 21.97 251.13 21.61 252.33 21.87 253.53 21.85 254.72 21.98 255.92 21.45 257.12 22.07 258.31 22.01 259.51 21.54 260.71 21.44 261.9 21.69 263.1 22.13 264.29 21.59 265.49 21.64 266.69 22.11 267.88 22.13 269.08 21.67 270.28 22.14 271.47 21.99 272.67 21.98 273.86 22.05 275.06 22.13 276.26 21.93 277.45 22.02 278.65 21.48 279.85 21.4 281.04 21.88 282.24 21.67 283.44 21.74 284.63 21.52 285.83 21.94 287.03 22 288.23 21.89 289.43 21.42 290.62 21.76 291.82 21.5 293.02 21.76 294.22 22.02 295.42 21.52 296.62 21.57 297.82 22.02 299.02 21.84 300.21 22.12 301.41 21.41 302.61 21.7 303.81 21.96 305.01 22.11 306.21 21.92 307.41 21.99 308.6 21.54 309.8 21.94 311 21.86 312.2 21.82 313.39 21.61 314.59 21.64 315.79 21.53 316.99 22.09 318.18 21.84 319.38 21.87 320.58 21.68 321.78 21.68 322.97 21.51 324.17 21.96 325.37 21.52 326.56 21.65 327.76 22.09 328.96 21.7 330.16 21.82 331.35 22.06 332.55 21.42 333.75 21.56 334.95 21.77 336.15 21.82 337.34 22 338.54 21.81 339.74 21.53 340.94 21.9 342.14 22.13 343.34 22.08 344.54 21.62 345.74 21.91 346.94 21.5 348.14 21.95 349.34 21.88 350.54 21.62 351.73 21.98 352.93 21.6 354.13 21.79 355.33 22.08 356.53 22.13 357.73 21.81 358.92 21.74 360.12 22.06 361.32 21.55 362.52 21.65 363.72 21.87 364.91 21.68 366.11 21.5 367.31 21.83 368.51 21.9 369.71 21.57 370.9 21.44 372.1 21.89 373.3 22.12 374.5 21.77 375.7 21.92 376.9 22.05 378.1 21.62 379.3 21.62 380.5 21.49 381.7 21.65 382.9 21.43 384.1 21.8 385.3 21.75 386.49 22.02 387.69 21.78 388.89 22.14 390.08 21.47 391.28 21.91 392.47 22 393.67 21.86 394.87 21.55 396.06 21.71 397.25 22 398.45 21.65 399.64 21.53 400.84 21.44 402.03 21.84 403.23 21.53 404.42 22 405.61 21.99 406.81 22.11 408 21.5 409.2 21.96 410.39 21.53 411.59 21.52 412.78 21.88 413.98 21.62 415.17 21.58 416.37 22.08 417.56 22.03 418.76 22 419.96 22.02 421.16 21.72 422.35 21.88 423.55 22 424.75 21.83 425.95 21.83 427.15 22.07 428.35 21.63 429.55 22.02 430.75 21.54 431.95 21.74 433.15 21.57 434.35 22.03 435.55 21.64 436.75 21.77 437.95 21.68 439.14 21.81 440.34 21.88 441.54 22.12 442.74 21.41 443.93 21.73 445.13 21.86 446.33 21.8 447.52 21.72 448.72 21.85 449.92 22.06 451.12 22.01 452.31 21.82 453.51 21.83 454.71 21.63 455.91 21.54 457.11 21.44 458.31 21.46 459.51 21.52 460.72 21.54 461.92 21.94 463.12 21.53 464.32 22.08 465.52 21.9 466.72 22.12 467.92 21.45 469.12 21.44 470.32 21.92 471.51 21.42 472.71 21.42 473.91 21.89 475.11 21.71 476.31 21.87 477.51 21.83 478.71 21.85 479.91 22.01 481.11 22.04 482.32 21.76 483.52 21.87 484.72 21.93 485.92 22.06 487.12 22.01 488.32 21.5 489.52 21.91 490.72 21.73 491.92 21.68 493.12 21.76 494.33 21.85 495.53 21.71 496.73 22.06 497.93 21.52 499.13 21.52 500.34 22 501.54 21.68 502.74 21.63 503.94 21.57 505.14 21.47 506.34 22.01 507.54 21.43 508.75 21.7 509.95 21.79 511.15 21.97 512.36 21.52 513.56 21.79 514.76 21.53 515.96 22.11 517.16 21.77 518.37 21.92 519.57 21.67 520.77 21.77 521.97 21.86 523.17 21.62 524.37 21.68 525.57 21.99 526.77 21.48 527.96 21.98 529.17 22.02 530.37 21.93 531.57 21.5 532.78 21.89 533.98 22.07 535.18 21.5 536.38 21.83 537.58 21.73 538.79 21.81 539.99 21.81 541.19 21.62 542.4 22.07 543.6 21.54 544.81 21.86 546.01 22.1 547.21 21.79 548.42 21.84 549.63 21.73 550.83 22.06 552.04 21.84 553.24 21.96 554.44 21.87 555.65 21.84 556.85 21.66 558.06 21.8 559.27 21.88 560.47 22.13 561.68 21.59 562.89 21.86 564.1 21.87 565.31 21.59 566.54 21.75 566.44 22.88 566.68 23.99 566.36 25.1 566.52 26.21"/>
            <polygon class="cls-10" points="568.34 53.93 567.26 54.07 566.06 54.05 564.86 54.08 563.66 54.04 562.47 54.42 561.27 54.06 560.07 54.28 558.87 53.88 557.67 53.95 556.48 54.32 555.28 54.31 554.08 54.07 552.88 53.96 551.68 54.3 550.49 54.07 549.29 53.76 548.09 53.81 546.9 53.74 545.7 53.97 544.5 53.96 543.3 54.14 542.11 54.04 540.91 54.41 539.71 53.7 538.52 54.03 537.32 54.31 536.12 54.3 534.92 53.82 533.73 54.06 532.53 54.24 531.33 54.07 530.14 54.38 528.94 54.13 527.74 53.7 526.54 54.43 525.35 54.05 524.15 54.26 522.95 53.85 521.75 53.98 520.56 53.85 519.36 53.88 518.16 54.11 516.96 54.33 515.77 53.99 514.57 54.18 513.37 54.13 512.17 53.87 510.97 53.95 509.78 53.77 508.58 53.78 507.38 54.09 506.18 54.05 504.98 54.15 503.78 54.36 502.58 54.17 501.38 53.69 500.18 54.09 498.98 53.78 497.78 54.02 496.58 53.76 495.38 53.79 494.18 54.14 492.98 54.32 491.78 54.27 490.58 54.09 489.38 54.17 488.17 54.12 486.97 54.17 485.77 54.18 484.57 53.84 483.37 54.16 482.17 54.18 480.97 54.2 479.77 54.3 478.58 54.4 477.38 53.78 476.18 54.16 474.98 54 473.78 53.93 472.58 54.43 471.38 53.94 470.18 54.34 468.98 53.78 467.79 54.13 466.59 54.26 465.39 53.76 464.19 54.29 462.99 53.8 461.79 54.28 460.6 54.29 459.4 54.3 458.2 54.43 457 53.9 455.8 54.18 454.6 54.29 453.4 54.28 452.21 54.24 451.01 54.23 449.81 54.27 448.61 54.33 447.41 53.98 446.21 53.9 445.01 53.85 443.81 54.27 442.61 54.25 441.41 54.23 440.21 54.15 439.01 54.01 437.81 54.32 436.61 54.12 435.41 54.12 434.21 54.18 433.01 54.35 431.81 54.03 430.61 54.35 429.41 54.1 428.2 54.17 427 54.41 425.8 54.19 424.6 54.31 423.4 54.02 422.2 53.92 421 53.84 419.8 53.73 418.6 54.31 417.4 54.21 416.2 53.88 415 53.92 413.8 54.36 412.6 53.85 411.4 54.14 410.2 54.4 409 54.02 407.8 53.99 406.6 54.34 405.41 53.8 404.21 54.3 403.01 53.72 401.81 54.34 400.61 54.43 399.41 54.13 398.21 54 397.01 54.35 395.81 53.99 394.61 53.74 393.41 54.21 392.21 53.77 391.01 53.79 389.81 54.16 388.61 54.11 387.4 54.07 386.2 54.31 385 53.71 383.8 54.25 382.6 53.99 381.4 54.02 380.19 54.06 378.99 54.2 377.79 53.74 376.59 53.77 375.39 54.41 374.19 54.27 372.99 54.15 371.79 54.17 370.59 53.77 369.39 54.23 368.19 53.98 366.99 54.27 365.79 54.1 364.59 53.87 363.39 53.9 362.19 53.97 360.99 54.43 359.79 54.08 358.59 53.79 357.39 54.23 356.19 54.07 354.98 53.75 353.78 54.15 352.58 53.71 351.38 54.37 350.18 53.77 348.98 54.13 347.77 53.96 346.57 53.93 345.37 54.36 344.17 54.24 342.97 53.79 341.77 54.26 340.57 54.25 339.37 53.83 338.17 53.95 336.97 53.81 335.78 54.21 334.58 54.36 333.38 54.11 332.18 54.01 330.99 54.08 329.79 54.1 328.59 53.72 327.4 54.34 326.2 53.97 325.01 54.38 323.81 53.74 322.61 54.36 321.42 54.11 320.22 53.91 319.02 54.05 317.83 53.73 316.63 54.24 315.43 54.25 314.24 54.29 313.04 54.01 311.84 54.4 310.64 53.86 309.44 53.7 308.24 54 307.04 53.81 305.84 53.72 304.64 53.77 303.44 54.38 302.24 53.82 301.04 54.11 299.83 54.16 298.63 53.73 297.43 54.4 296.23 53.72 295.02 53.87 293.82 53.88 292.62 53.86 291.42 53.84 290.22 54.27 289.02 53.7 287.82 53.85 286.62 54.01 285.42 54.04 284.22 54.43 283.03 54 281.83 53.92 280.63 54.41 279.43 54.37 278.23 54.01 277.03 53.97 275.83 54.4 274.63 54.38 273.43 54.16 272.22 54.29 271.02 54.29 269.82 54.19 268.61 54.15 267.41 54.22 266.21 53.83 265 54.43 263.8 53.98 262.6 53.81 261.4 54.37 260.2 54 258.99 53.79 257.79 53.84 256.59 53.79 255.39 53.85 254.19 54.04 252.99 53.85 251.79 53.82 250.58 54.04 249.38 53.8 248.18 54.39 246.97 54.33 245.77 54.21 244.57 53.76 243.36 53.82 242.16 54.32 240.96 54.06 239.75 54.14 238.55 54.38 237.35 54.33 236.15 54.35 234.94 54.29 233.74 54.19 232.54 53.8 231.33 54.22 230.13 54.42 228.92 54.19 227.72 53.78 226.51 54.31 225.31 53.69 224.11 54.43 222.9 54.14 221.7 53.94 220.5 54.08 219.29 53.72 218.09 54.13 216.88 54.21 215.68 54.43 214.47 54.05 213.27 54.33 212.06 53.71 210.86 53.87 209.65 53.79 208.45 54.01 207.25 53.88 206.04 54.26 204.84 54.39 203.64 53.86 202.44 54.09 201.24 53.97 200.04 53.92 198.84 54.33 197.63 54.15 196.42 53.94 195.22 53.87 194.02 54.34 192.81 54.05 191.61 54.18 190.4 53.95 189.2 54.11 187.99 53.72 186.79 54.25 185.58 53.78 184.37 54.07 183.17 53.83 181.96 53.72 180.75 54.28 179.55 54.33 178.34 54.36 177.13 54.22 175.92 54.38 174.72 54.33 173.51 54.25 172.31 53.83 171.1 53.87 169.89 53.92 168.68 54.18 167.47 54.25 166.26 54.17 165.05 54.16 163.84 53.73 162.63 54.05 161.65 53.8 161.69 52.95 161.63 51.84 161.64 50.73 161.17 49.35 162.61 49.85 163.81 49.86 165.01 49.48 166.21 49.43 167.41 49.94 168.6 49.97 169.8 49.58 171 49.53 172.2 49.38 173.4 49.52 174.59 49.79 175.79 49.87 176.99 49.92 178.19 49.42 179.38 49.48 180.58 49.61 181.78 49.55 182.98 49.27 184.17 49.7 185.37 49.25 186.57 49.62 187.77 49.47 188.96 49.58 190.16 49.71 191.36 49.29 192.55 49.74 193.75 49.74 194.95 49.95 196.15 49.4 197.34 49.63 198.54 49.6 199.74 49.74 200.93 49.44 202.13 49.79 203.33 49.43 204.52 49.72 205.72 49.91 206.92 49.27 208.12 49.66 209.31 49.56 210.51 49.89 211.71 49.56 212.91 49.65 214.11 49.67 215.3 49.71 216.5 49.94 217.7 49.88 218.9 49.83 220.1 49.32 221.3 49.75 222.49 49.35 223.69 49.49 224.89 49.3 226.09 49.28 227.29 49.4 228.49 49.78 229.69 49.64 230.89 49.29 232.09 49.25 233.29 49.28 234.49 49.34 235.69 49.91 236.89 49.5 238.09 49.36 239.3 49.57 240.5 49.59 241.7 49.83 242.9 49.81 244.1 49.95 245.3 49.4 246.5 49.5 247.7 49.88 248.9 49.62 250.1 49.81 251.3 49.64 252.5 49.7 253.69 49.49 254.89 49.76 256.09 49.63 257.29 49.94 258.49 49.96 259.69 49.46 260.89 49.79 262.09 49.94 263.28 49.69 264.48 49.44 265.68 49.79 266.88 49.61 268.08 49.28 269.28 49.45 270.47 49.85 271.67 49.42 272.87 49.78 274.07 49.62 275.27 49.98 276.47 49.98 277.67 49.91 278.86 49.97 280.06 49.92 281.26 49.28 282.46 49.85 283.66 49.8 284.86 49.56 286.06 49.61 287.26 49.76 288.46 49.9 289.66 49.33 290.86 49.7 292.06 49.34 293.26 49.38 294.46 49.82 295.66 49.89 296.86 49.51 298.06 49.75 299.26 49.26 300.47 49.58 301.67 49.49 302.87 49.84 304.07 49.29 305.27 49.81 306.47 49.62 307.67 49.37 308.87 49.76 310.07 49.92 311.27 49.33 312.47 49.36 313.67 49.81 314.87 49.67 316.07 49.82 317.27 49.94 318.47 49.95 319.67 49.55 320.87 49.47 322.07 49.33 323.27 49.45 324.47 49.35 325.67 49.68 326.87 49.24 328.06 49.32 329.26 49.79 330.46 49.44 331.66 49.49 332.86 49.94 334.06 49.62 335.26 49.41 336.46 49.52 337.66 49.28 338.86 49.27 340.07 49.72 341.27 49.8 342.47 49.31 343.67 49.48 344.87 49.5 346.07 49.49 347.27 49.72 348.48 49.94 349.68 49.69 350.88 49.9 352.08 49.91 353.28 49.48 354.48 49.86 355.68 49.79 356.88 49.68 358.08 49.39 359.28 49.5 360.48 49.26 361.68 49.41 362.88 49.69 364.08 49.95 365.28 49.31 366.48 49.72 367.68 49.66 368.88 49.25 370.08 49.43 371.28 49.34 372.49 49.8 373.69 49.31 374.89 49.71 376.09 49.34 377.29 49.46 378.49 49.97 379.69 49.55 380.9 49.65 382.1 49.91 383.3 49.72 384.5 49.3 385.7 49.95 386.9 49.73 388.1 49.64 389.3 49.92 390.5 49.59 391.7 49.68 392.9 49.52 394.1 49.6 395.29 49.88 396.49 49.42 397.69 49.94 398.88 49.53 400.08 49.55 401.28 49.66 402.47 49.36 403.67 49.84 404.87 49.39 406.06 49.38 407.26 49.83 408.46 49.46 409.65 49.51 410.85 49.57 412.05 49.32 413.24 49.54 414.44 49.96 415.64 49.45 416.83 49.91 418.03 49.48 419.23 49.25 420.43 49.42 421.63 49.28 422.83 49.55 424.03 49.43 425.23 49.91 426.43 49.5 427.63 49.76 428.84 49.53 430.04 49.78 431.24 49.5 432.44 49.25 433.65 49.31 434.85 49.88 436.05 49.35 437.25 49.5 438.45 49.86 439.65 49.8 440.85 49.35 442.05 49.63 443.25 49.68 444.45 49.36 445.65 49.3 446.85 49.27 448.05 49.6 449.24 49.55 450.44 49.99 451.64 49.53 452.84 49.69 454.04 49.63 455.25 49.26 456.45 49.41 457.65 49.93 458.85 49.25 460.05 49.86 461.26 49.31 462.46 49.68 463.67 49.92 464.87 49.68 466.07 49.91 467.27 49.55 468.48 49.26 469.68 49.45 470.88 49.9 472.08 49.25 473.28 49.84 474.48 49.39 475.68 49.43 476.88 49.5 478.09 49.87 479.29 49.59 480.49 49.5 481.69 49.99 482.9 49.6 484.1 49.61 485.31 49.43 486.51 49.35 487.71 49.57 488.92 49.29 490.12 49.99 491.32 49.54 492.52 49.27 493.73 49.33 494.93 49.31 496.13 49.64 497.34 49.9 498.54 49.84 499.74 49.67 500.95 49.44 502.15 49.58 503.36 49.91 504.56 49.57 505.76 49.36 506.97 49.82 508.17 49.45 509.38 49.48 510.58 49.76 511.79 49.48 512.99 49.51 514.2 49.75 515.4 49.72 516.6 49.59 517.81 49.43 519.01 49.31 520.22 49.94 521.42 49.71 522.63 49.76 523.83 49.96 525.03 49.91 526.23 49.45 527.43 49.41 528.63 49.5 529.83 49.31 531.04 49.47 532.24 49.99 533.45 49.31 534.65 49.95 535.86 49.6 537.06 49.54 538.26 49.27 539.47 49.98 540.67 49.81 541.88 49.98 543.09 49.55 544.29 49.29 545.5 49.4 546.7 49.28 547.91 49.5 549.12 49.61 550.32 49.34 551.53 49.25 552.74 49.56 553.95 49.42 555.15 49.43 556.36 49.43 557.57 49.46 558.77 49.43 559.98 49.66 561.19 49.59 562.4 49.51 563.61 49.3 564.82 49.75 566.03 49.25 567.25 49.45 568.33 49.76 568.64 50.73 568.39 51.84 568.36 52.94 568.34 53.93"/>
            <polygon class="cls-7" points="575.89 75.57 574.52 75.28 573.27 75.2 572.01 75.44 570.76 75.1 569.5 75.51 568.25 75.75 566.99 75.27 565.73 75.8 564.47 75.61 563.44 75.22 563.43 74.27 562.89 73.08 563.15 71.89 563.02 70.7 562.87 69.51 563.23 68.32 562.92 67.12 563 65.93 562.92 64.74 563.19 63.55 563.51 62.36 563.31 61.17 563.52 59.98 563.29 58.79 563.52 57.6 562.93 56.41 562.99 55.22 563.21 54.03 563.26 52.84 563.09 51.65 563.02 50.46 563.04 49.27 562.99 48.07 563.29 46.88 563.54 45.69 563.38 44.5 563.16 43.32 562.91 42.13 563.55 40.94 562.95 39.76 563.45 38.57 563.15 37.38 563.04 36.19 563.33 34.99 563.46 33.8 562.98 32.61 563.4 31.42 563.2 30.23 563.14 29.04 563.44 27.85 563.57 26.65 563.54 25.46 563.1 24.27 563.48 23.08 562.84 21.89 563.2 20.69 563.4 19.5 563.21 18.31 563.16 17.11 563.43 15.92 563.29 14.72 562.86 13.53 563.05 12.34 563.56 11.15 562.84 9.95 562.98 8.76 562.91 7.56 563.57 6.37 563.49 5.17 563.14 3.97 563.49 2.78 563.19 1.58 563.35 .52 564.46 .22 565.72 0 566.97 .75 568.23 .48 569.48 .72 570.74 .12 571.99 .53 573.25 .05 574.51 .09 576.02 .12 575.57 1.56 575.42 2.75 575.57 3.94 575.48 5.13 575.87 6.32 576.02 7.51 575.86 8.71 576.08 9.9 575.69 11.09 575.52 12.28 575.94 13.47 575.98 14.66 575.91 15.85 575.91 17.04 575.99 18.23 576.01 19.42 575.64 20.61 575.99 21.8 575.48 22.99 575.53 24.18 576.01 25.37 575.91 26.56 575.89 27.76 575.86 28.95 575.68 30.14 576.02 31.33 575.46 32.51 575.67 33.7 575.9 34.89 575.4 36.07 575.52 37.26 575.72 38.45 575.51 39.64 575.63 40.84 576.15 42.03 575.61 43.22 576.07 44.41 575.73 45.6 576.06 46.79 576.04 47.98 575.43 49.18 575.74 50.37 575.57 51.56 575.54 52.75 575.68 53.94 575.57 55.14 575.85 56.33 575.68 57.52 575.67 58.72 575.5 59.91 575.41 61.11 575.53 62.3 575.55 63.49 576.09 64.68 575.83 65.88 575.4 67.07 575.44 68.27 575.62 69.46 576.11 70.66 575.95 71.86 575.55 73.05 575.72 74.26 575.89 75.57"/>
            <polygon class="cls-9" points="159.99 .63 159.05 .97 157.95 1.46 156.93 2.15 155.75 2.47 154.77 3.21 153.5 3.35 152.4 3.82 151.37 4.47 150.21 4.81 149.16 5.43 148.07 5.94 147.03 6.58 145.75 6.67 144.87 7.64 143.61 7.78 142.58 8.4 141.58 9.1 140.47 9.57 139.34 9.99 138.07 10.13 136.96 10.6 135.93 11.25 134.94 11.98 133.71 12.19 132.74 12.98 131.54 13.24 130.53 13.94 129.5 14.61 128.24 14.74 127.1 15.15 126.06 15.78 125.08 16.54 123.81 16.68 122.98 17.76 121.76 18 120.74 18.69 119.47 18.81 118.53 19.64 117.44 20.17 116.15 20.25 115.19 21.06 114.18 21.75 113.05 22.2 111.7 22.15 110.81 23.12 109.55 23.27 108.42 23.73 107.48 24.59 106.4 25.14 105.4 25.63 105.02 26.69 105.41 27.87 105.39 29.05 105.34 30.23 105.3 31.41 105.22 32.59 105.41 33.77 105.11 34.95 105.37 36.13 105 37.31 105.23 38.49 105.26 39.67 105.24 40.85 105.32 42.03 105.36 43.21 105.12 44.39 105.27 45.58 105.37 46.76 105.14 47.95 105.31 49.13 105.08 50.41 106.33 50.8 107.49 51.17 108.42 52.03 109.74 52.05 110.81 52.61 111.69 53.58 113 53.6 114.14 54.01 115.02 54.98 116.12 55.47 117.14 56.14 118.27 56.56 119.38 57.04 120.57 57.32 121.81 57.51 122.6 58.67 123.7 59.14 124.81 59.61 126.11 59.68 127.25 60.08 128.34 60.61 129.44 61.11 130.5 61.69 131.65 62.07 132.57 62.96 133.61 63.58 134.7 64.11 135.88 64.43 136.88 65.15 138.17 65.22 139.18 65.92 140.16 66.67 141.47 66.71 142.43 67.53 143.55 67.98 144.82 68.12 145.73 69.04 146.99 69.18 147.98 69.89 149.2 70.14 150.13 71.01 151.2 71.57 152.34 72 153.46 72.46 154.43 73.25 155.83 73.1 156.77 73.95 157.98 74.23 159.09 74.73 160.07 75.38 160.6 74.34 161.12 73.23 160.94 71.89 161.84 70.9 161.9 69.64 162.27 68.48 163.02 67.44 163.42 66.29 163.42 65.01 163.89 63.88 164.48 62.8 164.37 61.48 165.23 60.48 165.14 59.17 165.65 58.05 166.12 56.92 166.67 55.81 166.7 54.53 167.12 53.39 167.87 52.34 168.14 51.14 168.65 49.98 168.47 48.74 168.2 47.54 168.45 46.33 168.22 45.13 168.15 43.93 168.33 42.73 168.24 41.53 168.64 40.33 168.49 39.13 168.27 37.93 168.09 36.73 168.63 35.53 168.26 34.33 168.51 33.13 168.44 31.92 168.75 30.72 168.24 29.52 168.57 28.31 168.14 27.1 168.16 25.93 168.3 24.65 167.8 23.53 167.57 22.32 166.98 21.23 166.44 20.13 166.43 18.85 165.65 17.82 165.65 16.54 165.07 15.45 164.56 14.34 164.03 13.23 164 11.96 163.4 10.87 163.14 9.68 162.52 8.59 162.32 7.37 162.01 6.19 161.31 5.13 161.13 3.91 160.77 2.74 160.17 1.67 159.99 .63"/>
          </g>
          <polygon class="cls-10" points="104.31 25.73 103.24 26.27 102.35 27.23 101.2 27.59 99.89 27.62 98.87 28.27 97.77 28.76 96.82 29.58 95.58 29.76 94.54 30.35 93.33 30.61 92.29 31.22 91.4 32.14 90.35 32.73 89.04 32.76 87.9 33.17 86.78 33.6 85.94 34.66 84.69 34.83 83.75 35.66 82.58 35.99 81.43 36.39 80.31 36.84 79.37 37.69 77.99 37.91 79.21 38.45 80.26 39.06 81.36 39.53 82.5 39.93 83.48 40.68 84.77 40.74 85.83 41.3 87.02 41.59 87.89 42.58 89.09 42.85 90.13 43.46 91.32 43.73 92.47 44.1 93.53 44.68 94.4 45.67 95.64 45.85 96.7 46.43 97.88 46.75 98.76 47.71 99.94 48.02 101.2 48.17 102.31 48.65 103.36 49.26 104.3 50.12 104.98 50.06 105.2 49.14 105.6 47.96 105.32 46.78 104.95 45.6 105.53 44.42 105.01 43.24 105.51 42.06 105.47 40.88 105.21 39.7 104.95 38.52 105.11 37.34 105.25 36.16 105.55 34.98 105.42 33.8 104.92 32.62 105.57 31.44 105.57 30.25 105.35 29.07 105 27.88 105.39 26.7 105.26 25.47 104.31 25.73"/>
        </g>
      </g>
      <g>
        <polygon class="cls-5" points=".76 224.92 2.18 225.07 3.39 224.89 4.61 225.02 5.82 225.39 7.03 225.36 8.24 224.95 9.45 225.41 10.66 225.07 11.87 225.26 13.08 225.24 14.3 225.37 15.51 225.23 16.72 224.93 17.93 225.35 19.15 224.99 20.36 224.82 21.57 225.39 22.79 225.36 24 225.22 25.21 224.83 26.42 225.24 27.64 225.01 28.85 224.81 30.06 225.19 31.28 224.76 32.49 224.76 33.71 224.84 34.93 225.1 36.14 224.77 37.36 225.4 38.58 225.33 39.92 225 40.06 226.33 40.01 227.54 39.99 228.76 39.86 229.97 39.94 231.18 39.88 232.39 39.48 233.6 39.49 234.81 39.64 236.02 40.03 237.24 39.89 238.45 39.51 239.66 39.85 240.87 40.07 242.09 39.58 243.3 39.64 244.51 40.05 245.73 40.03 246.94 40.02 248.15 40 249.37 39.99 250.58 39.6 251.79 40.03 253.01 39.73 254.22 40 255.44 40.14 256.65 39.93 257.87 39.69 259.08 40 260.3 40.04 261.52 40.16 262.74 39.6 263.76 38.59 264.2 37.38 263.93 36.17 263.64 34.96 264.2 33.75 264.14 32.54 263.91 31.33 263.71 30.12 264.04 28.9 263.68 27.69 264.17 26.48 264.28 25.27 263.69 24.05 264.33 22.84 263.65 21.63 264.19 20.42 263.66 19.2 263.79 17.99 263.92 16.77 264.21 15.56 264 14.35 264.01 13.14 263.69 11.92 263.68 10.71 263.64 9.49 263.87 8.28 263.97 7.06 263.59 5.85 264.06 4.63 264.32 3.41 263.62 2.19 264.3 1.23 263.7 .98 262.75 .84 261.54 1.26 260.32 .71 259.11 1.3 257.9 .74 256.69 .77 255.48 .67 254.27 .68 253.06 .67 251.85 1.04 250.63 .71 249.42 .66 248.21 .63 247 .73 245.78 1.21 244.57 .79 243.36 .7 242.14 .69 240.93 1.12 239.71 1.32 238.5 1.22 237.29 1.07 236.07 .94 234.86 .88 233.65 .75 232.43 .9 231.21 1.09 230 .96 228.78 .9 227.56 1.28 226.32 .76 224.92"/>
        <polygon class="cls-5" points="40.05 225.37 41.01 225.08 42.22 225.2 43.44 225.32 44.65 224.75 45.86 225.44 47.07 225.36 48.28 224.75 49.49 225.19 50.7 225.06 51.91 225.09 53.12 225.14 54.34 225.42 55.55 225.12 56.76 225.07 57.97 224.94 59.19 225.17 60.4 224.92 61.61 225.27 62.83 224.76 64.04 224.75 65.25 225.18 66.47 224.92 67.68 224.77 68.89 224.82 70.11 225.19 71.32 225.37 72.54 224.93 73.76 225.08 74.97 224.88 76.19 225.35 77.41 225.18 78.76 224.99 78.78 226.33 78.99 227.54 78.98 228.76 78.38 229.97 78.98 231.18 78.48 232.39 78.51 233.6 78.98 234.81 78.59 236.02 78.83 237.24 78.86 238.45 78.66 239.66 78.71 240.87 78.77 242.09 78.51 243.3 78.46 244.51 78.94 245.73 78.32 246.94 78.65 248.15 78.35 249.37 78.6 250.58 78.87 251.79 78.65 253.01 78.46 254.22 78.88 255.44 78.31 256.65 78.67 257.87 78.38 259.08 78.8 260.3 78.5 261.52 78.73 262.74 78.6 263.93 77.42 263.92 76.21 263.61 75 264.14 73.78 263.84 72.57 264.11 71.37 264.33 70.16 263.89 68.94 263.96 67.73 264.17 66.52 264.19 65.31 264.14 64.1 263.69 62.88 264.06 61.67 263.83 60.46 264.32 59.24 264.02 58.03 264.3 56.82 264 55.6 263.97 54.39 264.13 53.18 264.04 51.96 264.15 50.75 263.95 49.54 264.29 48.32 264.1 47.11 263.85 45.89 264.31 44.68 263.98 43.46 263.99 42.24 263.93 41.02 264.13 39.86 263.9 39.52 262.75 39.93 261.54 39.66 260.32 39.92 259.11 39.87 257.9 39.53 256.69 39.43 255.48 40.04 254.27 39.96 253.06 39.89 251.85 39.54 250.63 39.99 249.42 39.82 248.21 39.68 247 40.16 245.78 39.65 244.57 39.81 243.36 39.7 242.14 40.03 240.93 39.47 239.71 39.62 238.5 39.72 237.29 40.15 236.07 39.68 234.86 39.62 233.65 39.84 232.43 40.04 231.21 39.56 230 39.84 228.78 39.63 227.56 39.46 226.3 40.05 225.37"/>
        <polygon class="cls-5" points=".81 263.8 2.18 264.08 3.39 263.81 4.61 264.16 5.82 263.92 7.03 263.6 8.24 264.08 9.45 263.79 10.66 263.6 11.87 263.63 13.08 263.7 14.3 264.28 15.51 263.64 16.72 263.61 17.93 263.76 19.15 263.97 20.36 263.69 21.57 263.66 22.79 264.05 24 264.16 25.21 263.91 26.42 264.27 27.64 264.16 28.85 264.27 30.06 263.95 31.28 264.28 32.49 264.26 33.71 263.81 34.93 264.19 36.14 263.73 37.36 263.68 38.58 264.24 40.04 263.72 40.03 265.17 39.63 266.38 39.65 267.59 39.79 268.81 39.66 270.02 39.97 271.23 39.86 272.44 39.98 273.65 40.16 274.86 39.77 276.07 39.78 277.29 39.68 278.5 39.52 279.71 40.13 280.92 39.79 282.14 39.52 283.35 39.52 284.56 40.16 285.78 39.47 286.99 39.43 288.21 40.06 289.42 39.77 290.63 40.08 291.85 40.08 293.06 40.01 294.27 40.15 295.49 39.59 296.71 39.84 297.92 40.13 299.14 39.77 300.36 40 301.58 39.88 302.88 38.59 303.05 37.38 302.49 36.17 302.82 34.96 302.59 33.75 303.03 32.54 302.72 31.33 302.63 30.12 302.53 28.9 302.5 27.69 303.12 26.48 302.54 25.27 302.58 24.05 303.02 22.84 302.89 21.63 303.1 20.42 302.92 19.2 303.15 17.99 303.06 16.77 302.58 15.56 302.59 14.35 302.74 13.14 302.88 11.92 303.07 10.71 302.78 9.49 302.54 8.28 302.9 7.06 302.5 5.85 302.82 4.63 303.04 3.41 303.13 2.19 302.91 .83 302.94 .84 301.59 .83 300.38 1.19 299.16 .79 297.95 1.29 296.74 .78 295.53 .89 294.32 1.28 293.11 .71 291.9 .69 290.68 .98 289.47 1.22 288.26 .65 287.05 .66 285.83 .8 284.62 .85 283.41 1.02 282.19 .63 280.98 1.07 279.77 .76 278.55 1 277.34 .75 276.13 .98 274.91 1.28 273.7 .62 272.48 .84 271.27 .9 270.05 .7 268.84 .66 267.62 .87 266.4 .66 265.2 .81 263.8"/>
        <polygon class="cls-5" points="39.87 264.03 41.01 263.72 42.22 263.89 43.44 263.63 44.65 263.74 45.86 263.72 47.07 264.01 48.28 263.81 49.49 264.07 50.7 264.19 51.91 263.71 53.12 264.21 54.34 264.17 55.55 263.74 56.76 264.01 57.97 264.14 59.19 263.79 60.4 263.88 61.61 263.9 62.83 263.66 64.04 264.27 65.25 264.01 66.47 263.99 67.68 263.9 68.89 264.17 70.11 263.63 71.32 263.94 72.54 263.63 73.76 263.92 74.97 263.89 76.19 264.24 77.41 264.23 78.82 263.77 78.56 265.17 78.71 266.38 78.47 267.59 78.95 268.81 78.35 270.02 78.3 271.23 78.8 272.44 79 273.65 78.94 274.86 78.88 276.07 78.66 277.29 78.83 278.5 78.88 279.71 79 280.92 78.92 282.14 78.35 283.35 78.67 284.56 78.87 285.78 78.71 286.99 78.46 288.21 78.58 289.42 78.73 290.63 78.82 291.85 78.41 293.06 78.42 294.27 78.96 295.49 78.59 296.71 78.69 297.92 78.87 299.14 78.38 300.36 78.82 301.58 78.72 302.88 77.42 302.61 76.21 302.5 75 303.1 73.78 302.79 72.57 302.6 71.37 302.61 70.16 302.88 68.94 303.16 67.73 302.71 66.52 302.52 65.31 302.99 64.1 303.13 62.88 303 61.67 303.03 60.46 302.69 59.24 303.15 58.03 302.89 56.82 303 55.6 303.05 54.39 302.43 53.18 303.06 51.96 302.64 50.75 302.89 49.54 302.88 48.32 302.73 47.11 302.71 45.89 302.61 44.68 302.91 43.46 303.12 42.24 302.93 41.02 303.03 39.77 302.83 39.56 301.59 40.06 300.38 39.55 299.16 39.48 297.95 40 296.74 40.14 295.53 39.66 294.32 39.99 293.11 39.47 291.9 40.16 290.68 39.76 289.47 39.44 288.26 39.64 287.05 39.59 285.83 39.56 284.62 39.72 283.41 39.98 282.19 40.01 280.98 40.01 279.77 39.73 278.55 40.14 277.34 39.88 276.13 39.89 274.91 39.83 273.7 39.91 272.48 39.91 271.27 40.01 270.05 39.93 268.84 39.56 267.62 39.43 266.4 39.53 265.17 39.87 264.03"/>
      </g>
    </g>
  </g>
</svg>