<?xml version="1.0" encoding="UTF-8"?>
<svg id="Layer_1" data-name="Layer 1" xmlns="http://www.w3.org/2000/svg" viewBox="0 0 336.31 73.43">
  <path d="M0,38.48c.89.51,1.81.97,2.77,1.38.96.42,1.94.72,2.96.91,1.02.19,1.97.29,2.86.29,1.97,0,3.64-.48,5.01-1.43,1.37-.96,2.05-2.45,2.05-4.49V0h39.63v43.83c0,5.54-.92,10.2-2.77,13.99-1.85,3.79-4.33,6.83-7.45,9.12-3.12,2.29-6.62,3.95-10.5,4.96-3.88,1.02-7.86,1.53-11.94,1.53-4.33,0-8.4-.38-12.22-1.15-3.82-.76-7.29-2.07-10.41-3.91v-29.89Z"/>
  <path d="M132.92,0c1.15,3.95,2.28,7.91,3.39,11.89,1.11,3.98,2.23,7.96,3.34,11.94,1.11,3.98,2.24,7.96,3.39,11.94,1.15,3.98,2.28,7.96,3.39,11.94,1.11,3.98,2.23,7.96,3.34,11.94,1.11,3.98,2.24,7.97,3.39,11.98h-42.59l-1.62-9.36h-12.99l-1.62,9.36h-40.77c1.15-4.01,2.28-8,3.39-11.98,1.11-3.98,2.23-7.96,3.34-11.94,1.11-3.98,2.23-7.96,3.34-11.94,1.11-3.98,2.23-7.96,3.34-11.94,1.11-3.98,2.23-7.96,3.34-11.94,1.11-3.98,2.21-7.94,3.29-11.89h59.3ZM97.11,55.57h10.6c.06,0,.1-.03.1-.1-.51-3.12-.97-5.87-1.38-8.26-.42-2.39-.84-4.93-1.29-7.64-.45-2.71-.86-5.27-1.24-7.69-.38-2.42-.86-5.16-1.43-8.21h-.1c-.51,3.06-.97,5.79-1.38,8.21-.42,2.42-.84,4.98-1.29,7.69-.45,2.71-.86,5.25-1.24,7.64-.38,2.39-.83,5.14-1.34,8.26v.1Z"/>
  <path d="M155.26,71.62V0h39.63v71.62h-39.63ZM208.74,71.62l-13.85-35.81c1.27-2.99,2.51-5.98,3.72-8.98,1.21-2.99,2.43-5.97,3.68-8.93,1.24-2.96,2.48-5.93,3.72-8.93,1.24-2.99,2.47-5.98,3.68-8.98h42.97c-1.08,2.23-2.36,4.81-3.82,7.73-1.46,2.93-2.94,5.89-4.44,8.88-1.5,2.99-2.88,5.76-4.15,8.31-1.27,2.55-2.71,5.38-4.3,8.5,1.65,3.63,3.15,6.91,4.49,9.84,1.34,2.93,2.8,6.1,4.39,9.5,1.59,3.41,3.15,6.76,4.68,10.07,1.53,3.31,2.9,6.24,4.11,8.79h-44.88Z"/>
  <path d="M335.73,24.06h-41.63v5.44h40.2v13.46h-40.1c-.06,0-.1.02-.1.05v5.49h42.21v23.11h-80.88V0h80.31v24.06Z"/>
</svg>